<mxfile host="65bd71144e">
    <diagram id="WecunOD-EsZifc5fHuiE" name="override.yaml">
        <mxGraphModel dx="1556" dy="1025" grid="1" gridSize="10" guides="1" tooltips="1" connect="1" arrows="1" fold="1" page="1" pageScale="1" pageWidth="827" pageHeight="1169" background="#ffffff" math="0" shadow="0">
            <root>
                <mxCell id="0"/>
                <mxCell id="1" parent="0"/>
                <mxCell id="1Aj9f9XBXT37f5dDZbWh-1" value="" style="rounded=0;whiteSpace=wrap;html=1;sketch=1;curveFitting=1;jiggle=2;" parent="1" vertex="1">
                    <mxGeometry x="120" y="270" width="540" height="160" as="geometry"/>
                </mxCell>
                <mxCell id="1Aj9f9XBXT37f5dDZbWh-2" value="" style="endArrow=none;html=1;entryX=0.5;entryY=0;entryDx=0;entryDy=0;exitX=0.5;exitY=1;exitDx=0;exitDy=0;sketch=1;curveFitting=1;jiggle=2;" parent="1" source="1Aj9f9XBXT37f5dDZbWh-1" target="1Aj9f9XBXT37f5dDZbWh-1" edge="1">
                    <mxGeometry width="50" height="50" relative="1" as="geometry">
                        <mxPoint x="550" y="440" as="sourcePoint"/>
                        <mxPoint x="600" y="390" as="targetPoint"/>
                    </mxGeometry>
                </mxCell>
                <mxCell id="1Aj9f9XBXT37f5dDZbWh-3" value="&lt;font size=&quot;1&quot; face=&quot;Comic Sans MS&quot;&gt;&lt;b style=&quot;font-size: 14px;&quot;&gt;ports:&lt;br&gt;&amp;nbsp; - 5173&lt;br&gt;&amp;nbsp; - 3000&lt;br&gt;&lt;br&gt;volumes:&lt;br&gt;&amp;nbsp; - .:/go/src/app&lt;br&gt;&lt;br&gt;&lt;br&gt;&lt;br&gt;&lt;/b&gt;&lt;/font&gt;" style="text;html=1;strokeColor=none;fillColor=none;align=left;verticalAlign=middle;whiteSpace=wrap;rounded=0;sketch=1;" parent="1" vertex="1">
                    <mxGeometry x="140" y="270" width="240" height="160" as="geometry"/>
                </mxCell>
                <mxCell id="1Aj9f9XBXT37f5dDZbWh-4" value="&lt;font size=&quot;1&quot; face=&quot;Comic Sans MS&quot;&gt;&lt;b style=&quot;font-size: 14px;&quot;&gt;ports:&lt;br&gt;&amp;nbsp; - &lt;font color=&quot;#ff3399&quot;&gt;5173&lt;/font&gt;:5173&lt;br&gt;&amp;nbsp; - &lt;font color=&quot;#ff3399&quot;&gt;3000&lt;/font&gt;:3000&lt;br&gt;&lt;br&gt;volumes:&lt;br&gt;&amp;nbsp; - ./src:/go/src/app&lt;br&gt;&amp;nbsp; &lt;font color=&quot;#ff3399&quot;&gt;- ./.cache/gocache:/home/...&lt;br&gt;&amp;nbsp; - ./.bashrc:/home/.bashrc&lt;br&gt;&amp;nbsp; - ./.gitconfig:/home/.gitconfig&lt;/font&gt;&lt;br&gt;&lt;/b&gt;&lt;/font&gt;" style="text;html=1;strokeColor=none;fillColor=none;align=left;verticalAlign=middle;whiteSpace=wrap;rounded=0;sketch=1;" parent="1" vertex="1">
                    <mxGeometry x="410" y="270" width="240" height="160" as="geometry"/>
                </mxCell>
                <mxCell id="1Aj9f9XBXT37f5dDZbWh-5" value="&lt;b&gt;compose.yaml&lt;/b&gt;" style="text;html=1;strokeColor=none;fillColor=none;align=center;verticalAlign=middle;whiteSpace=wrap;rounded=0;sketch=1;fontFamily=Comic Sans MS;fontSize=14;" parent="1" vertex="1">
                    <mxGeometry x="210" y="240" width="100" height="30" as="geometry"/>
                </mxCell>
                <mxCell id="1Aj9f9XBXT37f5dDZbWh-6" value="&lt;b&gt;override.yaml&lt;/b&gt;" style="text;html=1;strokeColor=none;fillColor=none;align=center;verticalAlign=middle;whiteSpace=wrap;rounded=0;sketch=1;fontFamily=Comic Sans MS;fontSize=14;" parent="1" vertex="1">
                    <mxGeometry x="465" y="240" width="130" height="30" as="geometry"/>
                </mxCell>
                <mxCell id="1Aj9f9XBXT37f5dDZbWh-7" value="" style="shape=flexArrow;endArrow=classic;html=1;sketch=1;fontFamily=Comic Sans MS;fontSize=14;fontColor=#3333FF;fillColor=#d5e8d4;strokeColor=#82b366;" parent="1" edge="1">
                    <mxGeometry width="50" height="50" relative="1" as="geometry">
                        <mxPoint x="349" y="349.5" as="sourcePoint"/>
                        <mxPoint x="410" y="349.5" as="targetPoint"/>
                    </mxGeometry>
                </mxCell>
            </root>
        </mxGraphModel>
    </diagram>
    <diagram id="gbCsl5sojrLER9iIlV4a" name="rancher-preferences">
        <mxGraphModel dx="645" dy="510" grid="1" gridSize="10" guides="1" tooltips="1" connect="1" arrows="1" fold="1" page="1" pageScale="1" pageWidth="827" pageHeight="1169" math="0" shadow="0">
            <root>
                <mxCell id="0"/>
                <mxCell id="1" parent="0"/>
                <mxCell id="akbJC93lG2wCa56Pdzzp-1" value="" style="shape=image;verticalLabelPosition=bottom;labelBackgroundColor=default;verticalAlign=top;aspect=fixed;imageAspect=0;image=data:image/png,iVBORw0KGgoAAAANSUhEUgAAAtkAAAHeCAYAAABOoBe7AAAAAXNSR0IArs4c6QAAAARnQU1BAACxjwv8YQUAAAAJcEhZcwAADsMAAA7DAcdvqGQAAKS4SURBVHhe7f0LlF1lmeePO7Om57fWrDUza9ZUgkG7Z37/1T29VnCk1bGd9td2o60tCI1gg6hgk6RA5S5euCqCJGBDpRLuCgkKAVSSCgqEAAGRi5BUFZCLQEAREsilaIEEEQpIeP7P8172fva7333OPqfOqdq76vuRxzp7v9e9zzn7/Zw379nnHW+8so3KxVYV26d4xM4PonqhX7M+YvliESs7GWOLjT9EwqeVjVgdZWKs5bsezwfRKA0x8aGfn7FGt+qtYOj3cksRu65ItJJ3qkedxpxwrCyKsZRtFJ2qp50Ij6dR2DIs2cWJ2dDpMfGcShE7P3WOoud8MoR+3cbSi0KXm8wRDIJjHXR1+TIxlrLjFp0QLV0HorMRO9+djPFqZwJCv/9aiti1JBbtlJnKUYfxR4+TjWIsZasasWOKRVoGkt1WxM5PnaPoOZ/KoV/vzaLV/FULPRByjHkAdqEH86Jop0wtQ0shorMRO9+IphG+90pF7Pox2WMsY0M7UfXxJDwfjaLdclUNfTyNIi3jlosUZ0hDp8fEcypG7DzVMYqe86kc+vXeLNopU8VQg2nbg3AQ4cAeRjtlahsxQaxq1Km/4XlGmIi9tyRyaQXXgFzofFMp9LgwGa7zjaLscep8zaLV/FWO8DwURVqmBcnWERPOyRKtHqfOX9co85xPtQjfE0XRbrmqhhtQGw3ShdGgrqLIlFcRyzspIiaJYZTN161otb8THbq/iPz7Sb0XcxG+Z1vNO9kjvL6P1zU+1k7Yj1iediNWt49YfolY3skesfPgI5Y/kWwJnTkmk1MhsicnnieMsAxicoR+PzSKsZStYsQG17JRUF9MBHzk6lARyz+lIiaU3Y4q9KHVCPs8xSPzPgrei7nQ6a3mmwoRu75LxPJ2KmLtNYpYHa1ErE4d7ZSZjCG+FzsXErH8NiDZudAnKJYeC10GMTlCvx8axVjKVjUaDax64A2jQf6GIlAQYZkpFzGhHI+oQh906P74PoX7ECZi76PCiL1fJcrkmQoRu7b7iOUfS8TaaCVidZaNWH2IfIjrtX7+Skn2O875RVsR1lOP0Ccoll4Uuhyi/qHfD41iLGXrGnoQ1hHLKxHLWzJiIqGj1fy1ilA2qxyx/ocRK9csYvUgohG+F6IRe3+G0UreyRqx67qOWJlYNCuj08casfqbRaweRDzE81o/f00lOybPrYSuqz7hz0ksrVH4coj6h34/NIqxlK1r6EFbRyxvo4jVEURMJny0mr92EZPOKkas70URK18UsfI1iPF6LerXfemIvQ/DaCXvZIzYNT2MWLkwypSL5RlLhPU3i1gdkzE64WpSrvXzBsmOhj8nsbRG4csh6h/6/dAoxlK2zqEH7rEMyGE9BdFQMIK6wry1j5iAViVi/W0WsXpiEStbg+jk69DXpaNof6nQ773JEp289uq6GkWsrI5YGR9l8owldD8aRaxs+Tj+mKPpP/yH/0DveMc7ovHv//2/py8fNYtee5nfy5Hy4x/W0/7X//oLWnnzUhrdGT8Hq25bTn/xF39Br764OUiT8q2ftwmT7P/f//s/M0/Ikqu/H803lpA65UmOpTUOf07yaZ/4h49m+i2RzePLNo+N61eb8xBLQ0x06PdDoxhLWYSNosFfyUFD+SiRH9GBCCXYRyxvu9GtemsY+vVcOvT7J3xfxNImQ3Tq2qvraSU6UUenQ/epKGLlysf/8//8Rxr61V20ffOTNPJcPh5f+yD9x//4HyOyOpGxnSX6Jnr3u/ek234uop1NF8G2aTcWSLh2vXJRWrIF/ThGLK+uS4fI5cb1a8xj+Suy6rc7Fe1LdnGIZP/ijp8n29KG9F3vyz4pxdFIsu35WR1NQ4xH6PdDoxhLWUTzcILQUEAi+WMR1oFoM7QId0OIO11fhaLsazKTr8Rr24R+H0yVGOv1N1a+1ehkXZ0MfZxhxPK3Fn/yJ39Czz/zWDTNh+SpmmRL5EU7vq9RHWWjJckWQonW6f6v4PfrunRoyZYQea2mZOuTuy0n2RLSjuzX+2xky4YBya5y6PdDoxhLWR/tlqtydGrQdwJRSkIahcsb1oNoM0LJLhOxeiZBtPLa8nl1NMzX4LWci1jeyRr6ehtGLH8sYmXbiU7X18nQx9vZftZTsiWsn2mpvnOFn8HWgt3I43R642hpuYiXZ/+3TJquS4eWbJFWK5s2TS/JCPf7mWOJUKD9fgmp00u2rk/nl7r9fskr+3wZSbPirE9sXLLlOIr6f953v8X7bFndntShJVse+/w63yf+YR+TLvn9PoklV1+R1Ou3fdqXjzoySUOMNfT7IhbtlAljLGWnQsSEQkesTCw4b0xoEGOMmFDHIlZ2EoR+LcbSfeh8/vXYNMLXcFG5WL7JGvp6GYtYmVjEyk7G6M4x112yJbxov/OdexQIto/iOppFW2uyQ5Eu2ieh69KRFcnYLLANEV4vwJJPy6yU9aIuj0P59ULu90td53332+ZxKMu+Xl8mO6uentiYZEtIGfmr+ytlRJJFoEWetXBLaMlO+2nTZL+fyfYC7rfD/PJYi3VYF6ITod8fOlrJWxRjKTsVIiYVsYiV1eHyxQQIgfDRzuvElykqp9NLR+w1LFEmz2QOfb2MRaxMLGJlJyYafYFQxx9fei5afiKinpKd9bbykt1+KMnWoTJExLmIWF5dlw4rkakga6kVQdQvLC3ZWnD9toQ89vt9SDmR3ti2rt+H1BOWCSMm2XomW/6G9coss5Txj/159pItYetMnwN7fqxUS5lwdlpLu9RblIbodJS5UId5msVYyk7l0LJRRjpcnpgEIRA+Mq8nt69MhOVKR+y1WhTtlptMoa+XsYiViUWsLKJsTJxke/eKpTWL1NvKLxcZW7BkxxN8xMS5lYjVKWEl0oq1iK2XZJFNSfP59MxwpyXb79fRjmTL7Lgvo4/LRvZJFlmWtqUOP0MtZUIpLiPZXthjkq1lHtHJKHOhDvM0i7GUneqhpaOMfMTyu4iJE2LqRey1EYuGZcu+7sJ8sYiVk4jlnayhr5HNIlY+jFg5RCsx8ZKd96t8us6T7ot9yTG2r7Xw7WTLtiTZZdFlYnVKhDIq2zFhFoFsJtk+n06TaCTZUtYvHdHRqmRLHVZy7baUzZfXJz+dafYz2bJP/moxlmUmtp3i5SJ+254jWzaWF9HpaHah1hfzMjGWslM9WpWPWH4XMWlCTL2IvTaKIlou9rqT0Hma5Q2j3XKTIfT1sUzE6ggjVg7RSsgt/NYP38dCGj+fzz75aJdu4VfsVtm0eDSS6fZFW/chW64SM9kSIrdeViVNHkuIsJaRbKnLl5GQ/Y0kW0Lnt7JbTrJ1OdkO8+j+S8hJF6n227at7JpsCUnzX3T0+Yu++OgF3JfzM+QSmMWuQoQX9UbRbjmEjVbFQ8tKEFqaiqKVvIjqRaPnz6eNKWKvOR1l8yGy18ayEavHRyw/op2Y2B+jyTpX2RBx/su//F/ux2ji9Yho/8Wf/zl/OJD17/n0VmPCJHtqRfgC6WzICzq2HzGREbvAF0W75RDthRaiSMTkS6JsPkS1o+h5DPf7iKYXvY7C1xqi/dDXxVYiVpdELC+ivhFzrebR3lKQ9qOpZEvE5LlMxOqamhG+ODobkOwqRuwiXxTtlkO0FzE5aiO8fCHqFbHnsiii5WKvKUQaY72e6fLtRKxOiVheRH0j5lrVi1KSjRhrxF4gnYvJKdmx8xhGrFxVI3bR91E2XyzGUnaqhhamMYQWMMT4R+w58RHL7yOWvyii5WKvKUQaY7km6bKdiG7Vi5j4iDlB9QKSPS4Re4FIxPJKxPJOpYidk1jEylY99IASGwBi6Y1iLGWncmhpaiRPsXwqtIQhxi9iz0UYpcq18ZxHyyBs6OtR2WtSWAYxuaPRGN4oTYfOV+2AZI9LxF4kErG8ErG8UyVi56MoYuWrHs0GmVh6oxhLWUS5iImWiiKRC/cjbDQ6d2VD19HseYqWkdDPcSzaKTPVQ1+PylyTwvyIyR2NxvFYmkSz8tUOSPa4hH6R6IjllYjlrXKMpf9h2VYiVl8dotFAE6Y1C11WRywvor2IyVYLoeVwLBGreywRa6Pb0al+JOXH8nzFyiLaj1avQ7H8iMkdjcbxWFr9A5I9LqFfZGVfULEyZaMTdbQSut+tthuWbSVi9dUhmg00Or1ZxMr7iOVHtBcxSSsZMUlsJ2J1jyVibXQ7kvaDc5pJi0TDemKh8xRFrByiXMSuN0URKy8Ry4uY3BEbxyd3QLLHNdp5sekyZWMsZdsJ3d9W2w3LthKx+iZDxAakooiV9xHLj+huRGQuFMR2I1Z3uxGrfzwi1pcxRew5aBbtlkOkEbveIBDNIjaOT+6AZI97tPNi0y/SMjGWsu2Ebq/VNsOyrUSsvskQsUGtKGLlfcTyI7ofgQjGZLOdCOvtZN0+Ym20ErE6dRSVyewrOI+Foc89YmxR9hoS5tPRLB0xtSM2lk/egGRPSLT6QgtfpM2iU3XE9sdiLG2FZVuJWH2TIcIBrVHEysciVhbRnQgkMBTNKkfS79hxNQpVNlavjljeZF+TugsjVg7RepS5dpTJU5RvssRkHn/CCMfdMhGrR0eszOQMSPaERDsvsvBF2ihi5SVieYuilfxjbafdiNU3WSI2aMUiVrZsxOpDdCZiItjh0OLaicjUHzumZhHW0U7E6pWI5dURK4NoLWLXiFaj0/VVMabSOBQeaysRq89HLP/kjHcQAAAAAAAAoKNAsgEAAAAAAOgwkGwAAAAAAAA6DCQbAAAAAACADgPJBgAAAAAAoMNAsgEAAAAAAOgwDST7BfrJ7L3og/sfSPsfaOPKR3j3I5fRe794I22WLFtvpNmzb+ScnaSg3RyS7yj6yVb7+GfHvZ/mPThqUsbKL761F511f1jXb+iaA217D1/8fvrCjeYMjDP6mFNeuPEomn1jk2ehK88VAAAAAACI0USy80KXoWuS3aRdQ3G+h3/wSbpk0G20wej9Z9N7z36QMpr9zBL6zIRLKiQbAAAAAKAOTE7JPv/Pad4YJJtGH6SzPnA2/UpZ9uYlh9JXfr7TbU0UkGwAAAAAgDrQumRrWQvEbfOKs+kzssyD4zPfup02v+USWqJYnkfXLaLZH/+kWULyhfOX0CUqnxXrF2jl6QfSxz/w5/Tej3M/Tr+9TakcpV+d/X4l6pvpms8cRz970W5lpPbVx+jKo9zSlv2PoivXiZnL0pKTaaV38nWX0Ue+4JbYcN2/+NaBdM1vzUaLlJDstzbTym8dap6D/fc/lM5a4Za15J63RfSzHxxHnzn0QPrghw+lefe0d6YAAAAAAECeFtZkn04rxcOKJPuxy+gz56ZLLF5Yflzz2dUoBe2+eDud9PHz6Vev2lz0HLf9/4aSnX/cLmbJyPluMbgsFTnuZvLOnErtTlp5EvfhObuf3nqE+riPD/OHi9/86EA66x57Nn59+cl8npx0c555n1nCGt4O4blx8eG9knP968tZmP3a9Ldkrbo7R+HzJufO9/vVB2nex/k8T/REPQAAAADAJKFjM9kilWb2WMvfD6LfWGxCvN3Re86mj1z+mNsSsvk6Ldl2yYgVZlkqctKK1EATyR69h856z99kj9l/KOAPHR83kv4YXXLSjfTrFSdb6ZYPI5njaIX4uUmlX2bQ308fz/THfXG04HnzdOScAQAAAAAAQ0cle/ZyrW3tEm93J0vq/j/S87+b6Sdf6KJkJ0tGWFw/o5Z+MFnJ7qeH3f4Mb7Fcf+Yy+vVvl9BJSzbbc8XS/ZsfHTqGvpWR7KPoZ7GnoYlk/+rcvaivnc9EAAAAAAAgR+fWZMu649lL2lyHrSloV5ZsyFIMt1xklNv7wnsaSPaD9vFYkCUjHz/pZJp90u3JUhFBLxf52XEfpXn3x9dZPHz+ofSV445z66830zVHnU1nfdPOjrdHM8km+vXFH6XZIvUh4fP2npNTGZelN3Ju/VofAAAAAAAwJjr4xcdR+s2NZ7MIuy8mfqGfftHWGl9pN7vu+NQVtgXzxUqp/9BD6dQl99CVqn9askcH+2n/D3O+tr/46JD10+/582RttUdLLb3wIF1y1Cfp49LfQ79IX1mSzraLpP/lgen6a5nt/5/fuidZt946zSWbXv0N/eRbh9LHzdKdL9IXLrjHfkAIn7cvnE+XfOuLnIf7/pmz6ScbYdgAAAAAAJ2igWSDSUvmwxEAAAAAAOg0kOypCCQbAAAAAKCrQLKnIpBsAAAAAICuAskGAAAAAACgw0CyAQAAAAAA6DCQbAAqxm9/t809AgAAAEBdgWQDUDEg2QAAAED9gWQDUDEg2QAAAED9gWQDUDEg2QAAAED9gWQDUDEg2QAAAED9gWQDUDEg2QAAAED9gWQDUDEg2QAAAED9gWQDUDEg2QAAAED9gWQDUDEg2QAAAED9gWQDUDEg2QAAAED9gWQDUDEg2QAAAED9gWQDUDEg2QAAAED9gWQDUDEg2QAAAED9gWQDUDEg2QAAAED9gWQDUDEg2QAAAED9gWQDUDEg2QAAAED9gWQDUDEg2QAAAED9gWQDUDEg2QAAAED9gWQDUDEg2QAAAED9gWQDUDEg2QAAAED9ecdLL79KCASiOgHJBgAAAOoPJBuBqFhAsgEAAID6A8lGICoWkGwAAACg/kCyEYiKBSQbAAAAqD+QbASiYgHJBgAAAOoPJBuBqFhAsgEAAID6A8lGICoWU0WyB/v+iqb1zKCZRw7Qs2+7nVF20qpTJO+HaN5Dr1PDrBuuoE9N25N6er5GN/++Yc5itiyn2aaOBbTm7TbrAO0xdBFNN+d+RhB704cP6qVTLh6gNc+/7jJXnWFaMP1d/LqdQ0ufe7vx63aiGL6I9pgeO982Zn7kEDryG5fT0sHt9PpEHYD0cY93Uc/sZbR19+R4Pw71/ymf9xl05I1badcEHNLIAz+i0486kD7A7zW5Bvf8n/3poOMX0I1rtuWeZ+nrO01ft9Cu3W5nEcMX04x38nPV008Pvrk7/5ofeYCuPvVo2v+v+X0xTV5jf037/vPJNH/pIG17Lcid1JV9TeZjNv302V1U1ZcGJBuBqFh0R7J30J03PEYH/oDjhk30ktub8Mff070rnqRjr3J5msSxP/0tDW95yxX2ZNt40e0tYvT+79Fe5kLbS0ufb3CFTKSX8559X8PBfv0V/2gv3ifcSi+3e9GFZOdYv5A/5MwZoG3dPh+JZB/OQn0FXXaJjXnf7KWDP7K3FQL+sHXi9U9OnPSVpk6SLef78uR82ziHTjr0n4yIyXtv5qfPphs3NvmQ2w3alOwNF72f9uitpphPnGRvprvO/LR9zmd+hA77xvl06cXfo9OO+Hu+Ftvn+X0n3UxbVac6Jdmb7/g2HcDP4zT+wPw3XziNzuXX27xTvkh/+x4v+l+ln21hWXb507oOp28uvJwuzbw2ddxAa16KCH1FgGQjEBWLcZfs3S/TnT92aa3EVU/SvS+4OgytSTZbNs3by17YZy3bXniRHBk4ys16SJxBdxba8ya67lB7wW5UX1Mg2QEjdOtxfF7HVbL53EfkaOTuf3X/UnEAXbquouKaUCfJXkCrWayifRwdofsX/gu9R877zENo/prXaFzfFm1JNr9mj383TZ8DydaM3PQleucee9LMryyl340GYjryAF1x9EfptNteyvSpI5K99WfU+05+PmZ+hX76u2DW+S1+fV32JfrIKXfS73XDzWbFawIkG4GoWIy7ZD/xNB3qxPmQRY/TV69pEj/kfC7/0av+TV38WpRsGqX7znazGN9cVTDzPELLeiVPL3352L35gjuDTl25I37B/d0N9HkjYE1mxpsByQ7YQJd/tBqSLa+Z++e9z3zomnnhUGX/idgySSTbsWn58fQeMwN6Ot3xb+MoPW1J9q/pin+AZGfZTDccxu1OO4Suear88opOSPbm6z5n5P6gHz5Nb5VtGJKNQCC6EV2X7Os20Xa3V3jpVxvt/h9spDszM9MF7N5GVzvJ/tb9L7udwst053WujVKSzcp0zzlulvocuje21NaLMwves355SYGQJzPeh13fZI13EyDZWUbvp++wXE2bXQXJ5ud5+VE2z3j0Z0xMLsmWD7wDR72Lz/0M2ufidSxp43RE7Uj26AN0NpeZXtF13BMj2Q/TQplN5tfjTzepZRlN6IRkD/X/manjX8rU4YFkIxCIbkR3JHsXPbHCCbAPN6PdsmSzonvJPudXO8yesO5DVpRcrrHjLjrNSNUMOusX+fWem274ohFns/yDZe88s7wktmRkJ91yop0V/9z1z+bbHrmfFp3SS/t9UISe44MH0KxvXk336U8bniaSvePxFbTgxM/Sh2dm67p3e+SIud3rzvmaWU9s8s78Ozr4hHPoOm44n5uljNudtu9i2sjtjtz/ffrqfv/XHNPMjxxLVz3iZ/B30uCiM+nzf2frnPmRI+jUK4eK16BzHxafchR96oP2PEt/j/zm4nh/NSN30XdkTa6UicT8wWDge2uE7vvxd+mrB/8d7WXyyJcVv0ZnXX8fbX/T5WlGCcnedKOT7G+sopdyz89O2nT3D+m0XllLbPv5/n1Ppvm35NdwW1nfm05Z9TK9/bY/p/bLuHKOTrxwFT37ZsE5kn/i5vyz3fNjjvXTtp30echK9suP38avG98vzv+F02lJ8pzm2WHyf5b+P7ekSr6EeOKFt9LG3BP9sG1nn8tpLZ+zHY/fRN8xa2xtO3Mf5OepqJGWJFvc9V/dbPb59MvX8vl3PBH0+W+L+sy4c2jOufSV3xvy5bubH+NzorM3kuzNt9HJH+Jjn3kI9a15jXaP3E1nf9Z+oc+/TnX0rY4sVfjxufya9WuS96a/4efx2/ya3ZZ77uVDBkvqXqfR7S/yOd3xG7q1/xu0/1/ze5b7//5P8vN/88bIazJPRrLflOUSXI8cB9cz828Pp1N+MEgv+Y6+eBt9zSy1YDn+za6C53In3XXqB7jOvelbd71aMEvtJZvbveFplt3m/RQ6Kdk9s5bS01xJqZYh2QgEohvRHclmRjbROfqLjd2S7B8+RQ+O7DL7myN3DrFyPLNvKLiQbqLrPidpfvnHKN03z0rQSbcEcpLI+qG05OmgltvPpE8Z4fgQ7TfnDJp3yRV01gmHWkmeeSjLYiD3hZI9Suu//8VEXj58uK/rAHq/DOIzj6Cr1qfiYdu1A7fPO++bRyRyvt+pLHGZhp1k95xO8/sPpb32+jv68ncuV2WOoCVPPkvLjuNzwELyJU677OxjU6Fh6QxdJu0DH/vsEseuGd1AA5deQZfNPZY+JnXscwzNVV9GXKXP82Y+//u555Gl/5TzOM/5Z9DnWKCM4Ox7Ot25qcRsblPJZtHptTJy2PXPZIXjRf4QdrB9fcz8CIuK9EGdn/3615G+gYGfET/yygHql3Ii1uacfo0+xeJkzukxA/RMaDWb7+ZjFXnm4/Jl+Fi9oL//G3c60Uole27/11j8/sqI9dyLv0enJhJ8QGSNs7zO/BpoEc+z6dJLuIz54MD7Pngy/ZxfOGkRJ9k959MdDy6kT03/v7SfKSPP0w205vcNznuLkk077qbTWXjly2vzH9byPkobpM9GwIv6rERp9Ne04FN2VtxI5XnyOucPgiKs/Frte/CPad1Fkv0qS6OpY3+WZxZsSeJ6By79Pr9mj6OPcV+m/f0x5gt2/jV759OqD/w8ns7lE7HlPiTPozw3nzydbtd99pI9bQ5d+8tb6assxR/gD3Df5vrPMh+e5DzOoH0vWEN/bCKwiWTPu4xO5dfSB/b9qqlHvggor1fzGj7GfwFxlPPva56nfS5aG5fjZ35Ch7NAT/v7y+jRQokdpfvPExGX193edNBJi+iXzzZfX98JyR594AJ6r9nPx/Xpr9KV9z5DrxV9gPVAshEIRDeia5ItvPIirfvV72jJ7c/SvU+9TG/wrk5I9qubt9G6DRwbf0+vlp21dOy49et2UJu5kKXW7RTUUhE/6Tp6/79aOQnuHjJ6z3dtHYcES0V8HfuytIUGuoMlSMRwH07T05wFki1tmNmumcfSUhbGDDueoltu3cDDmMO3y3mXPGbPUQLnvV5Emfv7uWueVYOcl2wZYK+njX9QbTz1Q1PfR/c9gGbuy+dJH8vmm+grZmD+BF2qJJ9+9+PWjz3GlpvM+SheLrKJrjcfhvamL12jZ3KFnfTkkuPsefvs9XlhDWkk2TLruFA+5NhjWhv2+8W76TuHfp0uC/+VgMXwO+YOBofTkt+m5ydZdsL9Puzy9dl+v8rnRwSM0+beq0WEj/XzVsz2u3CQZdrtdow8cBPdt9m34SWbX5f8ISMrxlzT8uOsSMt5Ucc6+svvGlk1gh+KCD/Xx7yH62Th3JaU8ZIt76FjaEkrdwBpVbKJ5Vja57a+dNO2ZMZ09Jfn0v82fV5Gz7xR3GcvyTvu+JaVxvPuTWdsDTtp0/BTtEPvikm2CPZn3sfPH7/mlj6Tn7nl1+wc+TAQm/02yPMowszlf/REMPu8k55acrw5np7PXke/S9ZzeMmW83w4XTL8crZdOc7/Lefm43TJ2sZrnr1k9/TsT+fesTVXz7H/m4WZX3vn/vKPNs1INNc98zy659W8cG64zEq4EeEG7Zrztr87Bnm9SPyfw+mbFy2j1c/FXzedkGx+hXA9B3E98lrzbf81Hfb1y8xtA8O79xkg2QgEohvRVcmO0AnJHhOJ1FpJ9GSWirh9sj7YLhnR98EepfvOEYmaQR9lWUpr8DPfgXwqvOB/Wy9ViUq2n1XfO5s3imuX6zUS7fZm8AI883y6N5FFL9m9eYnn9gdm2WOc9RMt5pbB73GaP1cmzfehwbGv+LqRzG//giXS7YvSRLLlg4+RxcOKJNpJOAvN3PuatJVIttxSzs4+Spx1gixBsIPzzIP4nDWanY0w+D07a3rKSlkaYvclkn3eYFSI/LKUmf2y/tjuS5ZLBGIcx0v2HFoaCLZlmM4z6cfQz7f5dC/xJ9PP/y1+jOsv/ST361D+wODFI5XsI38cEc5GtCzZ6brsI5d6ybZ9ni59fiEuQxukz9MPpWt/Y9M3LHw/b0t/f9e8vznJ5vfC8U6wi463iWTLzOr/ljpFoqMV8DF9wUp4IrpKsr95h9+XxcvuzAvWNFyO4SX7oEVPRPNt/smRVki/fgf93qTvpFu/asuc8PMXsyI9+gCd/17uV4GA55APq4u/RV9wy1NS6d2bDjrjZvodf0jSdXRGsi3m/tyf/xs+h/KaS9ue+env0M+eCT6YJHXpPgbxr6vpzQbnuQq0Jdl3z80f7Lx74nkrH/dcQD1f/DE9FUtDICYgppxk8+Bl7yAygw5OpNTfji+8U0hsycgw9auZ3JQNyf4vz02FLRPfPCJol4lJ9sgK+orZd7aS4iI20ALTbn7pSgoP4ub49qb5j/hBTUl27u4oskxC0mQtdF6GRAizku378An60rnpP5fnjp3LmGMv6qbQRLLXL7R3+2hUz6YlnzVyMrN/fWOpSiQ7P8b07Hs+LV2/ndr5KZrB+U4Ml23LS/aFccmOpcuxSj0HXVNGZpVkR7/4qNOdkIzcRl8x++RDRvx5m3esvRf8t+/2M+xesufQjb6esnRiJpv7fIwIrfT5ooI+Hyd95g90d1s5NZIr7c48nPrufYZeb/SvXxnJfpbuOuNA87zse8EgvVb0JDSRbHMPbZHcH/2ucOZ305LPWWGe75dopJLdt/qt+PPPYvhO6eu/LFMz4Hm8ZBd+8fHXP6CPS/9n9tOjb9nndJTrNvv4g4Fe17xjxTdMm4VLSQoZpR2/eYAG5qfrweV9NlPEXnWqk5LtGX3xN3T/8ovp5E8p4Z55Gq0c2ZWWSepqcJ/slfw+bOmYx5/WJPuJH9PhcjLm3h+k3U/zeH8tRRuSjahYTJxktx6dkWwevvydQfxyj9/dQJ+Ri69aKuJJloz4tKGFdgnBPpfTOp03EWM7eDQKMwPuy8Yke8P37brkmQu4jaBDIUn5Y+nmwi8Xph8svvwzP1PfvmSLEMr5SyTbHbvkjx2vjsyxx2go2dIvO0B/6WepwIYkwnrMrVFRT4gtF0mWw+xNX1rW5AOBY3TkKRq8fwVd5wbjUw/j8tzHsUn2TrrrFCvrjY41pQ3JfvQiO1MeeZ7COOU2Pys/jpLt7tphPhz6NdlrL7LCHOljGKfc9pI7l6P05PJz6Z/9D5H0fIj2PX5B/JclvWTruo4uWgbiaCjZqSx/6aZgqYZiZPnR9twcc4uro4RkP/NjOsScn356yMlxjKaSzf2X+0pn69lMN3yBy5nZdf/lRr/v8JZuy5fjrRG66zz3IzUstbqutiSbPxw80uD4NSN3X0AHcBl5HRy2RN3ir6SwV50WJPsZuuaL/OLOCXbNA5KNqFhMRclO1jA7wdx07WeNFOW+4CgkS0ZsXv8rjx+9WC8VYeTWc17YWrlCxySb5ceux25Fsk9v8MM5XZZsd+zT9DG0S0nJ1ksxQsYk2cwo7/+UEYCipRcCi9uKi+gr/g4hkRibZMuP8thj7Zpk/+7H9M98nOZcxzoVZfwkO3p3EdNnbr9g1rghb+2kJx+4iS7XX/j7dD+tfkX1xUu2+RLjOfR594HLz4pHKSnZqfTnaUuy/Qx0VyQ7nbXuOe5mO9vs2pt51i/p1cKTUZZf0xUf/9Pc8W246ANGsnsuWNN0acbILSfY/s1aSluaGnnKhsv2M/fRziz/mHKSbWaxj6RrnoikFYWf+XYRznQ/teRII+2Z5ScRiTf5knouoLuDdCl/+JL77YeAsA6R6KRsZLYdko2oWIy3ZL+6cRMtuf3ptmLFxlddLWNF/1rjKrpsH3ms111r0iUjad69jXxm2UCXyY+oiLTm1jg3oIbLRXKSzX0wPyDjjr2oF6VoKNndWi6SlWx5zgfn/5OpQ770uFp/KdSx/vs2feZBJ9NVt6ynZ3fspFH3y/+1WS6y4246zew7n1ZzA02bMIyXZItk2vOYuU92cscR7nMJUS/EzKbapSD7XLaO5dPV5CXbCbMsm9jftKfuKhLSULJFHLuzXES+AGokU+4MEu2Ypalkr72Y3iv1/HN2aQiNPkwL5Ud2zMz1H+ne8+RuIZ9o+kXLcozQ8qPtTHnfUHp8yTH985Imt99L716yz6WPlv/RGcb+EiV/WOhT5aacZBtZzQtuYTjBTqVWlpRkJd3Lc5InV8bnUe1GpNhKeuwDgLSpypr6g2OAZCMqFuMt2VXBz173zOmlWXwdCO8gksEvETnsCPqc5J0pQuzSFOsvsbPchV9AjBGTbPkQYL74WDC7nkF98TF2z26h2RcfxyzZfOyXqmOPdqIkTSS7O198DCVb2EQD7q4sHz1vKLgjAX+wMWuFT6c79Syoo1OSnczkuntSN6YNyZYvuJ0ofZWZWn1Xk0aMj2QX/+Ij9/kkET/b56anpRGmPyxWFwym64sDyRZ2rGHRlmOeeQzd+EzkmJtI9li/+BiXbJbM71p5P+y6YnkXmkm2/wJlbJ21+VLkHpx2QT99m8/B9GCNdjE7afNvRopfU6/eTWeY+3EHX6AUsf+4PRdyD+7C43rO/XR6sNxE2PHMb2ik8JZ9o3TXmXIfbT7X7H5J/ZBsG3oWOifHway07Dt8yTPZPBnBtUtS0jx2Ozv7LPuyQm36UGoZS170IdmIqkX3JftFejAyKz32eJ5iv+1Smg1X0Md4APPXk8Yy67/saPPOnHtffi2nsGWFWc8r9yOe+4t8fTs2LKfvnL2CMhPdUcnmvLef6ZaMRG7hN3IXLTjxChr0M6yNbuH3arNb+HVGsv2xTys89pvoO+esoGebmZyXbCewhtHkZoWMk2hZM527hd9o527hJ8j6bLOON1yfLcIq+0+mm5M7dVjkx1n8PbzHKtnmXwjMrf1it/DbSU/++Ew67ee+X+1INp+xRy9igeT+Rm/HN0ojD3yfTrtkiF/vPqXLkj0qt0709+0+JHJfb86yNu3ztRvDD1Kuz5fKByObMvrrm+jyG4fp5Yx4yW3eDqTpXI9IanLOI5ItiPSbteCf7KeHXgmO20s2v2bv2OnSwtds4S38RtlNGt/CT25VKHfh0Ji1xdLmzNPo9oK7rHi8ZM885jp6nF9EOq98gDD18PMpv8yYq8f/OI279uXuNlLAyM0n0Hv3+Cs66Ixl3GbQv7c2061n2DXZ+172aE7s5V8PzLppfv5ztxxkRp+5jc5wtwbcN5zF3nobHfved9Nen/4O/XRDcNtDZvNt37bH+8lLs+u4sVxER16GM0tAdCgZbi7Z9guVsXpybRVKdlgHJBtR7ei+ZKd3B+lsPE1PuBbawy/vkPdp0VKRlMH5VlTlfR37tUjP6NBC+owRbfn1v1469fwrzA+OJL/C+MGv0VK9rKNAsmXwHVz4WRZGaVP/sI3+MZq0H+3/GE2HJJuRtczpsc+JHPvJ5tjD+rI8RYuTH5o5lA4+RI53bzplJYu7LzhuP0bDx7T6X+kfTB5932tZTvKPZpDXPxAzS36Rkdu++frv8fnZswOSzWy+jb76IX+sh+R+jGa/U++k7aaR9iRb2HTz1+n/iOTJa0d+gfBiee34H2vhdj/NUpzIWSckO3Y3k3PoJPnFT3Oupc2z6cYG9+DedPM3mvS53/VZfp1Q7iohz9X+dOQ3zqdLuS3z66ayj6U5uiY7NyudSrmR3kzab2ixkz751cmD5DXLQp1Zg932j9GwSH5yfxbOv6PDwr6bJSwN1oo7kpnsY46hvfb6e/vjPRfbeuzrf3/65gr5oBGrSP2oTMMfn8my44mf0Mn/1/Zf7lG972z5YaTsD+Dse8od5kNFrL7Nd5xLh5j7gNtzKq97c+zq1zIPu3Rt/od4dvyGbvjqh93rbAa975Ozzbm+9Pwz6fN/b5ea9XzyNFr5TPBrlolkN7i7iIkbaE34oaFCdOiLj3nJjs1kh9HeTHY+CiU798EAM9mI6sfUlWy3vIMvxA2Xinj8kpGec5qvkx4ZpmV9Si6dJF82MEwjbt1uQqFkW0aGbqDv9Dqx5jDiftVd9GzsO6Dt/Kx6ByXbwMc+MP/r9Bn3M+z+1x8vXTZU/ufON99PC77sfqXQ/OR45Key3xqfn1U3Qu0/7GTWZ++kwUu/nv5ao/zq45WubZmN50F+VickW9ixie7itj7jv2RpfuXQ3h0jzdq+ZAs7fne3/Tl8J6n+lxSXrHo2eG90QrLl+cqHfIg48huXx+/6EaF8n/n8PuB//t62//5PzjHPV+7nzAslW9hEt55khV1+aTFzS7/ND9DCr+xjrxEs8ydeeAs9wZ3I1CD3jG71Z9W5LRHpjbfKLeicXM/8CAv3IvrltnLn30r2/nTlhl308uof0elfdP3keg46/jK6Q36J0eWNMXr3t8waZrkbR0u37XtrJz11N7d3lP3pe/scSZv95kdhmla1YzPdtfhbNCc5X164r6NfPtd4edOO39xNV596NP2z/xDjznXf0kHaFv6AkZBItn0tFsds+umznViT3h1akGwOt2Y6L7R2tjgjw7GZ7yeeychsc8mO5eF9XI9/LFEo2aFAmyUvkGxEtWOqrskGAIDqoiW74O4i44K/bd9X6Wcj1Z3BBZbWJNtFbCmIFuMkvJT7+OKRNK+hQOclO8mn6jn8ixdkRLl4uYitLyk798e8DclGVDsg2QAAUDWqIdnypU2588jM73bitn2g27Ql2QgEonsByQYAgKpRBcn2P68+xh+fAeMGJBuBqFhAsgEAoGpUQLL9j898/Q56EYZdCyDZCETFApINAAAA1B9INgJRsYBkAwAAAPUHko1AVCwg2QAAAED9gWQjEBULSDYAAABQfyDZCETFApINAAAA1B9INgJRsYBkAwAAAPUHko1AVCwg2QAAAED9gWQjEBULSDYAAABQfyDZCETFApINAAAA1B9INgJRsYBkAwAAAPUHko1AVCwg2QAAAED9gWQjEBULSDYAAABQf97h/gIAKgIkGwAAAKg/kGwAKgYkGwAAAKg/kGwAKgYkGwAAAKg/kGwAKgYkGwAAAKg/kGwAKgYkGwAAAKg/kGwAKgYkGwAAAKg/kGwAKgYkGwAAAKg/kGwAKgYkGwAAAKg/kGwAKkY3JFvqRCAQCAQCURxvv/22GzU7AyQbgIohb3QAAAAA1BtINgAVA5INAAAA1B9INgAVA5INAAAA1B9INgAVA5INAAAA1B9IdpV48Sm67/77c/Hkiy4dTAkg2QAAAED9gWRXiUevpoMP+jua2fMh2u+QA+j9PXvThw86lBY96tLBlACSDQAAANSftiR7sG8G9fTo6KVlW1xiFxjsW0iD7nErjAz0dr1vHWfLcprVI8c7TP116zvoCJBsAAAAoP60JtlGAFmq+4bdDsfQQpbZ9kS4OSKbY5HsbvWrS0CypzyQbAAAAKD+tCDZI7RsTkSwu00inVMESPaUB5INAAAA1J/ykm3krxXpE0lUS0rmLGdNzyLLTmYNDFt5d/lmDahcZoZc1RHKdpDeP+T2eyQ9aNfMbvMHhcySl9gHBz9rX1B3rh7dTlA2c0zNeOpqOnjmQlpPG6h/5qG06Cm3H0wZINkAAABA/Skv2S0tCbGCreXSyGggvFZQlbibNgKRL5zJDpaRxPIVSTb3LZFmJ8QZic7ty88q5+pJsDP++thHhoYzfShmky37001266fcBvffboGpQrcke7BvT5rGr1n/4c9E3xB19kdk84wMHEXT+HW8vSsN8futN3JcHPMHO9AgXwtmT+P3/vPFdQ3Ov4gGO/xTvBPClpv4WPekWcu2U/RwJH36UbT0ubc785oZuoimT1tIa3ZnaxtZfhTv35OOXCY/cex2FmDy9g7Qtgqd/5HlF9EAv16q06MsQ/PfRdP7BmlXcM6G5r+bz/sCWr2run0H5Rjqv5gGd+8ufB7D9KH+P6U9+tbQW8F7caIYuelL9M6jltGWXbvdnkY8TAsXDNNuft16hhb8Gb2zbzW9qfZNFN2R7IjcWnHNiqqR7MwsspXzvPCWaTcvwoWSndkXkWI3S62Rfbk84TEa2l9WM/LzY2nmYTcoqd5E1x22N3355/lWwOSlq5KdkWp+z4hUDWx3291hPCRbjiFbvT22aRfy8Y6l3aaSPUwLWBQnk2T3DxYMzuMh2WbfnvwBqVgQNNWT7BEa6D3KvF6q0qOQuGSP8P6jafocPpcVES3QLiyd77yI1rxV9B7Kp9dasocvphnzhzJCXU/JjkhyEXEBzQv02CXb5k9nrzoj2ckSkDBUX4sl25LWUe6c0Yt30akzj6Drfue2Pb+7gT4381i6pUwdYFIwfpJtX8dGgN12N5gYyWaMIIs0jqHhZpJt0lkUJ4NkN6Prks0fWKbLTHrzGWxP9SRbjoElu1PnqAsUzWSDSQK/T3tZolcXSfaWn+XS6yzZknfG/MFJINlORkvN0I7HTHauPinbGck2eZocZzPJTpA+NJ2J30mrvrk37XfFBredZf0VB9DMb95FO9w2mNxMqGTz63XaNP8Bkd+LiaDy+0tkc5Dfdyyu/gPk0ox8Sh6fJu9t25aX7KV6uUrQj8xSljkDiZCbsvxeXCPp0i+VZmkg2czgfHfMur7k+BYoObb15PqQk2yZueZ8kj4o50odr6ov245duuJrkD7N5v4mx8TpZomGS0/wAv+8/bAQtmHrGeLrl+t3Mmvv+ujatsfCCUZq7XOWtiUzr1yPWSLiBDFJt2m+j0deuICfey6vBHKQhS05ztlKdo2Qp32ILv3ISLa0xXXxc5UZ5yOz3dLmdJfPS/bqZXaJiekHnwddh19+YtL4/K32iaaPXPeahTSd+9rTM8cc23Z+7qT+1X3cjj+2CwczdZo+hMcdHLOvzxTjtDkqbf4aFhxXn5FeX5frn2rKMLL8aNdHW++Nz3lBetg+Z2sGuG0+f7l0Zvgi2iMpu4DmX8j9iEi2aYOP2+w3/dXnRvq8i8+N6gefk7QO7scevv142nSf5uLIpVvdc3i06l9/fLmK9GcP7s9q7g/XJXn7Vtv+JGUvWEO7kifpYVq4x7vTNlXaUP+7ac7AGlraK8tjsn0xDF9M73Rt+HZ8WravPvrpISesRlanu/2zl9FWJ3kjy1kaWQQf6nu3S5cy22nZ0bzt+tC3+i31GpPZ5rT/R964hc+nTcnXxcHHZwQ56Lvum6EgfdBI9lL6KZ8T3x/TpnNcOa45y+w5M21ye29Ke1tF2PV5ZrF1BzHU70Q3OSg+phl/Sv0PvWmPMyzr4kJO3ybHyJL90wu5vT1c2r/quiymDZ/u8/CJspLtjsedo3+58Xk+R64g9+Ui7sserty//FTSsnV3ihYkmzFiy50KBDQvnFaWc7PDgZSOSbJDgTYy2xnJzgs8s2WkST0pg0PqmCJ9CBm95xya6Z7s4tibzrpn1JUAk5lxk2x5nfMFNSvSsvTBbZp0v+0EWkmuqS/ZtukZWRxabt5DXjiTdrhePcOcrcfl5+uCbObK5mgs2aY8v/+kblsXD9SJ3VxE03pVmstn2DJMg/L+N331km3lNXOMJl3VyeTaUccre4z48zEl4p1pQ+HKZc65+tBg6wmlWfVRlzF12HNlhdqmGYk150B2ZCXbCLQpZzNbWU0l26d7sTbpRn6tMM9WYh39XooS6LCuhDKSzcebSrwcgxy/3bbpC1OxdsebkeJAoH2dRoRlh8vX77ZN+9Hjli13DvVMti6fycPb0h+W2VSsh0mGD1e1RQRTniPfSZZmcwxmWySbzx0LnV/mYaR9jtuWspyetu1kOCPBlrxkq3zhtqunn8VbNmU994JB+5hrooGj3s2v9zRt9kAqsXrbSqtaBy4fCPjYtvrMHmlf+n0Bt++PS2+LwLFU9zshFpGW/thqXH+4rz5tj+n8QWSze36NeB7ltoOlFKYdfn5kWz8O03jTCHZvVqz3YBkWeTNivMeeiUiH27YPC50QW8GenYg19//oP6UFawrKcj9EVudnttuYyeZz8tNNfI5khzsnflvS3+nTfSEnyfMfcu1yP5dzP/e40MpwY8m2eResccLtyvptM5PNz68It0lP2vL5UwpnsveYTT991vWXj2fGO/l4npW+WsGenUg3t/2lPzNtqyo6RmuSbbBSmhFAkchAQvmosks5IqJZSrIz7WnxDfrRxwP6nA5JtsADnL5DSA/X3R/OdkeOSY5B+pGUC2U9xyitOk210yhOu4tzg8nO+H3xUcTOJUYRcfZ5rERnZJffX1Ymg8cBOYGV91wixr4NXVD2WbnPlw3RdeVJy9t8XnQtss9KZU6MPYkAb4+3Y9J1uVg7ImaBHLvHloJjiMk3S5nvZ74eRtITaXbwoCv1GBkPpFWEUWbVbXYt2VnhNkg9vM9KdkQmzT5+3nbLuWIBSsSzANOXdFYwug476K+Qk+xguUi6z8p+do257HPHlTmelHydth77oaHouFnM7GieS89KuEXkUs77bjm+6fLBpUCIYnC/zSwzVyhCJpKdSjQjEu7EPSPOjqLlInnJlnPj+5WVanNOjrLnRB+XJxVpycePl8Uk26Z5GbfIvqPtBxC3xyD9Yelb6sVYhE36k8wy59vR2Nlrm2Ykuy+Y9WaBS+vSSBr3R9od0iLMmD55yfb5+FhMOUH2WWHfLmLMr6kt3uIyUs1wXb0sgUtZYk07R6m8guSfP5QKu65Ljp0FdTaLhtll6hrrchF/TqxAG8nmdD2TbERY5FafNCOzC+nBN2V2vJFk68eSFpHszHIRmz5naTq77im3XMSKtbS3i8/vDD6/z/PxJwxfklvX3SnakGzQaUY3XE0nHXIoHdwwvkaLNkCxpwLjMpNtpNgLtMbKdF7EG0t2IxluKNl+tjZpL21XpHCskp2KKMsPt5P9kGEjmVEWQXV9SWarM/3Ty0scOcm27YSSrY8jJsdRYY5JNg+gfl+sjAidbUdX5Pskg6pIoHts6uKBPRFpJ4heQDNpjOzzUmoex85nukTCzE6bf3pWyyY0WqCdcOdEe0ySbY81+pyLlOrjcWWFhpL9fLPjdudQ1Wn6a85DEH4GnfuRLCUJZtUTTB4+n0l5v6yksWTbc5UV6m5JtsizPs50CYYV4HR5zTI3U23rDJcLSPQl7TikPy1Ktp2xTuv0/Wku2XY77Vc4662XkqjZY94fe13cyOLdimSbvHtEromzl5ryVZHs2D4743w03cjHsabZchG37Zds6OUg3ZTsbcu/TDPUc5jErKVGvNNaOgMkG4CKMV7LRewyDRYyty1SJ2tuU/H2s8z+cbFkd3YmO2VMku0E2fbZ5gvlN46XUs6rRDdc1mLISXa8HS3EeTkuOIaYZJsPAra9qJhLeqOZbN40Is7lZO2x/E3HyBYk2+eNyXNIRJQN4X6zHYh2pGwzyU7TrRy3ereUhpJtxL3RcefTTX2Z81yEiGJkdlhJs9nN/S47kz0+ki2Pi2arbb1zBmIz3rZcdia7AOlPacmO9KfsTHasHT+TbR4X3bXD5+NjcXs0OTFudSZbMTlmsqXOP6MFg164s4z7THYXgWQDUDHG74uPLHdz9ky/hCiirKU7M9vdRLJdul6vPNhnv0vRWLJj/eIcW+xCrPYl2/ZH38IvVpdvRxbCpt/7EMm2spkVXdtWRmxzku3a0ftMnlS8jRxrWRcxdhKcISgn7ZsvIrr2o5Jt+u6eB7c/bc/t4EFYBHrWbKlbD8ROEI1Yp235QVCEbdq0YKZapQv+fGa/l8LSJ2uIsx21+wOBzom29DUjwtJH7pf7cqMRWK5DhNJg8vNxiXTyZkzCk+c8V7elsWTb4xZJjR13cg51nUk76lxzflNiyzANbSG3X+TQfSjQdTv53e12mu1EuhtL9tvmcW/6RUjuS3ZtdUr7ks3HzGJqRTTNO9vPZEtdvJ2Z5XWz2dLmHnyu9Rrs9FwqTB3cn1KSPcxp2f7Iem3fn4aSbQRXrQk3MuzXa0tZllE1Oy7hZ7PzopoeS0uSnfTHzZIb+PXilp1WRbKbrcnOibIRcLXO2m3rc+lns7sq2W5Ntn3skukFemErv1/SKjoGJBuAijF+ks2wyMmXH+X7Bdv5Qmak21/wMt9zaCbZjJPCtDynDfFFsIlkC6ZvvhzHLJZCaaqsZOf/mXaGWQYSYgU4zTNrzgIjlYO8f7ben1ku4iVb8O35pSO6/VSUw3bCu4tM4/OafucjItiCa3uW/u6J+tAQl2zBinZyTrRgO4wg5/ZryfbbaT3zB4f4NZAVSCverh2OI2cP8HkZ5nMix+9fCyWWi2icaPu7hFiR9nUtoKXLehO5t7PEC2m+Ot7wTibZ8tJHrkOOkWWkHckWjGjnjtsm6jT95Ul9d5Ge2XNoPr/GtvOxZpafRJeLyPOQSuqRS5dRf8mZbNllpdwdP8utuROLl2lF+5Jty+o7mNy4lN9PZvZaBPwiWsM2k7aWrStbVs5lf/71Iv0pLdlhnf2qPyKMjZaL2HqS5/aCZXSjrOHn87Cd6wxn5E078iHB2Voo4UfK+ea0ltZkmwy2T3rJypE32g9GTSXbbdu7hKgvMyY4GVbpa9qRbCG8Q4i6u0jSjj8fF9i7fZh1189zuaP5w4w2ZrXUxJyvkpJtys1wfZAlH5yhsWSn28lSlZ7Z9C8/tV9S7TSQbAAqRrckG1SDYjkOyAk+ADUjJ8eM2ccfEth26vTKjs1Uy745LPaJy4FymFlsu6wkOXWyzyyTCS263kCyAagYkOzJDSQbTCmG5T7d2Xsz1/On24NZbo7M/bVBS5glIXuo18Us+WLn5BJsAZINQMWAZAMAAAD1B5INQMWAZAMAAAD1B5INQMWAZAMAAAD1B5INQMWAZAMAAAD1B5INQMWYvJJtbwMoX3LR99MeC81v8decZl9EHBm4iJZtqdm3m4b0j9K4W/q5W+KNhcH5F9GgOlH29ni98Vv0AQDAFAeSDUDFmKySLffCjv4y4xjovmTLfbDtvaNrhZbsLSzZcl9y9QM17SH3a15Ig8rUrWRH7nUNAAAAkg1A1Zickm1/tKV/qLMy1n3Jllngmkt2p9giP94CoQYAgLJAsgGoGF2R7C3yy45yz2W3zYwM9FpBtVvZX3tM9jOmrNvPkfnVxwzpchBbh//p8GB/rA7z65EN0j3m3tG+rl6af6E7Bp89ky6/UpjWY2Q6acP/YmNesv2vNc6/bYCPW/db/TJj0I7+JUZTnuvb7uoJ0zOIDAf9tdm83MuvLHL/TLpt36SL8MoM8vO6H+kxZSV7xPxEeuYn1E15X+8MOjKZ5ZbZ6nS//9VFqU//aqJpSxJkf+Yn04Pys9UvJ3pJH5TnWvUZ0g4AmKRAsgGoGBMh2VnhZrYM06D8nLoT7FR6RZhjP5BiRVqvtTY/lZ6IdqOZbCm70PyMusEIrNpOCNtwP2nu23DiG+1r8hPwadrgkH2kJdsKdjZfbiZbtWP3un5k6tDrzqUOnd8j++U43V533LZtWyb9+XaudznXaz5Q8LaTZPtBxqZnPiw0kmxXVkv3yPKbTD/kJ8H7h/z+SLlwJjsj2VawZwU/Py7Pj0k35bmPydpwqZ/Tuc/wbADAZASSDUDFmDDJ7hHBs2kes79vOCOHIpGzBkYy+4zE6hllwUijF/JWlosUiHykDSO0bp+dQea+BumzZR24kWw1E61I5DQn4kJesm07wcy0SK0rq/vkCWfL4+i2rGRnxNzIsT0vb+vHLln3oZFkG1nvTeW8ESLJ5vxJ1maSnRFuhylzlP1ipH7sks2abu5LpgwAAEwSINkAVIyJWS7CGMm0/8wvX1AUzGy0/6d/HSKMJoclJpZWlq0oiug1lmybN20jL8SxNvQ+I7J+eYYOv1TDzUBn9jG6XP6uJ3nJjgqz+kDRrJ9ZrEyn59gfd0Sy9b6YZOt9DSTbzC5z/4tmj026Oo/JUpImkh0XZu7zdNc2JBsAMMWAZANQMSZMshNSOY7NZEcZy0x2Jp8Qn8luJq/mcTCTHcf2xd/pJJFmJ+F5se3STHbkuCd2Jtvmm+2lmsFMNgAAtA8kG4CK0RXJVuJsYdGULzp6yR4apkGzX/CSyw8jck5bRrh0iK2/rTXZoaAXLe1QEmyxbWbXZGtpZXxf/Rpzg+uLE9iMABtR1W3nJVv3w+619fk6jGTrZSe5/I5EhNV20raV7Mz5lH76NdhGsrN9EEHOHEeBZKdl3bakz19OI29zmyzBqbjLtuuD7Ggm2Un+RmuyG0i21CXnrWiKHQAAagYkG4CK0R3JZtRyEFmWsGxgYSLZgwO9NCtZspAuFzEY0U7Teub0Uv9AXrO99Kb5vGALDSTbS6ov1zdAS7mNjNh6zDH4NhbYO1VoQXdCm/ahl+bzsYxwucz+cLmInmU2spsKrkl3x5/c/SNsR9VnZ7Kz5zO9a4gmOO4L9XE7yebtpA0v2IIRZW5jjksz5YNjKJJswQht2v8jue013K79gJCe36XLetOZbFOPX0oyx8pyRrIFK9rFdxcplmzzWD5kqHQAAKgzkGwAKkbXJBuMC7HlIq1jJTs3++1xkp3OOgMAAKgakGwAKgYku95AsgEAAAiQbAAqBiQbAAAAqD+QbAAqBiQbAAAAqAc7dvyBHnnkcbrjjgdMPPzwY/Tyy6+YNEg2ABUDkg0AAABUHxHsO+/8Fd12232ZENkW0YZkA1AxINkAAABA9ZEZ7JUrs4LtY3j4MUg2AFUDkg0AAABUn1Wr8rPYPmQ2G5INQMWAZAMAAADV5/bb748Ktg9INgAVA5INAAAAVJ+OSvZgn/sVLx19wy61kwxTf6l6OV/YHxO9tCz5CeW6Y4+xf8htCvILfLxvVvRX90DdgWQDAAAA1afzkp2R3xFaJj/r22nRHlpYss6IgE46iiV7ch/31AWSDQAAAFSfLks2I0Lcs5AG3WYnGBnohWQnTIVjBBpINgAAAFB9Jkay3UxrsnwjJ8wijr20bCjN5yUytySloWyXE1Aj7arOXH7TXz4GcyySxy83yddv69LHa2fzM0s3knri7fkPEcmxzlnOtaRkzkHfwsgxuvOnl8TkjkEi/+End34lgvbBxALJBgAAAKpPlyXbSmhmX24pQ2xJiStXIHednMnOSXFsqYX/UBBpM9sXdyy6vJdbt2n7FLaXlV3bp3i/c/110pzNWyTZ+hgi513q0uc83AaVAJINAAAAVJ+uf/Ex/PJdVJCNKIYiWizH0TqiOFkPIu2TFc2wndyHBSOoBV+W1H2XfCylg9w/30bzvuaF2JSJym2sv7FzVSTZjdvJtQvJriSQbAAAAKD6dH+5SEA0T04AOyvZRfUUpedks5FkqzqknJFrJ9sj/L+YxPsyqfiXlexYf4v2tS7ZgtlX0C9QDSDZAAAAQPUZd8k2Ehfm6fJMdlE9XNPYZ7IZyT9rYJjr8nmkXn5s1pRnl4LEP1Bk654wyU4+HIAqA8kGAAAAqs+4S7aVPS2FVnSz5RrLceck29WlRTjXPyYiqBnMhwQ+BiWoUu8sFu1cP8MlGKZsWcl25zhoR9ruiGTzI/NcyLEk0eC4wYQAyQYAAACqz/hLtuBENhG5XJkmcqzLF8iopblkC15UfeTyN5Ns105m/bnrY77tQGT7lqsZcEsjyQ7L2xn0zki2PH9hf0s/p2DcgGQDAAAA1aejkg3qjJX37BdV7b5mH1LA+ALJBgAAAKoPJBso7Ix8MsvOAcGuHlNVsgf79qRpweuzp2+I3nbp7cGv+Wlc74Vcz9gqopGBi2jZlnglIwNH0bRpQd8lcu0O04IO9aczcH+m2/7snrD+7KS7Tn8ffeyK9XxONtDlH92TTrrl5Qk4P3Iu3sXnYnD8z8XwRTSdn4f5a3a3f9xbbqI53P9ZS7dNyHM5svxo2mN6L924mY/B7SvHDlr148fo0z94jA5UcfYDO7p8HNvph1c+Rlc//nZ3Xmsbf0cHX/k0PcYHka3eHu9BK7bTrgl4noSRm75E79xjz/Q6dcEaesuc7BFafvSf0oI1b43p3A/1/xm9s281vTkRL8RxBpINQM2Y0pKdkeoRWtYb7muRLSzZXMesge1jlHXpy1G07Pl4LUay5yyn7UHy4Hzu/7QFtMaP4tyfBR3pT4fw/VnG/ZmwDm2gBe/Zk05dyWI9soK+Mv2vqP+RVkWtE0x2yeYPM6e8i2Yv646EW8leQKvZHFur3krnd3+lpPqFTXRuNwXYMEUle/hiFuyF9NBb/j0mYv0lWvbcLtoNyW4ZSDYANQOSrRhayJK6kCXVbU8YLGDTWpdsK+fuuCb/eNMeLIezp/8jXbaeZeTRi+g9046lm7e1KmqdYLJLtnyY4fQuSXb7RCSb2Xjb40ZEu9fXqSnZQ/1/Snv0+ZnrEEh2q0CyAagZdZTsxx9/gvbf/9Pmnx7lr2y3SjPJNiLbN0xrJJ8szZgzkEitnTF2//TZ00tLExm2kts/lA502aUdapZZ2LKcZk9L/xnVzPAG+7L1W4olmxm6yB2DJLr+DLr+xNqT/Uy2n7bNt0VIp/Ua2U/yLfdt2/oHROp9X805sjkH57NA6uM2A6DN3z+Yzhyb+lSf5gdp0/k5Sp4DyaOXmvCxTo+UNW1zX7ZlbMYuE0n7lI25D+2m7XwOpu+1kG7+xUL6/F9zm/tcTmu5sR2rf0inHfH3tJeU/eABdMr1T9LrrmrTx49ymVvOoc//3V/xufgQHfadVfRs0vYoPbn8uy5tBr1/35Pp0od2cD+dZJ+6mJae/UX6AB/HzI8cQ1etfz05fnpxmC4/8Z84zbZ74pXr6WXdbqSvUV59igbOsW30fPBwmn/u18w5TyV7Jw1d+nX6lNTD/d/3+MW0zjfkyv5/e8l5lmMboI1/4LRQsl99mBZ8Ss779fTM83fRaX/P51qd3yN9vhcfdsdk69v3+Mtpze/964vr2ONddOpN6+hmbvP/mP7OoUsejCzn4Q8Ke/Qup63umIfmv5tmDwzS0t538WvCt7k1Im/lJPulB5+kg1iK7XKSjXTHiOujmfV+mq85T6t0lltO9NWFZW83ZZ1kP7CJzuG/drmKT3O4GXW/lGUxC7nvj/Tvu7/aTnfcwMIs6aE0l5Zs3v6Jq0Pihk30b76RFzY3bP9caV/qkvRbpb4GdTnsUpFe+ukmmbkOCSXbbu8x3b1uZi2lLbtUqa0/o953vpumu9fUv9y4hSQ5lGzb5rvowofezDzHkwFINgA1o46SfcABB9mLsAsR7bdzo3Bj8pJt11P7ddleOuezoGqMYCvhtmLuRTgr2bYOL7yMCDCLgSnrhDcRYGZkYLm7/We7M9mMqdeKcdIf04Z9rJeOjAwN895IP3nvwPJhJ/zFkq0fG7YM06DcccjIL9eXjHC833wfIyvZprzOZ6Q+my4SnYi3mYX26SKpaV5hkI/HtiGC78XeM0o7XtxJTy6xUrzm5R103/y/N1L4BD8e5Ry+vZnHLKZ7n9xOO3bI3k106ylH0alX3UrrNm2iwUXHsWx/gi5dl+3jfqdez2WecumyJGabEcNNN0r63nRY/yrauOkpuu/H36XvDDzLaU6yZ7L03rKeNj61gs7bj19bMxfQaun3q5wu0rrv+bR0/ZP05P0/pK+w6Pp6432NMUr3n/M+znsAzV0m7dxP15/+T3x++LVtJHuUBfXATPri4/gDgXxI4X48uUjSeunSe5+kjRvuomWLltP6nGSP0K3Hcxt7HUM3Pivnhc/14z+26T/aSC+9vJNM97yI8zHduO5ZenbDTXSe2V5Aa1+T15iVbHNObvZ9kb6fTD9/IX2eDRHJnj5tTrpGW9KnHxVZsx2R7I0izBuzIv3jTfSiTudt/iyQirCWViWxVrC1dHP6g7I8ykr2p1lETT2MEXu/7eqVmW7br+30o6s20p2uTyZvKOWakpIt/TuYjyUV6+208QXuqxPsVtovrMtuOR6mhUqM0/XYQlayRY57B7YacRZkFnzOMivSXrDnP5TOeo/c9DMa2r2bBpVkW8FeQA++GT7vkwNINgA1o46SrWc+fbQl2UEduZndnMiKiHuB9Wh51ZKtBdcj+6w8NxTlLkp2fimJ3R9dt91kJts8zsi5w0i2mw13uyxasvOz2oKZheY+mkFXRLJXz0hbgZZ1vlZSU+ksy+D3uP6z76PXRAyPexd95tpnkvJWXLnfz4b9VjjRz8oul3nOlxmm8zjdLgPZQJd/jNs7coCeyXXSSbZaLmKF3Nb18u1n0vTpqcwL67//SZp+6PX0jMhEtK+uTv+alrpfvotOk33nqWUpernIjrtN+scuXpemb/g+/cP0z9KS3+62bU47gubf+yy9/qZLFxLJfoaeHTiO3jP9AK7vtfS5yEi43bXjDjmmPWnug7uSfKO//C7L8J50ym0vcz7uv0g293uXz7DmX036l24Klp3EJLtPlXPC3r8mbctipTP7xcfsTHQOI8BPE/sny6g83pgKOWPE2shyROATIstFlBibOoLZadl3rqvLSG6QnqEVyY7kM/tbbL+orjhatvvdGu3Gy0WMMM8fTOWZrwWZmW1HMpM9eBHNeOfCSSvYAiQbgJqBmew4UZHNCGyKmd028uqk1ki2iHJe5CVkdjxpP9oBKdumZDdaLsKkS12sBNu2snkSmki2wbRnP/RkvtBoyrrjT5Z4aLEWIcxLtqnfibURyULJTrft8YQz1wFOjmPPR88HL6d1MpDnhNmy4/HbaIFftuHKHNlAsu0dVERq5bGVxnzX8mm6ru3mcf7DpBynzHQX9XV0x07a4eNV3mFk134oSPqgJdulR1+nkp5bLuKWwphy3H+f/xt30kvJ88S4dC3Z8mXF6XJHkOfUc25mnPd0y0n4nISSnUm3uwxjlGwvwiKK2Zlnh5+xDkW8oWQ3WnfdWLKfMDPFWvxdOLHtlGQbTF5bv7+rip2pDtqWaNZ+pK7GWNnuXy1inZdsOxOtXvcXrDGSLbPa7+yzj0OMZLslJn4JyWQFkg1AzcCa7DjdmclO6c5Mtm0zlfcGfUhkfLvqf4CIqTtenyZyl5HsBOlzrC0r1rONgGvJ1o9Tys9ku12OfN6QURbPu8ws80nLnqGXH7/BfAGy/6Ed9LJbahEV1w3fp/25zOcuvJXuXb+JhVvKNZ7JTiXbzWQfYmefszSWbDuTfQBduuZl7p8S50Z9jTFyG32F29lLi76WbDeTvd/lg3ZZh2oruwBllEbu+C79A5f7sswqP+8k+pqNtPGnMpP9V/Slpc+kbUQku52ZbJ/+7bv/mNYtdEiy/bYs/0jqN8tHlHhP0Ey2pqlkR/plkWUfehmIJk178Vf5mWxN0/YbtqPRYp2VbP8lycza6lZmsp+7yS0pmXxrsT2QbABqRh0luxO0J9luJriVNdlBHSNb3A805dZkc9n5y4nHSKY9ybaz1PrLlVnJtmuWHSLZbn24qU8v++C+LRgYYRkIxdmKsT1+3sP12TXkQtrnt/3abEOxWIsoNl2TXSjZI3w86Y9dmbxOzuNffGQ2y2y2LIPgPq7+V5bUc+je19I8MXEVyZs+7a/olJ88Sc8+NUy3LPxiZs11vozIs5dsok1Lvsjp2TXZX71kiF6PzHJn6hrdYNYv73X4Arp58EnaJG0vOpPOusF+6TLW1zib6PrPczszj6Gr7pN11cvpvIP/is97uiZ7/cIDafpeR9D8W4Zo4+anaPDWH9Jp59xgvuC46eYzub9uPfqSM+ljfC7m3vuamwH3Ep2u606Wt7DcHyPHN/tyuuO+9TQiS03Krsn+5Ol07RpOH/oxnSbp+yyg1SZd0THJFqwAn+NmYr3w+vTMbHdDyQ7ySiLn/+GDO7gPjSU7Vi+9sINecg+bS67LIzPuUp/ex337t2THdtrIj+2mWndt1mS32H6krqzkR5aDZG7pVyzcvuweFzrpzq3J5vT+m2j77t2pZEsC1z/jnUfZL1r6NicRkGwAagYkO07xbLGXWffPmS3dXWQGzZqzIJVntdTCpF04QGucnOo2ZHmJ7kZYZxK5H53Rkj3Mj7lckl/3O39M85cN2WPP9JHLLOMPFW4me5BFb7Y+NrdcZITLJEtFJKLLRSwii/oc5O4uUiTZ7p7baZ/1HUxYzHJffHTC/NcL7dKQm4+j6bOya6Xj4rqJbv2avbOI3P3j0ofW83lMZ9PzZbKSLXfuWP/jM+0dQHr2pg9/4Wxa+qTcQaSJZMuOF4dp8SnuriA9H6L9jmfhNmWL+lrA5rvpO5/7v3xObPs3P7ScvsJ97DeSLRl20hALvO3jDHr/J09m4bYyv2ONvrPK4fTtZe7OKuFMtQj0Z95nhHn1K9InlvdFR7s7hBxOc1fZ81Xm7iLTZp9O3z5M+st9+ezZ9PPYGvmOSjZjZq/t8ojd/kuKbsnE2Q9soqtLzWTbbSu7brnFDzbS4ge204vNJFu2Td1qicoNXNb1s4xkC9IXv3zDRFBmI6d/N3Ns6jwEdxcx7evlJJG6dP7ccpEtD9PQEL9O9ni3uu749dhCINZGwN/l8s2hn964gPaYP5QuETEC7dNn0L9csJRWP5f94qPONxmXjkCyAagZU1Wyu0NesgEAZXGSrZaLAABSINkA1AxIdocwy0b2zNxPGwDQCpBsABoByQagZkCyAQAAgOoDyQagZkCyAQAAgOoDyQagZkCyAQAAgOoDyQagZkCyAQAAgOoDyQagZkCyAQAAgOoDyQagZkCyAQAAgOoDyQagZkCyAQAAgOoDyQagZkCyAQAAgOoDyQagZkCyAQAAgOoDyQagZkCyAQAAgOoDyQagZkCyAQAAgOoDyQagZkxVyR7s25Om9cygHh19Q/S2S2+PYeqfxvVeyPWMrSIaGbiIlm2JVzIycBRNm7OctkeSTdq0Xlr6fJkODNMC7m//4NtjPO6Ul361kT59wyZ6MVLhE7c9Rp9esX3M56aWvLCJvnvlRrpjhDp2rgEAUwtINgA1Y0pLdkaqR2hZb7ivRbawZHMdswZYJN2u9pC+HEXLCkS5uWQvpDWlTBaSPW5AsgEAYwSSDUDNgGQrhhY6QXXbE4bIb3uS3RqQ7HEDkg0AGCOQbABqRh0l+/HHn6D99/+0WeJxwAEHme1WaSbZRmT7hmmN5Js2g3rmDCRSOzjf7TPLTPTSDDsb3j+USqudWfZ5F2RnmLcsp9ksuX65yqxlLKDBvmz9loaSPXQRTev1aU7WB5fTrKROXV8o2W423/dT6lJ9me/ymeM358PXk9KaZG+nH17J+37wGB0oocsZKX2aHn/i6SR9MT/NL0r9Pn8g7KZ+n6bqMn3ivMVlg37oNNMPt1/F4setLJu6k/3cX9WfDDnJ3kGrfhzrb8F+Pg8HyflQ9fvzudvte+nB4r5kzk2jfgIAKgskG4CaUUfJFrFOJdSK9tsR4WtEXrLtemq/LtvLsYilJhVMt8OIuRfXrGTbOtTSDS3ATqb1LPLIwHIaNI/GMJOdk+xsf7P915Ktlsvk0iyDQ8P8/yM0oEU8oLxkW7E951c7kvpNui/r5dbnD7dd+atZvGUzU5bxYi15vQinbeXL+sdecu22fhym+XqVsMoHgoJjDyXbCLHO+8J2euKFyPlz+5tJthXsbF8O4np+L9u5slwnHwMAoF50VLJHBnqphwcSviYBALpEHSVbz676aEuygzrMTLJLj4usiHhvIL9WTu06bC3Z7rGSVJvXynNDUe6wZGf6YGanvfin6cmHjiSjTTPnJNZOAV5o7YxpJLwkx4TUieidIqL6sUnMirEXXivOkqbzCrLvaXqCd+TElckKfxZJ+25SL7fpZq0bC7gg+8J+OGKSHZlRLtrfWLKb9MWUxVIVAOoOJBuAmjEZZrJl6cjYZ7KzREXWzD6Hku1mh42gasm2kpq7gwmHzI7npVYzvpJt+xi7I4mftZb0+Mx1SExoPVps4/mUSLci2SZvROh/YMUy1la4z/RNlQ1nvZO0RMyD/Sr8UpIMgWQbjPzaMqY9nxDb31CyS/RFnyNTxlQBAKgRkGwAakbd12TL346tyVZ0ZyY7pWoz2dulTr20JWBkuW8znu4pK9ndn8lOifUp7YuuJ02zM9n2cXaG2BObPW5ATLIT3LHl5FztbyjZrfTF5jXHV6rjAICq0H3J3rKcZvUspMGhhcmsUP+Qy+u2e/pk3aCGB7s5Lk0irJPJlE+C23HpBtN2mi7tZgjSZw2ErQBQPeoo2Z2gPcl2s9atrMkO6hjZ4q4LuTXZXHY+X5vMxvhLtmxlj22Er7PpNcxItpt5T/MltSaUlmwnkKHcJmVbkuywbstLL+ywf6VPegmGm9W1dYWCHvRLPgzwdmaG2LUTO1bfZo5Qsp/YTty8Q/WhaH9O0m0/rWRzu+Eabybpi1/XbWjxwwEAoDKMk2SzxHqRDrd50OjnbS3AUo8W3sG+QIBNHUqow23BtZPWK+300rItblMGSBZ5Xe/I0HC27wBUEEh2nEYiaySzrbuL8DVizgJK5NkIb7q+fNaFA7TGXVN0G/6uHp6wTh8m3xgkW7Dt8jE9PGTu+Z0ud/HLRTr1xUfBiaKXV12uRckWTP1Khs/h+kSsbZ820jkqTe5U4stZCfdpT9MdvG3qlT78ODiWoF/ZstLm06rPikCSn2Ap/q4uJ+1xQtF+wa7X9mm2n16y8+m2L9Lei/xBIbOcRpUBANSHcZJsLbehVOdlN8TUq2e7zax4Y8nOlWGy8m7bzc+iA1Btpqpkd4e8ZIOJp5H4N8TMYgdfQowtcwEAgHGgspJt6kpmZCIyrJafSIRLQWT2W6cnEdST5tN9BKC6QLI7hFk2sidfs9RSElAJ2pZsJpypzsy2AwDAOFJJyTbiq2Q4PystdQTLQwLyZZoQzo4DUFEg2QAAAED1qaBk2+0wvXgGOo3MbHauXWbLSKZv9ocaHCLZYd8BqCCQbAAAAKD6VHO5SGYpCJcd4O1gZju6vCTathLxOb3Un5Qb5na5jG4Hy0VADYBkAwAAANWno5I9XoTLSQTZF4o3AJMRSDYAAABQfWop2ckSEjVLDcEGUwVINgAAAFB9airZAExdINkAAABA9YFkA1AzINkAAABA9YFkA1AzINkAAABA9YFkA1AzINkAAABA9YFkA1AzINkAAABA9YFkA1AzINkAAABA9YFkA1AzINkAAABA9YFkA1AzINkAAABA9YFkA1AzINkAAABA9YFkA1AzINkAAABA9YFkA1AzINkAAABA9YFkA1AzINkAAABA9YFkA1AzINkAAABA9YFkA1AzINkAAABA9YFkA1AzINkAAABA9YFkA1AzINkAAABA9YFkA1AzINkAAABA9YFkA1AzINkAAABA9YFkA1AzINkAAABA9YFkA1AzuiHZUicCgUAgEFM53n77bTcqdgZINgA1Qy4EAAAAAKg2kGwAagYkGwAAAKg+kGwAagYkGwAAAKg+kGwAagYkGwAAAKg+kGwAagYkGwAAAKg+kOzKMUojj95P990fxKMjnAIAJBsAAACoA5DsyjFCq751KO33wRk08yOH0sEf2Zt6PngAHfytuzgFAEg2AAAAUAc6LNnD1N8zg3qS6KVlW1xSpbD97B9ym2NkZGBhx49zsG8GzRoY4bp7qadv2O0FAJINAAAA1IEOSvYILZtjxTBhaGFFBbGTki3H3fkPE5BsUAQkGwAAAKg+nZPsLctpVmVnrkM6KdlSFyQbjB+QbAAAAKD6dHAm2y0VaSSERsQX0qDMcJvlJBK87ZITMul5Gfbiaf76fLl27cx6kj5nuVrT7CR7QPrj88RFWWQ3qSPMY46nOD1bNnKchYzSqtNm0Jd/zpL982Op57S78KVHkADJBgAAAKpPR9dkZ6Q3Jq1eShMhdiKcEWQRYCWkXszdpuDbSZem5GemTR4t1luGaTDpj/tAoNKNEGdEPLLPyH94XFJX5FhNXt1vbr/kzPno6u/RR/f5Hg2+yhuvDtO8fT5B81ZDs4EFkg0AAABUnw5/8dGiZTuzRjuypCQnwznyEhsrY4RYybrtQ9HscV7KY1Kcl+fIuvOGkh3Z34zRDdS/79501j2pVI/ecw7N3HchrYdnAwaSDQAAAFSfrki2Jz+bXFayrQQXzYrHykTrUctO8mLcRLIjfRVCmS+UbMHP3EvklrPEWX/FATTz7PuD5SGjdN/Ze9N+CzZg2QiAZAMAAAA1oKuSbcS1VcnO5clLbEyo8/KrCaW6hGRH5bmFmewMsXIRNlxB+808g1a96LY1L95Fp848gC7b4LbBlAWSDQAAAFSfzkl2KNQxsSwj2WE9Rn4jZXKzzqE0DzcQ5jKSPcY12Zk14PZcZNrLsYmuO8zNejeKw27gnGAqA8kGAAAAqk/HJHtQpFakVAlhbua2jGQ7IU3q6VvO27EyvUasfb5QYAc5j05vebmII3tMEZlmdB5f5wjXp9tvulzk8atpP52/MA6gRY+7MmBKAskGAAAAqk93l4t0idhykfqziVad3UsHH3Jow5h19l2YyZ7iQLIBmJz89oXX6Mxbn6WDr3qMDvxBPCTtjFuepd+MvOZKAQCqCiQbgJoByQZg8iGC/ZlFItK/zol1Pn5tZBuiDUC1qaVkAzCV6bxk76RbTtiTenqOoOuedrs0G66gT02bQTPn3k+vu10hb7/demy/5Wv0gZmH0qUPvx5N70as6duTps0ZoG274+k6SuUdvIimTeulG597O57uo2w+xJSNM2951shzXKpj8Ws64+ZnaXfD1/II3T73VDrh+FPo+CSupUd229fh1pXz6YS5d9EWt92Z+DUtOvFUuuqR3U36JsH9m+f6t2g97epoPzoRrRyLnM8ldPvWt4kPI5o+3rF15XXcH+57JG08Yu0Pr6NHd6Xtb13ZTyee0EcrtoylT7+mxSfNp9uet3Vsu72fTrp6Hb21y752qgYkG4Ca0Y2Z7NH7v0d7sUh/9Ir1FF6n1l/yjzSt5xN02fr4FSx/ESwXz/7kKG7zQzTvwfGQ7BFa2svSLN9raCrZJfM+v5xmszjPmtNLSxvI8/ZlR7Fgy/cpINmI4vhnM4vdPF59Yzcduvhx81hms9lhovW9/egSOuGEU2juiu0ZQdRiPdGSbdpfXEW59tHqB4b5tHJMAtnJkP70T2B/RIaX0CNvpe1byb6WHlb7Wo/Gki1RJSDZANSM7iwX2UCXfXRP6tnnClqnL1Kj99O8vVgQD7uBnnW7hOxFLwy52FUphmj+NJbmCwZp9+ACNzsdyycxRP06b29RXptv/ppBrvsoluzdkTxv29nwaf20erf0oTgfAnHQlXGp1iFSseP1XZm8VlDDWE+LTjiVBXsby2Es3UYq2Z18XW5wYrqrYdsSa68+jebdtq3gGKoQ5Y9F8i4+USSb80bTxzu4PyyjE9afbXfTeSeKZHe6fXtctz1v641Jto6JBpINQM3o1prsTTccQdN69qZ596WLQnbcfoaZ0T3plh32ovX7Ybr0hAPo/TLL+8ED6KQr19PLnCAXPzNjO3MB/fzuBfS5D3K6E/Ydq6+gk/b9kLk7zsyPHEuXrd5p6h4ZsDO8/YP+SriTBi/5Gn1KynLe9+/7tSSvMCjCesL1dOdVX6P9JM/Mv6MvX7XeLmEZHabz/npPev+3VnF/TPaULSPp9zeGFrJkL6ftRRffTN6LWLJjeUdoWe+eNGtgO71Nw7SA5XnZ87EKua7kbkSN8gFATSWbHc9EmE/25Vi7xMwYPhpNTNl2u5XslYtPNbPeZjnJovWZOtddrdLOvYu2KnMx5X3a8X20chtfC8jN/j4q4i65RugOsyTkGtMfW9rv82VPobm3bbftbv8Fy9mpyX7bH1tKhOrExevpUd9f7o/MwieYsiyWW7ltt8uUcbP1Np3Py9a7aV7Shu6XHO9p6lxcQ1fyhxUzk20y/JpFWvXb9y3ss5wL1wfTfnKOrrFLdaQqZt0PTwvS0n57suXTemnddXQSH8sju9Iypr7F62iXEdx4f/Lnl/O7c+jP7yOLfb+4T7u20+3z+Jy4/FfKB46kQelDWleSFuy39XD7sn+efs5kVjqtO+0Lvz7O4z74/fw8Py8SnZTx/2LgJXstS/Z6U9fcW7dmhNuk8/P/3Ft2Gc94A8kGoGZ07YuPL66gk2RZwwkr6GWzYyfdLGu1Z36PfvkaX7D+MEzz9+Ptfb9HS9c/SRvvW0xfnim3x9xucntpnnns1XTvUyO0Y8coG/ZddOpee9JHzx6g9U89RYO33kCL7rH3x8lK9ihL9D+x0B9A85atp02bN9CyuXa7/xEr/Uay+UPA5xbcauq6xaTvbcs3kmxNM8nWFEj24HzuR9+QE4iy8gzJBo1pJNkiByIfsTwxcfDyrIU4hpfkKx+1UiICNk+k0m0bwVZibfKzhEmbtqwVeZvKYnT7Bi7nZn+NZPM+WRNuythcGhHaeSudXAtOAHOC7sp74bwySQ8w5ZtJNsufknMj1Zn61TGtkw8rp7I8WsmWvIu4bVtU+naa6avdFgGfb9ZA25pd21xfItZS39y7bdvyWCTZp3H5devseU+Q/s5z+QWR1KR8A8k2+Z2Mqv4k5zf50GCP4QRXJjm/TpbD7WybUv8Ss+baVGXqbrAtZCTbCrb8aws7sWXdL+gOvuBu5XbPW5nuX/fD0+k88y8espVKtiRvv8POZJtjVv2T59POevebWW8pK+fWx3gByQagZnRNsuXn++f+FYvr1+jmf+ML0dM30OdYgj96sR2AXl4ps9qfoEvXmSudYf0V/0jTDrmBnuWLlpXmXlq6yV7BzMXsZZbsaSzZ3xygdb8f5X1y4bPh1yrPX8MXy5dX0Wmcr+f8QXdx5Hj9PvqO7PvmnfQSX0DXXCiSvYBW82OTvmmAZnP6rKXb0jLNoulyERWDLOThcpHcPlk2UmYZSNl8iKkaWqB3qiUh/FIzAlEk4ZIW1lV2GUg+33bzRcl5ZpnJepZlK2np+0v2LWGJ2UYrk3xpfTbSJRaPGIEVAYr3I1wuIv2xkqjyu1l5ESezpnfuKnpexM2n6zAzuPPpNrVEIlMmkp7Wz8ck0ixCmRxT4+Uitv9bXf/D5SJ2BljKps+R7HN5HhXJ7sv2pVmY/ktfucza64ykPyyPXfpaI9kyqyvnJ79cxJwLPr823dXJ9YiYPvzWrvz5VWmmjtj5S8It4/BpJm+wXETqm+fqD+tuECL7J1293s1QW8n2a7Izks0fGu48jz8IuQ8FJo2P5zmzBtzXl4q2j24CyQagZnRPspkNV9DHWHw/d/2ztO7yT7DUHkFLfmsvTtuX9fK2XcqRjYUsvnxBM9Lsv9yXxssPXZ5ZLnLVOvmiYyDZz8eE2a6l7pmzzEhtTrKjZZrEmCR7e/qFyFjIOu7CeiHZiMbhJfrzP9xoBOENN40n8lAk2BKpwKkwX3pkGRuLZG+9y8xqp//k74PFcOs6usoso2CZybVvxdQuAZC8WnCyEUq2bOekXIndlm5IdrKPjykn1HnJNn00SylszF1RJNmyrZaWqLjyYSfepm13jhetpV2x49J5TFxjxboNyc6m6/oLzm9TyZY2+HwkfVMfGkzeYslu9oFJ0k860dfLwedHH1fRmmyzza/p53dtN0tOvHDH2uD/THQTSDYANaPTku0vNDY20ZLDWGwPO4NOPYTFUX3h0a7PPoAuG9xJL7/sYweHlmaR7OxFUwYnE/+2nq6azXXPXECP8gVx21hnssddsmOBmWxEZ0KLtPzYDL/s6I9v7G4o2BJRyW77i4/NZrJ96HxhWiqmW26zS0rSf77PRrVmstdFZq21ZNuZ6XmJVPv+tzKTXRT5uk2EIm36X5GZ7Ny5dPLrt016ezPZa68+nU5kqX5TZqD5fBjh5n7b7Zhk6w8Oks7nfdE15rWdruXOotvj/zLRSSDZANSMTkp29uJiLzjPXi9fgLSzsyfdusPl5PTXN5g12TMPX0g3Dz5Jzz45RDdfeQaddf2T9DqXs9LMkr1ZXcD/MESXnnAOLblP8q+i+Ubgr6dn+MKZmcl++3WWaLcme+k6enbTelrq1mTPf/g1U1dDyX59yK3JtkKetB9GTLJl3zSpV/Xb7G9DsqVMrC5INqJJhLfw+8KPNma2Y2Fv4RevL72FX1aEH5V11iwsVl4aSbbIjs2r29i6bbv9K2W1QLNULVrp5TyVVTPze+4q2qLFzkUo2VbMtOiKfPo+lJDsjBTLtpVXaT+V7Ei6q9/31ddv2vNrklnuzIcOJZXSVvFMtisf9Nefv7e3baC12/yHD9uPUMhNeelbpj9OrKOSy/0PZnx1f5Lj9zPpyfHbMrn+NpLsRznNSKzOW34m2/dXzt9b7pjtfbW30UqZgX74rbSP8iXIgplsWb99EvdfBNy0wWHE+0T5FwOpIx3jYvgyNhrnbQdINgA1o1OSrS8o/iJj8F+A9F94VOlv/36IrvrmEfbuIj0fov2OX0A3PxmfyZZBbPcrT9LNF7q7gfTsTR8++nJa/W82LZnJXs0XSx7gdu9+mVZffLLLK3cXOZkuffBll7abVjvJfoivmmbfcwM0iyX7yKU8yL22znwAeP+Zd9KLPl3FNlnqIsfkPjyYmL2MtnJemzaHPxzYfjTKG9a7e/cgy3MvLc2UTevyfczU1aPSEQgXZ97yDItzqz9G84wRsFh9NtabZR3pUgP5Z3eWti3bjFhvcZL9vEibyb/NSTa/p1y9yZ08XPm5LKEyk2qkdDELWpLWRz9YsY7r4jZZ5K58hAXH1WHzWQGTcr5/sl9mgkWe/L7dW60IJv29SmZebf+kvyKBz4m4+fxhrL2WRdSX5zZX2BlNU8bUPZ+Pwfc5W785fpFOlzaXj+c2Ph/+WMxyiuR4f8R192X6L5Lu03/Agif7s2Xk/HE5FsTnH702OE6WyNxxicjr/qyiK0+4hsVV5DHenxP4+X3T1RPrT/78iqDa/H65SHJ+1y5hWb2GHn7TtufP323Py3b2XB1/1Sq67VyWepMmfdfpfbRC9vMHP5HspP5cX35ED8u5FoFP9nPZW/k55Q8bfiZ7kUj2c1JHbCabxxcW/PNPWhKdJef/TISE6bE87QDJBqBmdEKy9YXEX1w0YZoOOwOU35eGXAhd5NIQCEQsntr+x5Z/Vv3JbX+M1oUoiEQS7UxuNA+i+mHGFTXOqDQZj9bK3UhkhnxXui8fdozThGlhejtAsgGoGWOVbH0B8RcVTZgmoS9g4T4bRUK928xqZGIXAoGIxVPbXzUz2iLQcbm2S0RkBvvJba9G60A0iC1Wslc8Z2d1o3kQ1YtgDAnF2oQZf3bb5SOyxOXN7Cy2z6fHMP7PhCZMC9NbBZINQM0Yi2TrC4e/mGj0fonwopRc0OQiF2zHBFrSYvsRCAQCgWg5ZOyRcSW6X8m3GZ/S7XAc09v8Xwa930e7QLIBqBntSra+YPiLiEbvl4hdmDIXMX6sBVr2hUItawx1ZNKaRVAWgUAgEJMoYtd9FZnxIiir03LibbazY5X8Dcczvc3/ZdD7fbQDJBuAmtGOZOsLhb94aPR+CX0BSi5S7nFGpNVjffEzF0l1QZSQL9f4eOstSS+KbDkEAoFATOaIjQM2suNGEJGxx0QwRpkxzIxfWdnWj224AdGh9/toFUg2ADVjbJJtLxoavV9HkVybx+4C5i9sWqpTiU6333zTx1v58Hl0JPkRCAQCMWkjev2PjBMqvx9bvIQn28G4JJGMVw1kOxtuYHTo/WFaGSDZANSM9iXbXiw0er8OczHyF6UCuc7OVtvH9gLpLpLJYxtv8L4k3mgSOi8CgUAgJmfErv86VF49nqQybh/rcciEG5/8mOXHLz2uyd/Y+Mf/ZSjaXwZINgA1YyySrfH7wtAXoOSf3dxfffFKxNpc9FKpzlw49WOO0TfeTGM0DZ0nzYtAIBCIyRrR674aF/R4kckXjDGhdOvxKSPbajxrT7TdRgtAsgGoGa1ItlwUbNgLh0fv02EuPO5vckFSFykj1eYCViDW7q+XaPPYXTBfV5FcRFXodAQCgUBMrWg2Lvh9ybji5VuNP1q49XilxzETXrTdeBcbD/m/BL1P728GJBuAmtGuZHv0Pgl/gTEXHHfh8Rcgf2HSS0P8RUxf2LxUmxkK/usviObi+LrEG/QaR3LBNPvsfp+GQCAQiKkdfkxIxgg3ZqRpdluPM37cMdKthduNV37s0rPaepzTM9r+rw07Vnpi+5oByQagZrQu2faC4dH79IWlULDlQuX/yoVLZq7lIiYXNpFrf4FzFz1zIXR/zYXztTfoj6+NJo/tto/RwvB5EQgEAjH5InbdT8OOEUl+Hj9kv3+sx5lEtiXcuOTHKDMpxOOWHsckWhFtT2xfMyDZANSMspItFwIb6RXBb0voC4kWbPNPaYFg2xkBOzvgL14S/uLmZxcSkTYXxPSiaC6af7Txqgu/rfchEAgEYupGbFxI9unxxI0ziXS7cchP9uhxysxqS7ixTIu2CSXasfGR/0vw23pfIyDZANSM1iTbXiQ8ep8Pc3ExfxsINocRbI5kaYi7qEmYi50Ra3vx8xfI5EL56uv0Bw5/0fTbDeMPCAQCgZi0Ebvuq5Bxwo8ZeluPL8lkjhuD/Jjkx6hkCYmSbIlQtM1EkxsPwzGS/0uI7WsEJBuAmlFGsuUCYCN7JfAXCH0hSWax3Sd6c/Hhx/qC5GcEErnm8Be1VK6dQHOYC6L7K/HKH15zf+3jbPj9sQjzIhAIBKL+Ebve+8jn1eOIhB5nJPwYpMcl/y+tEn4M0+NaskbbTTCZCSd+HBsnNXafHWObAckGoGaUl+zsxUHv8xcPc1Hhv/6fy/ynev8pP1wiYv5JTuL1N91FTQT7jeRC5y98/sKo/+58xcYrLvz2zlf+aGLHTgQCgUBM1fBjQdFYERtXtGhL+DFJxiczq+3GLD+GmRltDj/G+THPjH8yDgbjox8z+b+E2L4iINkA1Iz2Jdtu6wtIZhZbyXVGsJ1ke7mWWQFfBwAAAFA1/Bhn/uXVybaX7FC0JbRs+3FRj5d6vPPbalchkGwAakY7kq239cVDQs9iJ8tEzDey7TpsvzzECzYAAABQF7Roy2Mr2W6cE8lWgu3HQwk9Xtqw9YXbjeiQZI/QsjkzqKenKBbSoMvZfYapn9vsH3KbBYwM9FJP37Db6gyDfXysHa6zMXyskfbMsfX00rItbgeYVLQi2R6/raPhLDaHfOr3X3L0ki35AQAAgLog45aWbH+LPyPYKvxYKPn12uw0XIVMuF1EV2ayjeTNWc7qPRFMIckeWhhtz0r2eH6wAeNJe5JtLxL+U7m5iJi/9qJiJNuI9m7zz2h+iYgRbSfZssZN1wkAAABUHRm3zBptJ9l+bEuXjdjxL5VsjmC8lL96/LPbbqMBkOwOMt6S3Y1jANWnmWTLG99GeEHIXjQkzLeqOfSneT2L7Wew7R1E3nC1AQAAAPVBxi9zxxE/o100m+3GRD9G6nFTwmO37VjbiHGVbC+FRkZlGUmQx6Sb5SU2cqIsM7fBDG1ebL1k27+2rvzSiSJBTfomETmGTHq0L8szS2dmDeQ/ajQ9TmHLcpql8oR9zfYjSJfzFDu3+txH6hRy9UpM2AcmEKNVyfaPdSSSrT69G8HWa7H9LHYi2aOmPgAAAKBOyPjlJdsuGfEz2XbMM4KtxkMt2dmw9fnHfruI8ZdslraYVNo0Ja1OMjN5W5BsnS9XN+OlU2PqUv3O5cm1z9Kq+mcFVQm9yZ8V/FLHmdvn1rwH/Y0dg6FIsnWdRedXl4vUAyaecpKdvvP9tg978bD/JJYItoRaKpKsxVaCLbdHAgAAAOqGvb1fKNr+S5AFS0bcjLYeP/m/hHA7xvhLdlTarERmhI/JCXROcoslO1tXfl9eUCVPOOMt+1R7EWnWNO9LueOMynPk2KP5hIgc58+97Yueac/lgWRXknYl218sjGTzX/9PYvqfypKlInIBEsnmgGQDAACoMxnJduObRGzJiIyLZnwMxs1QqsPtGBWR7JgYF0hftyQ7XJ6RRCDVOl8guM37Uu448/Uwpt3IrHiYT2hTsgWTzx9fgw8UYOJoJNnyhreRvvP9tr5YmIuIfGLnC4kWbL1UJBRsSDYAAIA64sewjGjrJSNuHJQw67LNbHY5ydb7QqbGTHYpQZVyrUhlXlKb96XaM9nmPEWfH1AliiTbv9ltpO96v51eLOzFw/+zmIQWbD+T/TpfiF5zv54lFyf5ZS0AAACgbvhfhjRfgOSQ8c3PZGvR1uOilWx7K79mkq33ayoi2S5NS6SbMW4sy1ZiY2Kbk9+YdAaCmpdkzrdFldoyTINJ23lhLiP85Y9T77Nt5foWOQZD2zPZrh05p0lgNrtqtC7Z/uJgI5TszHpsEWx/VxE/k+0EW37CFgAAAKgb/ifYZTzzM9l2NtstGeHxL78uO5VsHR67nY67MSoj2YIV0FTwMuLpyOZZSMtkOye2vdTfl82nZ4AFU09EUI0oJ+VYQrm/vuwIy2tmSUlQvoxkC2WO04t2UVsGnUef1zYlW/of9iX2wQNMLK1Itn/sw180MpLt/olMPsWHM9l+FlvilT9gJhsAAED9kPHLj2UyruVmst04aJaLBJItf/U4yv8Z/GMfMboi2aCOFM9sRz8EgAmjuWTbC0G6L704mIuG+ZuKdiLZBeuxMZMNAACgzuiZ7KJ12VqyE8F246YeR/k/g972+0Ig2UDhlt+ogGBXj3Yk218ktGRHv/SYzGKzZLu1a/LJ30o2ZrIBAADUDxm/ZByT8cyPbf5Wfna5iB0HE9E2E1FZyU5l29ZpH9ttvy8Ekg1AzSgj2R6/3VSy3Sx2dqmI/cT/qpvFbnUme2TgKJo2rZeWPl9w9ZEPddP2pJ6+ISrK0Rq2vmkXcn2dqbADDNMC6VNPo/PQCUZooDdtx7S05SaazW3PWra9pfMxOP9d/LwtoDX8WmlIm/UDAMB448cwGc/82Bb78mMrki34bb1PA8kGoGaMWbI5/C2KjGAbybYXGf+lR/mnNP2lR4mdr0xeyTZ9nbOctnemIylDF/E54GOUfxnqqvx7mZ9B8wf5uZZdkGwAADDI+OXHMv/lx3TJCIu2kWwOL9myLtuINiQbgClFa5KdvTj4C4aXbImYZBvRfs1Ktv/SIyS7dQbnc3/mDNDSPv4r4tpqx8YCJBsAAAwyfvkvPxrJluUibqwLJduPjcWSnV7w7LYde2NAsgGoGeMi2W5NtlyQkuUik1iyvQx3VLK3LE8l1D3u97PM4wEkGwAADDJ++eUifl22jHOQbABAhnYk20dMssN7ZPsvPuofoZGL07jMZA8t5DILaQ3vGJTZ3+RLuHZfBpM3/ZLu/MGhuGQ7wfX5enpkRtmlmTp0mq+Lz5fLEi8fdiZP9vhHaJmsmdYi75aSGEl1uxJyaelyENuH/Hk1HxT0bHmBBI8sl375ejiC85VK9nbbZ593tvRdZSySbO77dN6f1M/ltmUyAADA+GJnsu2SETOb7SRbxjsj2ebLj/Ze2UWSrcNjt+3YGwOSDUDNGJtk24uGl+zcD9HIBcdIdv72feMn2VbOEsFMJDcVbVs350vKOokNpdFLdLLPzXZr0Y4JsMO3o0XYymyj4xKcFKu+xM5HTowdmf3++JP++WNtUldEgm0e9SHCrxnnfvLLwmAlW56DOaZ+n8+Is8oXr9+WnT+4O3leBnpLzowDAECX0JIt45r+4qOEluzkB2kSyS73gzQxINkA1IyOSLa7iBRJtvnSY0ayx2lNtpNsWVaRwe23shspZ3ACrSU7hhNvEU1LkWRbUdaCbbH5Zw2E+xVOXjMz4hHxbpQv367CibfOU0ayYyTlnAQXLRexM+D2+TQpYf2yPV2WxHjB9vDxRPcDAMD4YCU7/eKjjG8yzjWUbA5INgBTjK5I9lv2HtkS5kuPTrLT5SIi2X90tZajo5Kt8zbJ01SynaCm5Qsk28/y+mUPYTRox4hrZGY8J8K+bTkut6v5eRPyIt6uZFt5XthUsv1sdjJLHdQv9WSWiQRx5LJtjZ8XAADoEjJ+ecm2y0WsZMt458c+GQch2QBMcTov2fY2fpNXsv3yiqz0NZ3Jjs4ylyC3hjsfus7secpLt8dKdLaetiTb7df1mHXmzSTblUtmpKOSzcfxXIvnCwAAukx5yeZw4yMkG4ApSNck2y0ZKZLsHTtbk+xiYXZEljx0WrKtwDqJ9NnLzmSrfGFLjWj84SLWlpqVjol9MqOu62xnJtv/YA2fD32OOjSTbdMh2QCA6iHjV0PJ5vEPkg0A6Kxku4uK/8XH0U5KthfjyLIJwd49JLhrSJFA6/1+pljPgBtCyS6YFS4r2U5kY8s+iimqKyUm4UaQuYy5n3ZQ1qfF+taSZCcz0fxasDkMZSU7tz9W/3TuA5//oCgAAEwojSRbxj17Cz8n2RyQbACmKOMl2f4+2X/gC5N8K7t1yWa8EAezsEa+e4plOpPf71Oi6W/vl0hm0k52ltaKZ1iXzZcuF8nmGxm4iJZt8fndLLJq28+Oa8FNiM1Eh7i+Zsqr/of1+vaSOgvyNpXszIcGm8eWcTP9zoytTPM+dcs+v+/IpC4mV78V9vAuJL5sescRAAAYX6xkv2bGMxnXZHyDZAMActRKsg1udlcEOIlgBtvjZ6yXDdAsJ5ImcrPWLG+R+2gbaczMXLvZbZ/PCLjdlxF8LelJvoI0DhHekS0jLoPHH6cS3Sg+n/7g0ahscP6MJNt9+g4nzSWbSZaepMdhl6gEM9nSxmD6gcTmDSQ5Vr9glo3o8zXHLCHJny8AABgfINkAgFLUT7JbQC8LAQAAADoAJBsAUApINgAAAFAeSDYAoBSQbAAAAKA8kGwAQCkmtWQDAAAAHQaSDQAoBSQbAAAAKA8kGwBQCkg2AAAAUB5INgCgFJBsAAAAoDyQbABAKSDZAAAAQHkg2QCAUkCyAQAAgPJAsgEApYBkAwAAAOWBZAMASgHJBgAAAMoDyQYAlAKSDQAAAJQHkg0AKAUkGwAAACgPJBsAUApINgAAAFCeSSDZI7Rszgzq6clH/5DLkmGY+iW9b9ht15Aty6l/YMRtpIwM9PJx99KyLW4HAB0Ekg0AAACUZ9JI9qycdBbI9BbeH81fH0SmY/23kr2QBt02AJ0Ekg0AAACUZxJLNrNlOc0qnNGuL4N99f6QAOoJJBsAAAAoz+SWbEaENDubbfPnxHtoYZOlJm5mPIi0XUnvpWVDVuxtenzphulTozyFfckvjckct5Sbs5xzZbEz3L5M0F7T4wbAAskGAAAAyjPpJdsIZkY8Y5ItgqyWWZgZ8Oyyi3D2OD+b7CRctWVkOpDe3D4juVp8bT26f4ND2SUv+bYdEcnOLyHh4x/w9TVvCwAPJBsAAAAoDyQ7ipuVTsQ330aRZGfqNQKtBTesVwjrtvUUHY9QXrIbn5sybQHggWQDAAAA5Zn0km1mjsssF3HCWbiswpVL0oMZ41KSbWbIw3qL+2jbys6oC+UlO9KnHI3bAsADyQYAAADKM7klO/rFx4hk5+RX5DQrwzIj3njGt4RkR+pt2H8mPxPfyZnsLLG2APDUQbKljwgEAoFAdDP0eNeISSzZVnrz98OOSHYop0aOAxl2wp7MZEs0mzXOSbabtW7Y1ggNDqW1GvENjqG8ZLvywWx6eo/t5m0B4JELSwz/Rs9fANLATDYAAICpxqSR7Iz8usjOYHsikh3W0bect8OZ7XApRSjV5SRbMKLt28rJPNeTOZ58eVuvS9dSHJFsIWyvf2DY5inTFgAOSDYAAABQnkkg2eNAbC212QcpBVMHSDYAAABQHkh2WfTsMWZ9wRQEkg0AAACUB5INACgFJBsAAAAoDyQbAFAKSDYAAABQHkg2AKAUkGwAAACgPJBsAEApINkAAABAeSDZAIBSQLIBAACA8kCyAQClgGQDAMpSMPYDMKWAZAMASlE7yd5+N809/hQ6fvGGCg34G+iqE06hq9aW69G2ldfS7dvdRqvw8S9aOVJp2dm2cj6dcEIfrdw2Mb1ce/WpdMK5d9FW9dotojDv9l/QvBNOpePlteZj8Xp+3bv0GGuXJMcdy7bt9vS8TMyZETbQIjmu5Fhkez7dXqJPa394Gp3Y4ByY4+N0viQAMKmBZAMASlE3yd62so+OP7ePRftaKum040Arkj1Ct8/tY8lur/MisPNqIdnX0qPqtTM+jNAdc1maRYibSnaTvCLM8kGu5CFYgRYZbybZE3FeFNtZqvm459623R1bC5J99WkNJRqSDaYKkGwAQCnqJdleZllUzz2F5rJsVoNWJFvysmSz1LSDzLzOXcmC5LaBR83Qrr2WTph7dwPJbp5XhHGenOcSJ9rMhvOHvkfflue2nLBWh1Ykm4+zhGTvqs/BA9AWkGwAQClqJdkiROfeTabH+rHDzHIv3kBrF7t/3jf/xB9ZVmKWnMhssttm7Ay5q4/T551wLa3dxvnM7KREduZ87WK1lGDxtXQV/00l20p3rg+mXrVf+uBlO0i76lE+xzbFITPg2eULqWyLKKX75Ti2Zgtzh+1Shqzc2zp9PWYGOqlfzbj68/Eon3PTjqvH1Onzqz7LfiOupjTjpNbXrfvn6n40qVsiP9sbnwW29Zp2t4+kr4Wk/WwdCSXyilCWk2yuK3kdNRHWsK2i86eJ5rHHnc5GW8w5MueWdxbWbWfw0+2wz8FztSiVai/Zj/JrX+o+IeiDtC/LSRLJDpbcXClt+jQAagwkGwBQijpJtshzOnvtZ4/dJmNEWYTC72OBk/XbuRlms7+ZZLMYKBk0Uu1k2cqokm4RftWO5E3btCKbFfBAdl17Os+igtnu/Ey25NXCbfNY2XI7DFmhNoiIuXz+mBKJVWnJ+ZCZ36SwlTEthmvXbnAPuGwi2TafkTGTGPQvV7ftp8hc2paQb8/PnGbzMUn7YUKEaF61lMRHrJ0c0seykt3g/CVIHnmduRxGWu1zlBFqg27blks/JKXlmkm2PDeL+HVo07J5zfMmr1Nf1kn0VY+yNPCml2yR8re3qTSTmds5scG5AaBGQLIBAKWojWQXibGaqc6IsoGFLbaspKguX9aIXyC5RqRFeEJpFrzw630pIt161jmUbCO4wYy77Iutvc5JtpvRzwh1rP+CSJ6Sr7Su9JjSErLPSlG8PpGzoC8eLdn6sUfXF6nbnI/wmJhULGUrlEVFVJwLKJXXSXdT0c4Ka45MW+78BbPRjdH12/LJ8Tc8Dl2usWSHyGvEz+gbyXYS7dH7/Icemcne6oR7l8os6WWX4ABQZSDZAIBS1EWy/Sx1PtIZ5a5KdrIvJtT5fZnlJByNJDvMm4SIt26GCSU7LqSBgCWo/ZljtPtjfcjn1Vg5t3mDWXAn1k37F6m7SLL18/K2tKFnazWlxNlRNm+j9hIaC2u+LSfv4fnLED436RcrveC+zR/8pB7zukiqKCrXXLJNvfKvC66s/yDQimSbL0lyHbKkxIepbxHWbIP6A8kGAJSiHpLtJdZtJmQlenxmsptJthVPLcLtzGQXEUp2SzPZjG9rKx9vevcM2+fsTLaiQX2ejBgnMhk89uj6InUXSjYjxy+zobIuuHBWtKw4C2XzSr6OS3ZKOkuv0sxyDHtu7N6gfr8MZJucQ9U3Vy69y4ku10iybdo8Nbvuz7ds5yU7m19Ltn28LjOTDcBkAZINAChFLSQ7EVy3rdByXFqyjehqUbb5spIdpLNM+KUpZuZZSaCRwuN9/lCibVuNJDsqsfrLeYqcZBtJ0vU7GVL9y+DamsvHq6U6JrbbuA+GWP/4nKxdm55XL+/m5ZIRa+kf97nhmuxs3Y0k29Ytt3C0ZWJZYjLrBVHtskTFl/t8tf5XBHUMsk/KRIVbC2uETFvB+XOCmqky7JtpV8uzm8E+l1/3umzDco0kO+w/b5+YHrd93tTtDrneE1V//DEYrxbRP3F+kmauGf41vf0efs7TNADqxkRJ9qpVv4rKtcQddzwAyQagalRfsq2k6rXXGVjS5MuNItLlJZsx4u7/SZyFbeW1gWRbEfX/ZJ5t30m3S5u7coNpx0u5l26bfi3XzXVxH3x5vTwkEXnTpi/DweJ0lSqTIP32+ZKZaJEjXVYEy+SOUiTh2X7zcZ3LfWcRikq2u99y0mbBchGL9E/l1W23KtlOEmPCbCRPnwfTlkihfb60IBbnlS8V/oIWBUt4Uin1ZZXsui8A6vx6WUeClt9G5y/BHavPs/guWsmvi1SCmYxAexqVayTZ4Xm5llbe1peZyZ63+Fp1x53IefGSLfB5Oe9EWTbCfZGQ1zQL+27u80ks71c+uiv3HAJQByZKsh955HFauTIu2cPDj0GyAagatfni43gSk0oAQNuYa4Z7DEDdmSjJ3rHjD3TnnfnZbJnFfvnlVyDZAFQNSHYESDYAAIACJkqyBRFtmdEWsZZ4+OHHjGALkGwAKgYkGwAAACjPREp2IyDZAFQMSDYAAABQHkg2AKAUkGwAAACgPJBsAEApINkAAABAeSDZAIBSQLIBAACA8kCyAQClgGQDAAAA5YFkAwBKAckGAAAAygPJBgCUApINAAAAlAeSDQAoBSQbAAAAKM8kkOwRWjZnBvX05KN/yGUpzTD19w27x+MNty39nrD2AWgMJBsAAAAoz6SR7FkDI257DAwtnDjJ3cKS3anjAKALQLIBAACA8kCyFSMDvZhJBqAASDYAAABQnqkh2VuW06yeII/MWqslJYN9wXKTQLaNgCfpC2nQ7fdI+VkDw5mlK7k+uX7E0+1x5Je4uGUkPuYs55xZSrXtjtdH60tpwFQHkg0AAACUZ+rMZBvB7aVlW2RDxNU/TimaybaCrcRahDWQXSvpqk4jtbqNfD9HhoZVHTHJtoKty5h2Wm7b1qPrHuS2AWgFSDYAAABQnkkj2XqWViIm3UaWWVCXmZnfgvScZMfkV/ZlJd2IbqZsKLaun4XLUSLtRGQ++2HB0rztvKwD0CqQbAAAAKA8U2cm2+BEN7LcQ4hLthXUUOIlMjPDTUXXYmedJbKiHJNs/6Ege2T5esu17Y9dIn78ADQCkg0AAACUZ0pJtp7Jjs0ol5/JzlNWshPMkg4tu5F2OjaTnSUu7wA0BpINAAAAlGfqSLaRUy+1cQmNS3ZcSke2ZNsrI7qZddA5gY7JvK1DH5tpJ+hL87ZHuG3VUsFxAtAISDYAAABQnkkj2XoZh49EMs2scSCwsX367h+hVIuY+jSOWXMWtrwuWtZxp3U0Xy5isfUk5SIz0E3bdvfgTtvGchHQOpNZsnft2uUetcMI3T73VDr++FMyMXfldip7/du2cj6dsHhD6fzdwvTj+GvpUfVcepI+lu3k9rtp0cqRCT8mAACYKCaBZAMAxoPJLNlnnXUePfRQ7hNuSaxkZ6SaBXPeCafQVWvLXQGrJdn8IWHxen7e3E5Hq5It+ee18EEDAAAmG5BsAEApJrNkn3CCnYm++OIr6be//Z3bW5aIZDNrF3OdJcW5UpK9+Fq6KjIT36pkr706f04AAGAqAckGAJRiKki2jxtuWEY7d77iUptRUrLd7LZvQ89y5yS7QV5ae62dbfZpj/I5dkkmTZdTaSK9Sblz76atqkpP0g9TTx/dvi3NlJfsDbRIn7ekzvzymfTcZMtkztnaJYV9BwCAOgLJBgCUYipJtsTJJ59Jq1bd43I0IiLZRoSVpOaWj2ygq5TEZiS7YV55fC0lSSav3xaBDcR67Qb7VwRbiXXRrLTebx6r9dnZMlaW9TGHbeRnssMy9rzZ/tq0WN8BAKCuQLIBAKWYapLt47rrbnS5isjP3B7PcqonnzMS7ZB9c90XA3V6s7xZRE5TARfJzoqtoPN4ZF+2j0LSttnvjsuJcyZNZp3D2XAj/Gk7OcmOlZF9pk4r2XNvC/sOAAD1BZINACjFVJPsBQuuoCef/K3L0YjsTLaR0UCyzdKRoH4TEbFullcE+Sq1rOJ4PWOeEX6ZheZdwdKTeDlLVrIFJ798bFtVmskXCrPL62ejQ8m25yXSj6Qe23ebJ36HEwAAqBOQbABAKaaKZJ9xxrn0wAOrXUoZspKdiG4ixVmJjqHTG+YNZovjs9SWVISzS1MakbStszpJn3tunz0mSevUTHYBad/dDgAAqCGQbABAKaaCZN900wp644033N6yhJIt2NnmZF9OjpntI+TPaEasG+WVtd5aPjNfUByhtWvTu+hrYTbrpQN53sZ1hkQlmzH75UNIcmu/dIbbZzVtqL7lJDuY6bbwcW23f4v6DgAAdQWSDQAoxWSW7Kuuuoa2bIkfX3Niks2YLz+KmGp5trPldplEH1210oplRrKFwrxultzvX3w33c5pRrK3s8TOVWX8chGHkeAkTWam726yJjuLFXV9/2wrzUl74cyzzFz7YwjkPClzfB/NvY3bM33X+7FcBABQfyDZAIBSTGbJBgAAADoNJBsAUApINgAAAFAeSDYAoBSQbAAAAKA8kGwAQCkg2QAAAEB5INkAgFJAsgEAAIDyQLIBAKWAZAMAAADlgWQDAEoByQYAAADKA8kGAJQCkg0AAACUB5INACgFJBsAAAAoDyQbAFAKSDYAAABQHkg2AKAUkGwAAACgPJBsAEApINkAAABAeSDZAIBSQLIBAACA8kCyAQClgGQDAAAA5YFkAwBKAckGAAAAygPJBgCUApINAAAAlGdSSPZvX3iN5t2xmQ5Z/Dgd+IPHEAhEg5D3ibxf5H3TCpBsAAAAoDy1l2wRBZGGFY+9SK+9udvtBQAUIe8Teb/I+6YV0YZkAwAAAOWpvWTLjJwIAwCgNeR9I++fskCyAQAAgPLUXrJlNg4z2AC0jrxv5P1TFkg2AAAAUJ7aS7asMQUAtEcr7x9INgAAAFAeSDYAUxhINgAAANAdINkATGGqKNl/fG3USvarItmvQ7IBAADUEivZr5vxTMY1Gd8g2QBMESZMsp1ov8khF5k3INkAAAAmGY0kW8Y9I9lOsGVchGQDMImohGTLhaaBZO98BZINAACgfsj41VCyOSDZAExSJlayd0OyAQAATFrKS7YdFyHZAEwiJlyy3VKRUb7gSHjJ/mNGslv7ZUoAAACgCsj45SVbxjUv2X7MM5LN4yAkG4BJyLhLNv9tJNmv5yT7NUg2AACAWmIl+7WMZMs411Cy3XgJyQag5oyfZNvwkm1EW0v2G16y3+SLkLuFHyQbAABAjdGSbZeLvGHGOSPZPO5pyfZjYyrZ2XFUwmO37djbDpBsAMaBbku2v0jEJFvWoRnJ5pCLjaxRk4uPv0/2q06yX4FkAwAAqCEyfsk4JuOZjGsyvsk4J+OdkWwe/2QclPGwSLL9XwmP3bZjbztAsgEYByon2RxyEZJ/VpMLEtZkAwAAqCt2JtvNYnvJdmMdJLuOPPG0OSfZeJqecMnts4PuvMHVt2K72wfqjjyfZWlNsu22vkhIeMn2t+8LJVu+EGK+/MgXI/nnNQlINgAAgDoi45cfy4xkuzEuJtkyLjaWbFcp47f1vlaAZLeLkeysVL/0q41jFm1TB+R60jGukm3+2guIuSeokez0x2gyX3zkSJaLcAAAAAB1w49hMp75sc1/8VHGPSvZ7j7ZItlGsDmC8dNLtcdv632tAMlul4hkE22nq/k8XT0Gy35ixWN0zq92uC0wWei0ZEuk+7IXiahke9FOJNsuF/HrsuXTv/xTGwAAAFA3/O37/Hpss1zEffHRfunRjoOtSLZ9bLf9vlaBZLdLU8mWxxvpzic20Tm8T86fl2874x0uMVHLRFx42Y7nF1ptQ8iXOVC2X3DJwgs6LSv98iEgqfeGTfSS29+oDOi+ZPvQki2P/ZIRI9puNnuULzh+yYj5xJ9INmayAQAA1A8Zv/xSERnX0qUikVlsHhfNWBlIdhq2Tr3t97UKJLtdIpJtBdTvs8KdEVEmt6RE6lF5wpnsxvnbaSNfxvTbbztZ1rPxL/1qk6krk48x7ZilLfYDQqbfT2zP9Gmq01nJtm/+dF96cUguHE6wM5LNkV8y4u4wwoGZbAAAAHXEf+lRwt6+L1gq4sZBL9kZ0W4o2X6ctftaBZLdLkayWTp1ZGTXymx26YiV0fy+dCY5K9nN8rfTRqSM+sBgxDlzHB4pF8x4m31SzraJteTFtPL+aUWyhezFISLZRrSz98qWT/jJbDZflDCTDQAAoK7omWw/i21nsv1ykbH92qPa3RKQ7HZRYhonJsB2X0bMXfh8Wclulr+dNiJl1LGY2eqYLAfLQdLIfkAI9wGLnJeytC7Zdtt/Gg8lWyJZkx3MZMu6Nf2jNAAAAEDdkPHLz2Lb9dj5Lz3KOKjHRS3ZfvyU8dTjt320AyS7XdqS7Ngsc5bmM9madtpoLNmtzWQX0PTcTD06IdlC+oZP3/F+O5VsG+ZCwhcQvVykaF22/2c2AAAAoG74MaxoPXZmuQiPi6lkp+Oml2qP39b7WgWS3S5tSXZcYl96IV3LnJXsZvnbaaOxZOfXZLO0r7B1xWa5fb1PPKH2S31RUZ+6dEqyBfumT9/1fltfLOTLHPbb028nFxYv2n4m28xmB6INAAAA1I2cYLswS0XUGCgh46IZH4Nx00u1J9xuB0h2u7Qp2YKRYE7zcc4NT2eWXGjJForzt9NGE8kWzLYqy5L9hOpfJo1l+gmuU9Z8p/uxXCREzktZ2pVsH0ayjWCn/yyWWZdtZrKdZMut/CDZAAAAakxGst2t+/SP0OTXY/tIx04brkIm3G4HSDYA40DnJdteANLt7IXCinZ2XbaZyZZ/NlNLRkLRBgAAAOpGXrDVUhEOGf/0eOjHyHDs5P8M/rHfbhdINgDjQDclW/AXCH/RSCRbZrM59D+VJUtG/F1GEsl+w9UGAAAA1AfzhUcn2XY9dnypiB8TtWT7vxIeu23H2rEAyQZgHOikZAv2zd9Ess3f9JN7uGTEfOvaz2ZzyEyArhMAAACoOjJuyfjl12L7sa3hUpFgvJS/evyz225jDECyARgHui/Z/qKQhl9vlki2+jSvZ7O9ZMsMgOQHAAAA6oKMW8kMtkTRLHYi2XZ8DMdM/i8h3G4XSDYA40C3JFsi3Pafyu2FJL3LiBFtDrnwZNZmK8mWxwAAAEBdMGOYkmy9FtuItpLrRktF+D9DuD0WINkAjAPdlmzBb+uLR8PZbFky4oM/9WvR9nUAAAAAVcOPcVqw/RIRK9myTKR4FtuPcf6vHu/8ttrVNpBsAMaB8ZHsdJ++gOh7ZoeyHa7PNqLtLlqyxk2+TOJ/EdKH/wn2V/6Q/bvzFRuvuPDbO1/5o4kdOxEIBAIxVcOPBUVjRWxc8b/k6MOPSWYNtpPrRLCdZGvB1nJtxsFgfPRjJv+XENvXLpBsAMaB7ki2vRho/MVBXzwys9n82Fx8+LFZNuLCX6BkVsDMDHDIN7V9WOHOirb/66Xb/vUXSB1+fyzCvAgEAoGof8Su9z7yefU4IqHHGQk/BulxScYpP2b5MUyPa/bL/u6OIk609VpsPU5q7D47xo4VSDYA40CnJVuwF4HsBULv82EuLOavvdBI+E/5+oLk/5nNfxnSyLbMFHBkZZv/+guf+/uqujDq7YYhF1YEAoFATM6IXfdVyDjhxwy9rccXP2udiLUbk/wYZb7k6MYuPZ75Mc6PeWayyY2H4RjJ/yXE9o0FSDYA40D3JNteFDx+W0JfTJLZ7Eai7S5UfkZAws8U+H+WMxc6vuhZ4XYXP/fXXBDdxTG5QAb7EAgEAjF1IzYuJPv0eOLGGT/eyPjj5Voe63HKCLaS7FCw/XLJolls/i/Bb+t9YwGSDcA40A3JFuzFwF4oPHqfv5D4C4wXbfM3EG3z11ys1PIRmdWWv3xR8xe315MLXnoRTGYa5IJotn3YC2csfF4EAoFATL6IXffTsGNEkp/HD9nvH+txRv76MciMR+4WfRL2LiJ2DXYo2Hq88+OfHhdtuIGTie0bK6Ul+5DFj9Nrb+52WwCAssj7Rt4/ZWldsu3FwaP3SegLS6Foa+F2tz1KZrX5b7KExAm3v+jZi2Aq3GY72Wf3JzKOQCAQiCkdfkxIxgg3ZqRpdluPM8lEj18a4sYlM3PN45Ufu5I12C0ItoQntm+slJbseXdsphWPvei2AABlkfeNvH/K0q5kS3j0Ph3mguP+ygXI/FOaujAZyXYXrOSf32RmW13Y5K+XbvPYXQj9xTK5MAah0xEIBAIxtaLZuOD3JeOKn7HWYu0mgcLZaz2OmfCC7ca72HjI/yXofXr/WCkt2b994TUzGyfCgBltAJoj7xN5v8j7Rt4/ZWlFsj32wpC9Mvh9YZgLj5/J9qLt/spFKp3VdtLt/jkuJ9z64ufCyLeP4KIZhv1nPwQCgUBMxohe99W4oMeLTL5gjNFiLY/1+KRnr/V4pse52DjI/2WI7esEpSVbEFGQGTmRBlljikAgikPeJ/J+aUWwhbFItoRG79ehL0DyVy5MRrrlAuUuWnoJSSLcEoF0+zAXRh/6ghkLnReBQCAQkzNi138dKq8eT7RUy2M9Dplw45Mfs/z4pcc1+Rsb//i/DEX7O0FLkg0A6D7tS3Z6sdDo/TqSC5F77GcB/MVKwl/EtHDbC152O704ykUxCJ9HR5IfgUAgEJM2otf/yDih8vuxRcaZzHYwLkkk45WXazOetSfYYVongGQDUDHGJtnpRUOj90voC5C5MEVk21+4/GN/oTOP1bYPfRG1El4U2XIIBAKBmMwRGwdsZMeNICJjj4lgjCqSa/3YhhsQHXq/j04DyQagYrQj2YK+UPiLh0bvlwgvQOZC5S9Y7rG+mMm+zMWNI3NB1BdBSWsWQVkEAoFATKKIXfdVZMaLoKxO8yKd3c6OVfI3HM/0Nv+XQe/30Q0g2QBUjHYlW9AXDH8R0ej9ErELU3LRCrZDwZaQtNh+BAKBQCBaDifM8f02zYQZn9LtcBzT2/xfBr3fR7eAZANQMcYi2YK+cPiLiSZMkyi6UKXBF7PcPrvfSLaO8OKIQCAQCERRBGNIRqZ9mPEnuz82Xul9/J8JTZgWpncaSDYAFWOski3oC4i/qGjCNB35C1V6AbPhL4IcuTQEAoFAIMYQZlxR44xKi41N4T4bdozThGlhejeAZANQMToh2YK+kPiLS0iYrqPooubDpzcPfbFEIBAIxNSO2DiRj9i4I9E43Y5pIWF6LE83gGQDUDE6JdmCvqDoC1GMNF82r48yFz8EAoFAIDoVzceddNyK0UrebgDJBqBidFKyBX1hsZFedIqI5S0KfRGMRawMAoFAIKZmxMYJHbEy+bBjVBGxvD7GE0g2ABWj05Idkl5s9EXIRgzZnY98WQQCgUAgOhv58SdGo7ITCSQbgIoxfpKtI3txKoMtF0a2HgQCgUAgmkd+PClDp+rpFpBsACpGtyVbE7sg2bAXLAAAAKBqNJJqiaoAyQagYoynZHtiFykb/kKWDwAAAKBbxMadNMKxykbVgGQDUDEmQrJDYhevNGIXPAQCgUAguhGxcchG1YFkA1AxqiDZmtiFDYFAIBCIiYg6AckGoGJUTbKF2IUOgUAgEIjxjLoByQagYlRRsgEAAADQGpBsACpGNyRb6kQgEAgEYiqHrPEeTyDZAFQMuRAAAAAAoN5AsgGoGJBsAAAAoP68Q0+jIxAIBAKBQCAQiLEHZrIBAAAAAADoMJBsAAAAAAAAOgwkGwAAAAAAgA4DyQYAAAAAAKDDQLIBAAAAAADoMFNGsl9+/if0syf66LonrqRVz7/g9gIAAAAAANB5poBkj9LGxz9OBz38PzNx/OMP05suBwAAAAAAAJ2ktpK946lhWjVwNS0auIsGn9rJKh3nzc1n0aGBYNv4S/rB5qJSY+eRRx6hz3/+8ybk8cQwTNdd/ZR7DAAAAAAAxov6SfbmFXTWQXtTT8+MTMw86Bxa9lRemjc+8ZcRwbZx6BMPu1yd495776VPfvKT9I53vIP+63/9r/Sf//N/No9ln6SNH5tocGgnbbrhBhp0ewAAAAAAwPhQXrJHd9KOxGFHaccO3laRJul8HWbzcvryTJHqT9C81aM0MtBL/UOskwPH0syZe3McS8s2u7yO8ZTsAw880Ai1j7/927+l97znPZl9//RP/+Ryd5kX76f+b51DZ31rId034vYBAAAAAIBxobRki9DOGhBb20mrvpmfSe7Z92p6MpOv02yi6w7jdv7mANrvb46gUy+5guYd+wn63DevoMsuOYM+t8+hdPDfcPphN3DOlPFaLrJ582Yj0QcccAC9973vpTvvvJM2btxo4vvf/z7ttdde9IlPfMLkeeaZZ1ypbrCTnvz5FbTonvQ5GLnrCur/+VO0w20DAAAAAIDuUl6yf34sffTY79Gq3w1Tf8/CYAmC27djmBax+H75512Q7A1X0Ed7jqBFA1fQSVdtMLPnT17bS/PusjPpq+Zy2l030KyeT9BlG1wZw/h88fEnP/lJMlu9fv16uv7662n27Nl0xBFH0I033kirVq1K0iWt84zQLcdGPvwEMfPYFZwTAAAAAAB0kxbWZO+kTUP305MvNpDs0RFaP7SpKzOmMkPe0/M1WnT11+jg81fQffffT7ecfyiddPX96vHVdBKLZGwmvdu38DvhhBOMQP/FX/wFnXvuufSd73yHnn76adq2bRt9+9vfpnnz5tF/+2//zeQ57rjjXKlOIs8BS/Th59BZh+8d+fs9mmckPHzuAAAAAABAp2nji48ic3a5xmVJnEGf67K8NZds7tO1xZLdbT7wgQ8YgZ4zZw7dz/2566676Ec/+hEtWbLEfOFR9n3qU58yed73vve5Up3ESrYcu1+y4//u+N1TNOJXxrxYfCcWAAAAAADQGdqQ7J30JAujiG02urzmVy0XmbVgOLdc5L7ze+m6e2LLRcYHuYuIiLasu37ooYfov/yX/0KPPvqouX2fpIl0/+M//iP95V/+Jf33//7fXalOEpfsU2/fSfTWKI1uXs7n5lBa9BQ/hmUDAAAAAHSV1iT70avp4EMObRiLHnV5O06DLz72fY0O3vcI+lzki4/jxQ9+8AMzSy1x0EEH0bp162ju3Ll03nnn0eDgIH3kIx9J0i+//HJXqpPEloucQav4k8/g+bJMZG/68EEH0Ps5T8+RyyfkHAEAAAAATBVak+y38rfuC2P0LZe3GyS38NubzronuIWfyGPkFn7jiay1Fon+kz/5EzrnnHPozDPPpK9//etmfbYX7GOOOcbl7jQjdMsJH+JzI+fHh1vCc//3qOdw++Hjvrkz6HM3QLEBAAAAALpJG8tFJpgWf4xmPNm1axd97GMfo//0n/4TTZs2LRHr//E//gf9u3/370ya5BlvMJMNAAAAADC+1E+yHWV/Vn28eemll8wPzuyzzz6ZkH2SNiGMYk02AAAAAMB4UlvJBgAAAAAAoKpAsgEAAAAAAOgwkGwAAAAAAAA6DCQbAAAAAACADgPJBgAAAAAAoKMQ/f8BNoK8WnGRIwMAAAAASUVORK5CYII=;" parent="1" vertex="1">
                    <mxGeometry x="80" y="200" width="729" height="478" as="geometry"/>
                </mxCell>
                <mxCell id="akbJC93lG2wCa56Pdzzp-2" value="" style="rounded=1;whiteSpace=wrap;html=1;strokeColor=#FF0080;fillColor=none;strokeWidth=2;arcSize=5;" parent="1" vertex="1">
                    <mxGeometry x="90" y="593" width="209" height="40" as="geometry"/>
                </mxCell>
            </root>
        </mxGraphModel>
    </diagram>
    <diagram id="ES0J0d-cCyro6lN4Vq2_" name="overview-wsl">
        <mxGraphModel dx="645" dy="1679" grid="1" gridSize="10" guides="1" tooltips="1" connect="1" arrows="1" fold="1" page="1" pageScale="1" pageWidth="827" pageHeight="1169" background="#ffffff" math="0" shadow="0">
            <root>
                <mxCell id="0"/>
                <mxCell id="1" parent="0"/>
                <mxCell id="VQOo7DmZkrZ01KClmoA2-1" value="" style="rounded=1;whiteSpace=wrap;html=1;sketch=1;fontFamily=Comic Sans MS;fontSize=14;fillColor=default;strokeColor=#006600;arcSize=2;" parent="1" vertex="1">
                    <mxGeometry x="216" y="-30" width="624" height="460" as="geometry"/>
                </mxCell>
                <mxCell id="VQOo7DmZkrZ01KClmoA2-2" value="" style="rounded=1;whiteSpace=wrap;html=1;sketch=1;fontFamily=Comic Sans MS;fontSize=14;fillColor=#006600;strokeColor=#006600;arcSize=19;fillStyle=solid;" parent="1" vertex="1">
                    <mxGeometry x="217" y="-29" width="32" height="32" as="geometry"/>
                </mxCell>
                <mxCell id="VQOo7DmZkrZ01KClmoA2-3" value="&lt;div style=&quot;&quot;&gt;&lt;b style=&quot;color: rgb(0, 102, 0); font-family: &amp;quot;Comic Sans MS&amp;quot;; background-color: initial;&quot;&gt;Windows&lt;/b&gt;&lt;/div&gt;" style="text;html=1;strokeColor=none;fillColor=none;align=left;verticalAlign=middle;whiteSpace=wrap;rounded=0;" parent="1" vertex="1">
                    <mxGeometry x="251" y="-27" width="59" height="30" as="geometry"/>
                </mxCell>
                <mxCell id="VQOo7DmZkrZ01KClmoA2-5" value="" style="shape=image;verticalLabelPosition=bottom;verticalAlign=top;imageAspect=0;aspect=fixed;image=data:image/svg+xml,PHN2ZyB4bWxucz0iaHR0cDovL3d3dy53My5vcmcvMjAwMC9zdmciIHdpZHRoPSIyNCIgdmlld0JveD0iMCAtOTYwIDk2MCA5NjAiIGhlaWdodD0iMjQiPjxwYXRoIGQ9Ik0xMjAtNTIwdi0zMjBoMzIwdjMyMEgxMjBabTAgNDAwdi0zMjBoMzIwdjMyMEgxMjBabTQwMC00MDB2LTMyMGgzMjB2MzIwSDUyMFptMCA0MDB2LTMyMGgzMjB2MzIwSDUyMFoiIGZpbGw9InJnYigyNTUsMjU1LDI1NSkiLz48L3N2Zz4=" parent="1" vertex="1">
                    <mxGeometry x="221" y="-25" width="24" height="24" as="geometry"/>
                </mxCell>
                <mxCell id="VQOo7DmZkrZ01KClmoA2-14" value="&lt;b&gt;&lt;br&gt;&lt;/b&gt;" style="rounded=1;whiteSpace=wrap;html=1;fontFamily=Comic Sans MS;fontSize=14;arcSize=0;sketch=1;curveFitting=1;jiggle=2;strokeColor=#006600;dashed=1;dashPattern=12 12;" parent="1" vertex="1">
                    <mxGeometry x="238" y="24" width="582" height="386" as="geometry"/>
                </mxCell>
                <mxCell id="VQOo7DmZkrZ01KClmoA2-15" value="" style="rounded=1;whiteSpace=wrap;html=1;sketch=1;fontFamily=Comic Sans MS;fontSize=14;fillColor=#006600;strokeColor=#006600;arcSize=0;fillStyle=auto;" parent="1" vertex="1">
                    <mxGeometry x="238" y="24" width="32" height="32" as="geometry"/>
                </mxCell>
                <mxCell id="VQOo7DmZkrZ01KClmoA2-16" value="&lt;div style=&quot;&quot;&gt;&lt;b style=&quot;color: rgb(0, 102, 0); font-family: &amp;quot;Comic Sans MS&amp;quot;; background-color: initial;&quot;&gt;Hyper-V&lt;/b&gt;&lt;/div&gt;" style="text;html=1;strokeColor=none;fillColor=none;align=left;verticalAlign=middle;whiteSpace=wrap;rounded=0;" parent="1" vertex="1">
                    <mxGeometry x="272" y="26" width="59" height="30" as="geometry"/>
                </mxCell>
                <mxCell id="VQOo7DmZkrZ01KClmoA2-17" value="&lt;b&gt;vSwitch&lt;/b&gt;" style="rounded=1;whiteSpace=wrap;html=1;fontFamily=Comic Sans MS;fontSize=14;arcSize=50;sketch=1;curveFitting=1;jiggle=2;" parent="1" vertex="1">
                    <mxGeometry x="397.5" y="44" width="223" height="30" as="geometry"/>
                </mxCell>
                <mxCell id="VQOo7DmZkrZ01KClmoA2-21" value="&lt;b&gt;&lt;font style=&quot;font-size: 14px;&quot; color=&quot;#000000&quot;&gt;veth&lt;/font&gt;&lt;/b&gt;" style="rounded=1;whiteSpace=wrap;html=1;sketch=1;fillStyle=auto;strokeColor=#000000;fontFamily=Comic Sans MS;fontColor=#006600;fillColor=default;arcSize=17;container=0;" parent="1" vertex="1">
                    <mxGeometry x="314" y="87" width="86" height="30" as="geometry"/>
                </mxCell>
                <mxCell id="VQOo7DmZkrZ01KClmoA2-22" value="&lt;b&gt;&lt;font style=&quot;font-size: 14px;&quot; color=&quot;#000000&quot;&gt;veth&lt;/font&gt;&lt;/b&gt;" style="rounded=1;whiteSpace=wrap;html=1;sketch=1;fillStyle=auto;strokeColor=#000000;fontFamily=Comic Sans MS;fontColor=#006600;fillColor=default;arcSize=17;container=0;" parent="1" vertex="1">
                    <mxGeometry x="620.5" y="87" width="86" height="30" as="geometry"/>
                </mxCell>
                <mxCell id="VQOo7DmZkrZ01KClmoA2-23" value="" style="shape=image;verticalLabelPosition=bottom;verticalAlign=top;imageAspect=0;aspect=fixed;image=data:image/svg+xml,PHN2ZyB4bWxucz0iaHR0cDovL3d3dy53My5vcmcvMjAwMC9zdmciIHdpZHRoPSIyNCIgdmlld0JveD0iMCAtOTYwIDk2MCA5NjAiIGhlaWdodD0iMjQiPjxwYXRoIGQ9Ik0xMjAtODB2LTI4MGgxMjB2LTE2MGgyMDB2LTgwSDMyMHYtMjgwaDMyMHYyODBINTIwdjgwaDIwMHYxNjBoMTIwdjI4MEg1MjB2LTI4MGgxMjB2LTgwSDMyMHY4MGgxMjB2MjgwSDEyMFoiLz48L3N2Zz4=" parent="1" vertex="1">
                    <mxGeometry x="319.5" y="90" width="24" height="24" as="geometry"/>
                </mxCell>
                <mxCell id="VQOo7DmZkrZ01KClmoA2-24" value="" style="shape=image;verticalLabelPosition=bottom;verticalAlign=top;imageAspect=0;aspect=fixed;image=data:image/svg+xml,PHN2ZyB4bWxucz0iaHR0cDovL3d3dy53My5vcmcvMjAwMC9zdmciIHdpZHRoPSIyNCIgdmlld0JveD0iMCAtOTYwIDk2MCA5NjAiIGhlaWdodD0iMjQiPjxwYXRoIGQ9Ik0xMjAtODB2LTI4MGgxMjB2LTE2MGgyMDB2LTgwSDMyMHYtMjgwaDMyMHYyODBINTIwdjgwaDIwMHYxNjBoMTIwdjI4MEg1MjB2LTI4MGgxMjB2LTgwSDMyMHY4MGgxMjB2MjgwSDEyMFoiLz48L3N2Zz4=" parent="1" vertex="1">
                    <mxGeometry x="625" y="90" width="24" height="24" as="geometry"/>
                </mxCell>
                <mxCell id="VQOo7DmZkrZ01KClmoA2-25" value="" style="endArrow=none;html=1;fontFamily=Comic Sans MS;fontSize=14;exitX=0.5;exitY=1;exitDx=0;exitDy=0;entryX=1;entryY=0.5;entryDx=0;entryDy=0;" parent="1" edge="1">
                    <mxGeometry width="50" height="50" relative="1" as="geometry">
                        <mxPoint x="450" y="73" as="sourcePoint"/>
                        <mxPoint x="401" y="101" as="targetPoint"/>
                        <Array as="points">
                            <mxPoint x="450" y="101"/>
                        </Array>
                    </mxGeometry>
                </mxCell>
                <mxCell id="VQOo7DmZkrZ01KClmoA2-27" value="" style="endArrow=none;html=1;fontFamily=Comic Sans MS;fontSize=14;exitX=0.75;exitY=1;exitDx=0;exitDy=0;entryX=0;entryY=0.5;entryDx=0;entryDy=0;" parent="1" source="VQOo7DmZkrZ01KClmoA2-17" target="VQOo7DmZkrZ01KClmoA2-22" edge="1">
                    <mxGeometry width="50" height="50" relative="1" as="geometry">
                        <mxPoint x="516" y="428" as="sourcePoint"/>
                        <mxPoint x="516" y="513" as="targetPoint"/>
                        <Array as="points">
                            <mxPoint x="565" y="102"/>
                        </Array>
                    </mxGeometry>
                </mxCell>
                <mxCell id="VQOo7DmZkrZ01KClmoA2-29" value="" style="group" parent="1" vertex="1" connectable="0">
                    <mxGeometry x="644" y="-76" width="77.75" height="30" as="geometry"/>
                </mxCell>
                <mxCell id="VQOo7DmZkrZ01KClmoA2-30" value="&lt;div style=&quot;&quot;&gt;&lt;b style=&quot;font-family: &amp;quot;Comic Sans MS&amp;quot;; background-color: initial;&quot;&gt;&lt;font style=&quot;font-size: 14px;&quot;&gt;internet&lt;/font&gt;&lt;/b&gt;&lt;/div&gt;" style="text;html=1;strokeColor=none;fillColor=none;align=center;verticalAlign=middle;whiteSpace=wrap;rounded=0;" parent="VQOo7DmZkrZ01KClmoA2-29" vertex="1">
                    <mxGeometry x="20.75" width="59" height="30" as="geometry"/>
                </mxCell>
                <mxCell id="VQOo7DmZkrZ01KClmoA2-31" value="" style="shape=image;verticalLabelPosition=bottom;verticalAlign=top;imageAspect=0;aspect=fixed;image=data:image/svg+xml,PHN2ZyB4bWxucz0iaHR0cDovL3d3dy53My5vcmcvMjAwMC9zdmciIHdpZHRoPSIyNCIgdmlld0JveD0iMCAtOTYwIDk2MCA5NjAiIGhlaWdodD0iMjQiPjxwYXRoIGQ9Ik00ODAtODBxLTgyIDAtMTU1LTMxLjV0LTEyNy41LTg2UTE0My0yNTIgMTExLjUtMzI1VDgwLTQ4MHEwLTgzIDMxLjUtMTU1LjV0ODYtMTI3UTI1Mi04MTcgMzI1LTg0OC41VDQ4MC04ODBxODMgMCAxNTUuNSAzMS41dDEyNyA4NnE1NC41IDU0LjUgODYgMTI3VDg4MC00ODBxMCA4Mi0zMS41IDE1NXQtODYgMTI3LjVxLTU0LjUgNTQuNS0xMjcgODZUNDgwLTgwWm0wLTgycTI2LTM2IDQ1LTc1dDMxLTgzSDQwNHExMiA0NCAzMSA4M3Q0NSA3NVptLTEwNC0xNnEtMTgtMzMtMzEuNS02OC41VDMyMi0zMjBIMjA0cTI5IDUwIDcyLjUgODd0OTkuNSA1NVptMjA4IDBxNTYtMTggOTkuNS01NXQ3Mi41LTg3SDYzOHEtOSAzOC0yMi41IDczLjVUNTg0LTE3OFpNMTcwLTQwMGgxMzZxLTMtMjAtNC41LTM5LjVUMzAwLTQ4MHEwLTIxIDEuNS00MC41VDMwNi01NjBIMTcwcS01IDIwLTcuNSAzOS41VDE2MC00ODBxMCAyMSAyLjUgNDAuNVQxNzAtNDAwWm0yMTYgMGgxODhxMy0yMCA0LjUtMzkuNVQ1ODAtNDgwcTAtMjEtMS41LTQwLjVUNTc0LTU2MEgzODZxLTMgMjAtNC41IDM5LjVUMzgwLTQ4MHEwIDIxIDEuNSA0MC41VDM4Ni00MDBabTI2OCAwaDEzNnE1LTIwIDcuNS0zOS41VDgwMC00ODBxMC0yMS0yLjUtNDAuNVQ3OTAtNTYwSDY1NHEzIDIwIDQuNSAzOS41VDY2MC00ODBxMCAyMS0xLjUgNDAuNVQ2NTQtNDAwWm0tMTYtMjQwaDExOHEtMjktNTAtNzIuNS04N1Q1ODQtNzgycTE4IDMzIDMxLjUgNjguNVQ2MzgtNjQwWm0tMjM0IDBoMTUycS0xMi00NC0zMS04M3QtNDUtNzVxLTI2IDM2LTQ1IDc1dC0zMSA4M1ptLTIwMCAwaDExOHE5LTM4IDIyLjUtNzMuNVQzNzYtNzgycS01NiAxOC05OS41IDU1VDIwNC02NDBaIi8+PC9zdmc+" parent="VQOo7DmZkrZ01KClmoA2-29" vertex="1">
                    <mxGeometry y="3" width="24" height="24" as="geometry"/>
                </mxCell>
                <mxCell id="VQOo7DmZkrZ01KClmoA2-35" value="" style="group" parent="1" vertex="1" connectable="0">
                    <mxGeometry x="509.63" y="-76" width="111.25" height="30" as="geometry"/>
                </mxCell>
                <mxCell id="VQOo7DmZkrZ01KClmoA2-36" value="&lt;b&gt;&lt;font style=&quot;font-size: 14px;&quot; color=&quot;#000000&quot;&gt;phy eth&lt;/font&gt;&lt;/b&gt;" style="rounded=1;whiteSpace=wrap;html=1;sketch=1;fillStyle=auto;strokeColor=#000000;fontFamily=Comic Sans MS;fontColor=#006600;fillColor=default;arcSize=17;container=0;" parent="VQOo7DmZkrZ01KClmoA2-35" vertex="1">
                    <mxGeometry width="111.25" height="30" as="geometry"/>
                </mxCell>
                <mxCell id="VQOo7DmZkrZ01KClmoA2-37" value="" style="shape=image;verticalLabelPosition=bottom;verticalAlign=top;imageAspect=0;aspect=fixed;image=data:image/svg+xml,PHN2ZyB4bWxucz0iaHR0cDovL3d3dy53My5vcmcvMjAwMC9zdmciIHdpZHRoPSIyNCIgdmlld0JveD0iMCAtOTYwIDk2MCA5NjAiIGhlaWdodD0iMjQiPjxwYXRoIGQ9Ik0xMjAtODB2LTI4MGgxMjB2LTE2MGgyMDB2LTgwSDMyMHYtMjgwaDMyMHYyODBINTIwdjgwaDIwMHYxNjBoMTIwdjI4MEg1MjB2LTI4MGgxMjB2LTgwSDMyMHY4MGgxMjB2MjgwSDEyMFoiLz48L3N2Zz4=" parent="VQOo7DmZkrZ01KClmoA2-35" vertex="1">
                    <mxGeometry x="5.25" y="3" width="24" height="24" as="geometry"/>
                </mxCell>
                <mxCell id="VQOo7DmZkrZ01KClmoA2-44" value="" style="endArrow=none;html=1;fontFamily=Comic Sans MS;fontSize=14;exitX=0;exitY=0.5;exitDx=0;exitDy=0;entryX=1;entryY=0.5;entryDx=0;entryDy=0;startArrow=classic;startFill=1;" parent="1" source="VQOo7DmZkrZ01KClmoA2-31" target="VQOo7DmZkrZ01KClmoA2-36" edge="1">
                    <mxGeometry width="50" height="50" relative="1" as="geometry">
                        <mxPoint x="575" y="-36" as="sourcePoint"/>
                        <mxPoint x="575" y="33" as="targetPoint"/>
                    </mxGeometry>
                </mxCell>
                <mxCell id="VQOo7DmZkrZ01KClmoA2-91" value="" style="group" parent="1" vertex="1" connectable="0">
                    <mxGeometry x="239" y="24" width="32" height="32" as="geometry"/>
                </mxCell>
                <mxCell id="VQOo7DmZkrZ01KClmoA2-92" value="" style="shape=image;verticalLabelPosition=bottom;verticalAlign=top;imageAspect=0;aspect=fixed;image=data:image/svg+xml,PHN2ZyB4bWxucz0iaHR0cDovL3d3dy53My5vcmcvMjAwMC9zdmciIHdpZHRoPSIyNCIgdmlld0JveD0iMCAtOTYwIDk2MCA5NjAiIGhlaWdodD0iMjQiPjxwYXRoIGQ9Ik0yNjAtMTYwcS05MSAwLTE1NS41LTYzVDQwLTM3N3EwLTc4IDQ3LTEzOXQxMjMtNzhxMjUtOTIgMTAwLTE0OXQxNzAtNTdxMTE3IDAgMTk4LjUgODEuNVQ3NjAtNTIwcTY5IDggMTE0LjUgNTkuNVQ5MjAtMzQwcTAgNzUtNTIuNSAxMjcuNVQ3NDAtMTYwSDI2MFptMC04MGg0ODBxNDIgMCA3MS0yOXQyOS03MXEwLTQyLTI5LTcxdC03MS0yOWgtNjB2LTgwcTAtODMtNTguNS0xNDEuNVQ0ODAtNzIwcS04MyAwLTE0MS41IDU4LjVUMjgwLTUyMGgtMjBxLTU4IDAtOTkgNDF0LTQxIDk5cTAgNTggNDEgOTl0OTkgNDFabTIyMC0yNDBaIi8+PC9zdmc+" parent="VQOo7DmZkrZ01KClmoA2-91" vertex="1">
                    <mxGeometry x="-1" width="32" height="32" as="geometry"/>
                </mxCell>
                <mxCell id="VQOo7DmZkrZ01KClmoA2-93" value="" style="shape=image;verticalLabelPosition=bottom;verticalAlign=top;imageAspect=0;aspect=fixed;image=data:image/svg+xml,PHN2ZyB4bWxucz0iaHR0cDovL3d3dy53My5vcmcvMjAwMC9zdmciIHdpZHRoPSIyNCIgdmlld0JveD0iMCAtOTYwIDk2MCA5NjAiIGhlaWdodD0iMjQiPjxwYXRoIGQ9Ik0xMjAtNTIwdi0zMjBoMzIwdjMyMEgxMjBabTAgNDAwdi0zMjBoMzIwdjMyMEgxMjBabTQwMC00MDB2LTMyMGgzMjB2MzIwSDUyMFptMCA0MDB2LTMyMGgzMjB2MzIwSDUyMFoiLz48L3N2Zz4=" parent="VQOo7DmZkrZ01KClmoA2-91" vertex="1">
                    <mxGeometry x="8" y="11" width="14" height="14" as="geometry"/>
                </mxCell>
                <mxCell id="VQOo7DmZkrZ01KClmoA2-6" value="" style="rounded=1;whiteSpace=wrap;html=1;sketch=1;fontFamily=Comic Sans MS;fontSize=14;fillColor=default;strokeColor=#7F00FF;arcSize=2;" parent="1" vertex="1">
                    <mxGeometry x="257.75" y="142" width="540" height="248" as="geometry"/>
                </mxCell>
                <mxCell id="VQOo7DmZkrZ01KClmoA2-7" value="" style="rounded=1;whiteSpace=wrap;html=1;sketch=1;fontFamily=Comic Sans MS;fontSize=14;fillColor=#7F00FF;strokeColor=#7F00FF;arcSize=19;fillStyle=solid;" parent="1" vertex="1">
                    <mxGeometry x="257.75" y="142" width="32" height="32" as="geometry"/>
                </mxCell>
                <mxCell id="VQOo7DmZkrZ01KClmoA2-8" value="&lt;font color=&quot;#7f00ff&quot; face=&quot;Comic Sans MS&quot;&gt;&lt;b style=&quot;&quot;&gt;WSL&lt;/b&gt;&lt;/font&gt;" style="text;html=1;strokeColor=none;fillColor=none;align=center;verticalAlign=middle;whiteSpace=wrap;rounded=0;" parent="1" vertex="1">
                    <mxGeometry x="289.75" y="143" width="30" height="30" as="geometry"/>
                </mxCell>
                <mxCell id="VQOo7DmZkrZ01KClmoA2-94" value="" style="shape=image;verticalLabelPosition=bottom;labelBackgroundColor=default;verticalAlign=top;aspect=fixed;imageAspect=0;image=data:image/svg+xml,PHN2ZyB4bWxucz0iaHR0cDovL3d3dy53My5vcmcvMjAwMC9zdmciIHByZXNlcnZlQXNwZWN0UmF0aW89InhNaWRZTWlkIG1lZXQiIHZpZXdCb3g9IjQ4LjE1MTI3MTgyMDA2ODM2IDEuNDIzMzU4NTU5NjA4NDU5NSAyODQuMDM4MTE2NDU1MDc4MSAzNzcuNTc2NjI5NjM4NjcxOSIgaGVpZ2h0PSIzNzcuNTc2NjI5NjM4NjcxOSIgd2lkdGg9IjI4NC4wMzgxMTY0NTUwNzgxIiB2ZXJzaW9uPSIxLjAiPgoKPGcgc3Ryb2tlPSJub25lIiBmaWxsPSIjRkZGRkZGIiB0cmFuc2Zvcm09InRyYW5zbGF0ZSgwLjAwMDAwMCwzODAuMDAwMDAwKSBzY2FsZSgwLjEwMDAwMCwtMC4xMDAwMDApIj4KPHBhdGggZD0iTTE2OTMgMzc4MCBjLTcwIC0xMCAtMjg1IC02NSAtMzExIC04MCAtOSAtNiAtNTIgLTI1IC05NCAtNDQgLTM4OCYjMTA7LTE3MyAtNjk5IC01NzMgLTc4NSAtMTAxMSAtMTYgLTgyIC0xOCAtMTkyIC0yMCAtMTMwNSAtMyAtMTE3MiAtMyAtMTIxNiAxNSYjMTA7LTEyNTAgMTEgLTE5IDM3IC00NSA1OCAtNTcgbDM5IC0yMyAxMjk3IDAgYzg5NSAwIDEzMDUgMyAxMzI1IDExIDM4IDE0IDcyIDQ3JiMxMDs4OSA4OCAyMiA1MyAyMSAyMjc4IC0yIDI0NDEgLTIxIDE1OSAtNjUgMzA0IC0xMzMgNDQ1IC0xMzIgMjczIC0zNDYgNDk0IC02MTMmIzEwOzYzNSAtMTE5IDYyIC0yMDEgOTMgLTMzNiAxMjYgLTkxIDIyIC0xMzUgMjcgLTI4NyAyOSAtOTkgMiAtMjA4IDAgLTI0MiAtNXomIzEwO20tMjc4IC04MTEgYzEzOSAtMzcgMjYxIC0xMzUgMzIxIC0yNTkgNTAgLTEwMiA1NiAtMTU1IDU0IC00MjkgLTEgLTEzNSAtMiYjMTA7LTI1MCAtMSAtMjU2IDEgLTYgNDUgLTEwIDExMSAtMTAgbDExMCAwIDAgMjgxIGMwIDI1MyAyIDI4OSAyMCAzNDYgNjAgMTk2JiMxMDsyNTMgMzM4IDQ2MCAzMzggMTMzIDAgMjU1IC01NSAzNTAgLTE1NyA2OCAtNzMgOTIgLTExNCAxMTQgLTIwMCAyMyAtODkgMjQmIzEwOy0xMjAyIDEgLTEzNTQgLTU3IC0zNzYgLTMwNyAtNjk0IC02NTUgLTgzMiAtMTUzIC02MSAtMjEyIC03MSAtNDAwIC03MiAtMTY5JiMxMDswIC0xNzkgMSAtMjg5IDMzIC0yOTQgODQgLTUxNiAyNjMgLTY2NCA1MzIgLTM4IDcwIC05MCAyMTkgLTEwOCAzMDkgLTcgMzUmIzEwOy0xMyAyODkgLTE2IDY4OCAtNCA1NjggLTMgNjM4IDEyIDY5MCA2MiAyMTUgMjQ5IDM2MSA0NjUgMzYyIDQxIDEgOTMgLTQgMTE1JiMxMDstMTB6Ii8+CjxwYXRoIGQ9Ik0xMjEwIDI1OTQgYy0xMjAgLTUyIC0xNzMgLTE5OCAtMTE2IC0zMjAgNTAgLTEwOCAxODUgLTE2MiAyOTIgLTExOCYjMTA7MTIxIDUwIDE3OSAxNzIgMTQyIDI5NSAtMTUgNTIgLTczIDExNyAtMTIyIDE0MCAtNTAgMjMgLTE0NyAyNCAtMTk2IDN6Ii8+CjxwYXRoIGQ9Ik0yMzgzIDI1ODkgYy03MiAtMzUgLTEzMyAtMTMzIC0xMzMgLTIxMiAwIC0xMjEgMTE2IC0yMzcgMjM5IC0yMzcmIzEwOzg2IDAgMTcyIDUzIDIxMiAxMzEgMjMgNDYgMjYgMTUzIDUgMjAyIC0xOSA0NSAtOTQgMTE1IC0xMzYgMTI3IC02MCAxNyAtMTQxJiMxMDsxMiAtMTg3IC0xMXoiLz4KPHBhdGggZD0iTTIzNDUgMTU3MiBjLTE5IC0xOCAtMTQ4IC02MyAtMjM4IC04NCAtNzAgLTE2IC0xMjUgLTIxIC0yMzIgLTIwJiMxMDstMTQ0IDAgLTIxNSAxMSAtMzQ0IDUzIC01MyAxOCAtNjUgMTkgLTczIDggLTggLTExIC05IC0xMCAtNCAzIDMgMTAgMSAyMCAtNCYjMTA7MjMgLTE0IDkgLTEyIC01OCAzIC0xMzEgMjYgLTEyMSAxMTIgLTIyOCAyNDAgLTI5NiBsODIgLTQzIDEyMCAwIGMxMTcgMCAxMjImIzEwOzEgMTk3IDM3IDEwNiA1MCAxNzEgMTE0IDIxOSAyMTIgMjEgNDMgNDEgOTcgNDQgMTIwIDkgNTcgMyAxMzAgLTEwIDExOHoiLz4KPC9nPgo8L3N2Zz4=;" parent="1" vertex="1">
                    <mxGeometry x="264.75" y="146" width="18.03" height="24" as="geometry"/>
                </mxCell>
                <mxCell id="VQOo7DmZkrZ01KClmoA2-99" value="&lt;div style=&quot;font-size: 12px;&quot;&gt;&lt;b&gt;&lt;span style=&quot;font-family: &amp;quot;Comic Sans MS&amp;quot;; background-color: initial;&quot;&gt;&lt;font style=&quot;font-size: 12px;&quot;&gt;172.16.0.0 ~&amp;nbsp;&lt;/font&gt;&lt;/span&gt;&lt;span style=&quot;background-color: initial; font-family: &amp;quot;Comic Sans MS&amp;quot;;&quot;&gt;172.31.255.255&lt;/span&gt;&lt;/b&gt;&lt;/div&gt;&lt;div style=&quot;font-size: 12px;&quot;&gt;&lt;font face=&quot;Comic Sans MS&quot;&gt;&lt;b&gt;IP Allocation&lt;/b&gt;&lt;/font&gt;&lt;/div&gt;" style="text;html=1;strokeColor=none;fillColor=none;align=center;verticalAlign=middle;whiteSpace=wrap;rounded=0;fontSize=14;" parent="1" vertex="1">
                    <mxGeometry x="418" y="103" width="185" height="29" as="geometry"/>
                </mxCell>
                <mxCell id="VQOo7DmZkrZ01KClmoA2-100" value="" style="endArrow=none;html=1;fontFamily=Comic Sans MS;fontSize=14;exitX=0.5;exitY=1;exitDx=0;exitDy=0;entryX=0.5;entryY=0;entryDx=0;entryDy=0;dashed=1;" parent="1" edge="1">
                    <mxGeometry width="50" height="50" relative="1" as="geometry">
                        <mxPoint x="565" y="45" as="sourcePoint"/>
                        <mxPoint x="565" y="75" as="targetPoint"/>
                    </mxGeometry>
                </mxCell>
                <mxCell id="VQOo7DmZkrZ01KClmoA2-101" value="" style="endArrow=none;html=1;fontFamily=Comic Sans MS;fontSize=14;exitX=0.5;exitY=1;exitDx=0;exitDy=0;entryX=0.5;entryY=0;entryDx=0;entryDy=0;endFill=0;startArrow=classic;startFill=1;" parent="1" edge="1">
                    <mxGeometry width="50" height="50" relative="1" as="geometry">
                        <mxPoint x="565" y="-45" as="sourcePoint"/>
                        <mxPoint x="565" y="47" as="targetPoint"/>
                    </mxGeometry>
                </mxCell>
                <mxCell id="VQOo7DmZkrZ01KClmoA2-102" value="" style="endArrow=none;html=1;fontFamily=Comic Sans MS;fontSize=14;exitX=0.5;exitY=1;exitDx=0;exitDy=0;entryX=0.5;entryY=0;entryDx=0;entryDy=0;dashed=1;" parent="1" edge="1">
                    <mxGeometry width="50" height="50" relative="1" as="geometry">
                        <mxPoint x="450" y="45" as="sourcePoint"/>
                        <mxPoint x="450" y="75" as="targetPoint"/>
                    </mxGeometry>
                </mxCell>
                <mxCell id="VQOo7DmZkrZ01KClmoA2-103" value="" style="endArrow=none;html=1;fontFamily=Comic Sans MS;fontSize=14;entryX=0.5;entryY=0;entryDx=0;entryDy=0;" parent="1" edge="1">
                    <mxGeometry width="50" height="50" relative="1" as="geometry">
                        <mxPoint x="565" as="sourcePoint"/>
                        <mxPoint x="450" y="46" as="targetPoint"/>
                        <Array as="points">
                            <mxPoint x="450"/>
                        </Array>
                    </mxGeometry>
                </mxCell>
                <mxCell id="VQOo7DmZkrZ01KClmoA2-104" value="&lt;div style=&quot;text-align: left;&quot;&gt;&lt;font face=&quot;Comic Sans MS&quot;&gt;&lt;span style=&quot;font-size: 12px;&quot;&gt;&lt;b&gt;NAT&lt;/b&gt;&lt;/span&gt;&lt;/font&gt;&lt;/div&gt;" style="text;html=1;strokeColor=none;fillColor=none;align=center;verticalAlign=middle;whiteSpace=wrap;rounded=0;fontSize=14;" parent="1" vertex="1">
                    <mxGeometry x="470" y="-1" width="33.5" height="20" as="geometry"/>
                </mxCell>
                <mxCell id="VQOo7DmZkrZ01KClmoA2-105" value="" style="rounded=1;whiteSpace=wrap;html=1;sketch=1;fontFamily=Comic Sans MS;fontSize=14;fillColor=default;strokeColor=#6666FF;arcSize=2;" parent="1" vertex="1">
                    <mxGeometry x="280" y="191" width="240" height="179" as="geometry"/>
                </mxCell>
                <mxCell id="WK9f9N_LcFrwsQ1nEAdM-1" value="" style="rounded=1;whiteSpace=wrap;html=1;sketch=1;fontFamily=Comic Sans MS;fontSize=14;fillColor=#6666FF;strokeColor=#6666FF;arcSize=19;fillStyle=solid;" parent="1" vertex="1">
                    <mxGeometry x="280.78" y="191" width="32" height="32" as="geometry"/>
                </mxCell>
                <mxCell id="WK9f9N_LcFrwsQ1nEAdM-2" value="" style="shape=image;verticalLabelPosition=bottom;verticalAlign=top;imageAspect=0;aspect=fixed;image=data:image/svg+xml,PHN2ZyB4bWxucz0iaHR0cDovL3d3dy53My5vcmcvMjAwMC9zdmciIHZpZXdCb3g9IjAgLTc2IDY3MCA2NzAiIHdpZHRoPSIyNCIgaGVpZ2h0PSIyNCI+CiAgPGRlZnM+PHN0eWxlPi5jbHMtMXtmaWxsOiNmZmY7c3Ryb2tlLXdpZHRoOjB9PC9zdHlsZT48L2RlZnM+CiAgPGc+PHBhdGggZD0iTTY2MS41NiAyMTguMDhjLTE2LjQ5LTExLjEtNTkuODEtMTUuODQtOTEuMy03LjM1LTEuNjktMzEuMzctMTcuODgtNTcuODEtNDcuNDctODAuODhsLTEwLjk1LTcuMzUtNy4zIDExLjAzYy0xNC4zNSAyMS43OC0yMC40IDUwLjgxLTE4LjI2IDc3LjIgMS42OSAxNi4yNiA3LjM0IDM0LjUzIDE4LjI2IDQ3Ljc5LTQwLjk5IDIzLjc4LTc4Ljc4IDE4LjM4LTI0Ni4xMiAxOC4zOEguMDZjLS43NSAzNy43OSA1LjMyIDExMC40NyA1MS41NCAxNjkuNjQgNS4xMSA2LjU0IDEwLjcgMTIuODYgMTYuNzggMTguOTUgMzcuNTggMzcuNjMgOTQuMzYgNjUuMjMgMTc5LjI2IDY1LjMgMTI5LjUzLjEyIDI0MC41LTY5LjkgMzA4LjAxLTIzOS4xOCAyMi4yMS4zNiA4MC44NSAzLjk4IDEwOS41NS01MS40Ny43LS45MyA3LjMtMTQuNyA3LjMtMTQuN2wtMTAuOTQtNy4zNXpNMTY4LjY3IDE4My41M0g5Ni4wMnY3Mi42NWg3Mi42NXYtNzIuNjV6bTkzLjg1LjBoLTcyLjY1djcyLjY1aDcyLjY1di03Mi42NXptOTMuODYuMGgtNzIuNjV2NzIuNjVoNzIuNjV2LTcyLjY1em05My44Ni4waC03Mi42NXY3Mi42NWg3Mi42NXYtNzIuNjV6bS0zNzUuNDMuMEgyLjE2djcyLjY1aDcyLjY1di03Mi42NXptOTMuODYtOTEuNzZIOTYuMDJ2NzIuNjVoNzIuNjVWOTEuNzd6bTkzLjg1LjBoLTcyLjY1djcyLjY1aDcyLjY1VjkxLjc3em05My44Ni4waC03Mi42NXY3Mi42NWg3Mi42NVY5MS43N3ptMC05MS43N2gtNzIuNjV2NzIuNjVoNzIuNjVWMHoiIGNsYXNzPSJjbHMtMSIvPjwvZz4KPC9zdmc+" parent="1" vertex="1">
                    <mxGeometry x="285.78" y="195" width="24" height="24" as="geometry"/>
                </mxCell>
                <mxCell id="WK9f9N_LcFrwsQ1nEAdM-3" value="" style="rounded=1;whiteSpace=wrap;html=1;sketch=1;fontFamily=Comic Sans MS;fontSize=14;fillColor=default;strokeColor=#6666FF;arcSize=2;" parent="1" vertex="1">
                    <mxGeometry x="537" y="191.5" width="240" height="179" as="geometry"/>
                </mxCell>
                <mxCell id="WK9f9N_LcFrwsQ1nEAdM-4" value="" style="rounded=1;whiteSpace=wrap;html=1;sketch=1;fontFamily=Comic Sans MS;fontSize=14;fillColor=#6666FF;strokeColor=#6666FF;arcSize=19;fillStyle=solid;" parent="1" vertex="1">
                    <mxGeometry x="537" y="192" width="32" height="32" as="geometry"/>
                </mxCell>
                <mxCell id="WK9f9N_LcFrwsQ1nEAdM-5" value="" style="shape=image;verticalLabelPosition=bottom;verticalAlign=top;imageAspect=0;aspect=fixed;image=data:image/svg+xml,PHN2ZyB4bWxuczp4bGluaz0iaHR0cDovL3d3dy53My5vcmcvMTk5OS94bGluayIgeG1sbnM9Imh0dHA6Ly93d3cudzMub3JnLzIwMDAvc3ZnIiB4bWw6c3BhY2U9InByZXNlcnZlIiB2ZXJzaW9uPSIxLjEiIHZpZXdCb3g9IjE0IDE0IDQyIDQ4IiBoZWlnaHQ9IjgwMHB4IiB3aWR0aD0iODAwcHgiPgoJPHBhdGggZD0iTSA1MC42NjY3LDE0LjI1QyA1My4yOSwxNC4yNSA1NS40MTY3LDE2LjM3NjcgNTUuNDE2NywxOUMgNTUuNDE2NywyMS42MjM0IDUzLjI5LDIzLjc1IDUwLjY2NjcsMjMuNzVDIDQ4LjA0MzMsMjMuNzUgNDUuOTE2NywyMS42MjM0IDQ1LjkxNjcsMTlDIDQ1LjkxNjcsMTYuMzc2NyA0OC4wNDMzLDE0LjI1IDUwLjY2NjcsMTQuMjUgWiBNIDQ5LjA4MzMsNTIuMjVDIDUxLjcwNjcsNTIuMjUgNTMuODMzMyw1NC4zNzY3IDUzLjgzMzMsNTdDIDUzLjgzMzMsNTkuNjIzNCA1MS43MDY3LDYxLjc1IDQ5LjA4MzMsNjEuNzVDIDQ2LjQ2LDYxLjc1IDQ0LjMzMzMsNTkuNjIzNCA0NC4zMzMzLDU3QyA0NC4zMzMzLDU0LjM3NjcgNDYuNDYsNTIuMjUgNDkuMDgzMyw1Mi4yNSBaIE0gMTcuNDE2NywzMy4yNUMgMjAuMDQsMzMuMjUgMjIuMTY2NywzNS4zNzY3IDIyLjE2NjcsMzhDIDIyLjE2NjcsNDAuNjIzNCAyMC4wNCw0Mi43NSAxNy40MTY3LDQyLjc1QyAxNC43OTMzLDQyLjc1IDEyLjY2NjcsNDAuNjIzNCAxMi42NjY3LDM4QyAxMi42NjY3LDM1LjM3NjcgMTQuNzkzMywzMy4yNSAxNy40MTY3LDMzLjI1IFogTSAyNC41NDE3LDM4QyAyNC41NDE3LDM1LjA0MDMgMjIuNzM3MSwzMi41MDIxIDIwLjE2ODEsMzEuNDI1N0MgMjIuODQzMywyNC4xNzIzIDI5LjgxNzYsMTkgMzgsMTlDIDM5Ljk0NTUsMTkgNDEuODIyOCwxOS4yOTI0IDQzLjU5MDIsMTkuODM1N0MgNDQuMDAzOSwyMy4zNzY5IDQ3LjAxNDMsMjYuMTI1IDUwLjY2NjcsMjYuMTI1QyA1MS4zNDE0LDI2LjEyNSA1MS45OTQzLDI2LjAzMTIgNTIuNjEzLDI1Ljg1NTlDIDU1LjM1MjQsMjkuMTQ4NiA1NywzMy4zODE5IDU3LDM4QyA1Nyw0Mi44MzQ2IDU1LjE5NDMsNDcuMjQ3NSA1Mi4yMjA1LDUwLjYwMUMgNTEuMjczOSw1MC4xMzYxIDUwLjIwOTEsNDkuODc1IDQ5LjA4MzMsNDkuODc1QyA0NS4yODc4LDQ5Ljg3NSA0Mi4xODU0LDUyLjg0MjkgNDEuOTcwMiw1Ni41ODQ2QyA0MC42ODk4LDU2Ljg1NjggMzkuMzYxNiw1NyAzOCw1N0MgMjkuODE3Niw1NyAyMi44NDMzLDUxLjgyNzcgMjAuMTY4MSw0NC41NzQzQyAyMi43MzcxLDQzLjQ5NzkgMjQuNTQxNyw0MC45NTk3IDI0LjU0MTcsMzggWiBNIDM4LDI2LjkxNjdDIDMxLjg3ODgsMjYuOTE2NyAyNi45MTY3LDMxLjg3ODkgMjYuOTE2NywzOEMgMjYuOTE2Nyw0NC4xMjEyIDMxLjg3ODgsNDkuMDgzMyAzOCw0OS4wODMzQyA0NC4xMjExLDQ5LjA4MzMgNDkuMDgzMyw0NC4xMjEyIDQ5LjA4MzMsMzhDIDQ5LjA4MzMsMzEuODc4OSA0NC4xMjEyLDI2LjkxNjcgMzgsMjYuOTE2NyBaIiBzdHJva2UtbGluZWpvaW49InJvdW5kIiBzdHJva2Utd2lkdGg9IjAuMiIgZmlsbC1vcGFjaXR5PSIxIiBmaWxsPSIjRkZGRkZGIi8+Cjwvc3ZnPg==;fontSize=12;" parent="1" vertex="1">
                    <mxGeometry x="541" y="196" width="24" height="24" as="geometry"/>
                </mxCell>
                <mxCell id="U5HhzwHVl19CriU-hSr_-6" value="" style="group" parent="1" vertex="1" connectable="0">
                    <mxGeometry x="600.88" y="-21" width="80" height="34" as="geometry"/>
                </mxCell>
                <mxCell id="U5HhzwHVl19CriU-hSr_-3" value="&lt;div style=&quot;&quot;&gt;&lt;font color=&quot;#000000&quot;&gt;&lt;b&gt;browser&lt;/b&gt;&lt;/font&gt;&lt;/div&gt;" style="rounded=1;whiteSpace=wrap;html=1;sketch=1;fillStyle=auto;strokeColor=#000000;fontFamily=Comic Sans MS;fontColor=#006600;fillColor=default;arcSize=12;container=0;align=right;" parent="U5HhzwHVl19CriU-hSr_-6" vertex="1">
                    <mxGeometry width="80" height="34" as="geometry"/>
                </mxCell>
                <mxCell id="U5HhzwHVl19CriU-hSr_-4" value="" style="shape=image;verticalLabelPosition=bottom;verticalAlign=top;imageAspect=0;aspect=fixed;image=data:image/svg+xml,PHN2ZyB4bWxucz0iaHR0cDovL3d3dy53My5vcmcvMjAwMC9zdmciIHdpZHRoPSIyNCIgdmlld0JveD0iMCAtOTYwIDk2MCA5NjAiIGhlaWdodD0iMjQiPjxwYXRoIGQ9Ik0xNjAtMTYwcS0zMyAwLTU2LjUtMjMuNVQ4MC0yNDB2LTQ4MHEwLTMzIDIzLjUtNTYuNVQxNjAtODAwaDY0MHEzMyAwIDU2LjUgMjMuNVQ4ODAtNzIwdjQ4MHEwIDMzLTIzLjUgNTYuNVQ4MDAtMTYwSDE2MFptMC04MGg0MjB2LTE0MEgxNjB2MTQwWm01MDAgMGgxNDB2LTM2MEg2NjB2MzYwWk0xNjAtNDYwaDQyMHYtMTQwSDE2MHYxNDBaIi8+PC9zdmc+;container=0;" parent="U5HhzwHVl19CriU-hSr_-6" vertex="1">
                    <mxGeometry x="3.4974999999999454" y="6.5" width="24" height="24" as="geometry"/>
                </mxCell>
                <mxCell id="U5HhzwHVl19CriU-hSr_-7" value="" style="endArrow=classic;html=1;fontFamily=Comic Sans MS;fontSize=14;exitX=0.5;exitY=1;exitDx=0;exitDy=0;entryX=0.5;entryY=0;entryDx=0;entryDy=0;endFill=1;" parent="1" edge="1">
                    <mxGeometry width="50" height="50" relative="1" as="geometry">
                        <mxPoint x="641" y="13" as="sourcePoint"/>
                        <mxPoint x="641" y="88" as="targetPoint"/>
                    </mxGeometry>
                </mxCell>
                <mxCell id="6P8rG-wDQEcuRHrv9Uq5-1" value="&lt;div style=&quot;text-align: left;&quot;&gt;&lt;b style=&quot;font-family: &amp;quot;Comic Sans MS&amp;quot;; background-color: initial;&quot;&gt;&lt;font style=&quot;font-size: 12px;&quot;&gt;localhost&lt;/font&gt;&lt;/b&gt;&lt;/div&gt;&lt;font style=&quot;font-size: 12px;&quot; face=&quot;Comic Sans MS&quot;&gt;&lt;div style=&quot;text-align: left;&quot;&gt;&lt;b style=&quot;background-color: initial;&quot;&gt;&amp;nbsp; -&amp;gt;&lt;font style=&quot;font-size: 12px;&quot; color=&quot;#9933ff&quot;&gt;172.xx.0.0/16&lt;/font&gt;&lt;/b&gt;&lt;/div&gt;&lt;/font&gt;" style="text;html=1;strokeColor=none;fillColor=none;align=center;verticalAlign=middle;whiteSpace=wrap;rounded=0;flipV=1;" parent="1" vertex="1">
                    <mxGeometry x="254.75" y="107.5" width="115.75" height="20" as="geometry"/>
                </mxCell>
                <mxCell id="6P8rG-wDQEcuRHrv9Uq5-3" value="&lt;font color=&quot;#0066cc&quot; face=&quot;Comic Sans MS&quot;&gt;&lt;b style=&quot;&quot;&gt;Rancher&lt;br&gt;Desktop&lt;/b&gt;&lt;/font&gt;" style="text;html=1;strokeColor=none;fillColor=none;align=center;verticalAlign=middle;whiteSpace=wrap;rounded=0;" parent="1" vertex="1">
                    <mxGeometry x="314" y="192" width="56" height="30" as="geometry"/>
                </mxCell>
                <mxCell id="6P8rG-wDQEcuRHrv9Uq5-4" value="&lt;font color=&quot;#0066cc&quot; face=&quot;Comic Sans MS&quot;&gt;&lt;b style=&quot;&quot;&gt;Ubuntu&lt;/b&gt;&lt;/font&gt;" style="text;html=1;strokeColor=none;fillColor=none;align=center;verticalAlign=middle;whiteSpace=wrap;rounded=0;" parent="1" vertex="1">
                    <mxGeometry x="569" y="193" width="50" height="30" as="geometry"/>
                </mxCell>
                <mxCell id="6P8rG-wDQEcuRHrv9Uq5-5" value="&lt;font face=&quot;Comic Sans MS&quot;&gt;&lt;b style=&quot;&quot;&gt;172.24.224.2&lt;/b&gt;&lt;/font&gt;" style="text;html=1;strokeColor=none;fillColor=none;align=center;verticalAlign=middle;whiteSpace=wrap;rounded=0;" parent="1" vertex="1">
                    <mxGeometry x="696" y="174" width="82.5" height="16" as="geometry"/>
                </mxCell>
                <mxCell id="6P8rG-wDQEcuRHrv9Uq5-6" value="&lt;font face=&quot;Comic Sans MS&quot;&gt;&lt;b style=&quot;&quot;&gt;172.24.224.1&lt;/b&gt;&lt;/font&gt;" style="text;html=1;strokeColor=none;fillColor=none;align=center;verticalAlign=middle;whiteSpace=wrap;rounded=0;" parent="1" vertex="1">
                    <mxGeometry x="437" y="174" width="80" height="16" as="geometry"/>
                </mxCell>
                <mxCell id="6P8rG-wDQEcuRHrv9Uq5-17" value="" style="group" parent="1" vertex="1" connectable="0">
                    <mxGeometry x="410" y="305" width="73" height="55" as="geometry"/>
                </mxCell>
                <mxCell id="6P8rG-wDQEcuRHrv9Uq5-18" value="" style="rounded=1;whiteSpace=wrap;html=1;sketch=1;fontFamily=Comic Sans MS;fontSize=14;fontColor=#3333FF;arcSize=10;" parent="6P8rG-wDQEcuRHrv9Uq5-17" vertex="1">
                    <mxGeometry width="73" height="55" as="geometry"/>
                </mxCell>
                <mxCell id="6P8rG-wDQEcuRHrv9Uq5-19" value="&lt;font face=&quot;Comic Sans MS&quot; style=&quot;font-size: 12px;&quot;&gt;&lt;b style=&quot;&quot;&gt;Container&lt;br style=&quot;&quot;&gt;&lt;font style=&quot;font-size: 12px;&quot;&gt;172.26.0.3&lt;/font&gt;&lt;br style=&quot;font-size: 14px;&quot;&gt;&lt;/b&gt;&lt;/font&gt;" style="text;html=1;strokeColor=none;fillColor=none;align=center;verticalAlign=middle;whiteSpace=wrap;rounded=0;fontSize=14;" parent="6P8rG-wDQEcuRHrv9Uq5-17" vertex="1">
                    <mxGeometry x="2" y="23" width="70" height="30" as="geometry"/>
                </mxCell>
                <mxCell id="6P8rG-wDQEcuRHrv9Uq5-20" value="" style="shape=image;verticalLabelPosition=bottom;verticalAlign=top;imageAspect=0;aspect=fixed;image=data:image/svg+xml,PHN2ZyB4bWxucz0iaHR0cDovL3d3dy53My5vcmcvMjAwMC9zdmciIHdpZHRoPSIyNCIgdmlld0JveD0iMCAtOTYwIDk2MCA5NjAiIGhlaWdodD0iMjQiPjxwYXRoIGQ9Ik00NDAtMTgzdi0yNzRMMjAwLTU5NnYyNzRsMjQwIDEzOVptODAgMCAyNDAtMTM5di0yNzRMNTIwLTQ1N3YyNzRabS00MC0zNDMgMjM3LTEzNy0yMzctMTM3LTIzNyAxMzcgMjM3IDEzN1pNMTYwLTI1MnEtMTktMTEtMjkuNS0yOVQxMjAtMzIxdi0zMThxMC0yMiAxMC41LTQwdDI5LjUtMjlsMjgwLTE2MXExOS0xMSA0MC0xMXQ0MCAxMWwyODAgMTYxcTE5IDExIDI5LjUgMjl0MTAuNSA0MHYzMThxMCAyMi0xMC41IDQwVDgwMC0yNTJMNTIwLTkxcS0xOSAxMS00MCAxMXQtNDAtMTFMMTYwLTI1MlptMzIwLTIyOFoiLz48L3N2Zz4=;rounded=0;sketch=1;fontFamily=Comic Sans MS;fontSize=14;fontColor=#3333FF;" parent="6P8rG-wDQEcuRHrv9Uq5-17" vertex="1">
                    <mxGeometry x="25" y="2" width="24" height="24" as="geometry"/>
                </mxCell>
                <mxCell id="VQOo7DmZkrZ01KClmoA2-26" value="" style="endArrow=none;html=1;fontFamily=Comic Sans MS;fontSize=14;exitX=0.5;exitY=1;exitDx=0;exitDy=0;entryX=0.5;entryY=0;entryDx=0;entryDy=0;" parent="1" edge="1">
                    <mxGeometry width="50" height="50" relative="1" as="geometry">
                        <mxPoint x="383" y="118" as="sourcePoint"/>
                        <mxPoint x="383" y="280" as="targetPoint"/>
                    </mxGeometry>
                </mxCell>
                <mxCell id="6P8rG-wDQEcuRHrv9Uq5-2" value="&lt;b&gt;&lt;font style=&quot;font-size: 12px;&quot;&gt;docker0 (172.26.0.0/16)&lt;/font&gt;&lt;/b&gt;" style="rounded=1;whiteSpace=wrap;html=1;fontFamily=Comic Sans MS;fontSize=14;arcSize=50;sketch=1;curveFitting=1;jiggle=2;" parent="1" vertex="1">
                    <mxGeometry x="300" y="232" width="200" height="24" as="geometry"/>
                </mxCell>
                <mxCell id="6P8rG-wDQEcuRHrv9Uq5-23" value="" style="group" parent="1" vertex="1" connectable="0">
                    <mxGeometry x="309.5" y="268" width="180.5" height="25" as="geometry"/>
                </mxCell>
                <mxCell id="6P8rG-wDQEcuRHrv9Uq5-7" value="&lt;b&gt;&lt;font style=&quot;font-size: 12px;&quot;&gt;Gateway (172.26.0.1)&lt;/font&gt;&lt;/b&gt;" style="rounded=1;whiteSpace=wrap;html=1;fontFamily=Comic Sans MS;fontSize=14;arcSize=50;sketch=1;curveFitting=1;jiggle=2;" parent="6P8rG-wDQEcuRHrv9Uq5-23" vertex="1">
                    <mxGeometry width="180.5" height="24" as="geometry"/>
                </mxCell>
                <mxCell id="6P8rG-wDQEcuRHrv9Uq5-10" value="" style="shape=image;verticalLabelPosition=bottom;verticalAlign=top;imageAspect=0;aspect=fixed;image=data:image/svg+xml,PHN2ZyB4bWxucz0iaHR0cDovL3d3dy53My5vcmcvMjAwMC9zdmciIHdpZHRoPSIyNCIgdmlld0JveD0iMCAtOTYwIDk2MCA5NjAiIGhlaWdodD0iMjQiPjxwYXRoIGQ9Ik0yMDAtMTIwcS0zMyAwLTU2LjUtMjMuNVQxMjAtMjAwdi0xNjBxMC0zMyAyMy41LTU2LjVUMjAwLTQ0MGg0MDB2LTE2MGg4MHYxNjBoODBxMzMgMCA1Ni41IDIzLjVUODQwLTM2MHYxNjBxMCAzMy0yMy41IDU2LjVUNzYwLTEyMEgyMDBabTAtODBoNTYwdi0xNjBIMjAwdjE2MFptODAtNDBxMTcgMCAyOC41LTExLjVUMzIwLTI4MHEwLTE3LTExLjUtMjguNVQyODAtMzIwcS0xNyAwLTI4LjUgMTEuNVQyNDAtMjgwcTAgMTcgMTEuNSAyOC41VDI4MC0yNDBabTE0MCAwcTE3IDAgMjguNS0xMS41VDQ2MC0yODBxMC0xNy0xMS41LTI4LjVUNDIwLTMyMHEtMTcgMC0yOC41IDExLjVUMzgwLTI4MHEwIDE3IDExLjUgMjguNVQ0MjAtMjQwWm0xNDAgMHExNyAwIDI4LjUtMTEuNVQ2MDAtMjgwcTAtMTctMTEuNS0yOC41VDU2MC0zMjBxLTE3IDAtMjguNSAxMS41VDUyMC0yODBxMCAxNyAxMS41IDI4LjVUNTYwLTI0MFptMTAtMzkwLTU4LTU4cTI2LTI0IDU4LTM4dDcwLTE0cTM4IDAgNzAgMTR0NTggMzhsLTU4IDU4cS0xNC0xNC0zMS41LTIydC0zOC41LThxLTIxIDAtMzguNSA4VDU3MC02MzBaTTQ3MC03MzBsLTU2LTU2cTQ0LTQ0IDEwMi02OXQxMjQtMjVxNjYgMCAxMjQgMjV0MTAyIDY5bC01NiA1NnEtMzMtMzMtNzYuNS01MS41VDY0MC04MDBxLTUwIDAtOTMuNSAxOC41VDQ3MC03MzBaTTIwMC0yMDB2LTE2MCAxNjBaIi8+PC9zdmc+" parent="6P8rG-wDQEcuRHrv9Uq5-23" vertex="1">
                    <mxGeometry x="2.5" y="1" width="24" height="24" as="geometry"/>
                </mxCell>
                <mxCell id="6P8rG-wDQEcuRHrv9Uq5-16" value="" style="group;fillColor=default;" parent="1" vertex="1" connectable="0">
                    <mxGeometry x="324" y="306" width="73" height="55" as="geometry"/>
                </mxCell>
                <mxCell id="6P8rG-wDQEcuRHrv9Uq5-9" value="" style="rounded=1;whiteSpace=wrap;html=1;sketch=1;fontFamily=Comic Sans MS;fontSize=14;fontColor=#3333FF;arcSize=10;" parent="6P8rG-wDQEcuRHrv9Uq5-16" vertex="1">
                    <mxGeometry width="73" height="55" as="geometry"/>
                </mxCell>
                <mxCell id="6P8rG-wDQEcuRHrv9Uq5-11" value="&lt;font face=&quot;Comic Sans MS&quot; style=&quot;font-size: 12px;&quot;&gt;&lt;b style=&quot;&quot;&gt;Container&lt;br style=&quot;&quot;&gt;&lt;font style=&quot;font-size: 12px;&quot;&gt;172.26.0.2&lt;/font&gt;&lt;br style=&quot;font-size: 14px;&quot;&gt;&lt;/b&gt;&lt;/font&gt;" style="text;html=1;strokeColor=none;fillColor=none;align=center;verticalAlign=middle;whiteSpace=wrap;rounded=0;fontSize=14;" parent="6P8rG-wDQEcuRHrv9Uq5-16" vertex="1">
                    <mxGeometry x="2" y="23" width="70" height="30" as="geometry"/>
                </mxCell>
                <mxCell id="6P8rG-wDQEcuRHrv9Uq5-12" value="" style="shape=image;verticalLabelPosition=bottom;verticalAlign=top;imageAspect=0;aspect=fixed;image=data:image/svg+xml,PHN2ZyB4bWxucz0iaHR0cDovL3d3dy53My5vcmcvMjAwMC9zdmciIHdpZHRoPSIyNCIgdmlld0JveD0iMCAtOTYwIDk2MCA5NjAiIGhlaWdodD0iMjQiPjxwYXRoIGQ9Ik00NDAtMTgzdi0yNzRMMjAwLTU5NnYyNzRsMjQwIDEzOVptODAgMCAyNDAtMTM5di0yNzRMNTIwLTQ1N3YyNzRabS00MC0zNDMgMjM3LTEzNy0yMzctMTM3LTIzNyAxMzcgMjM3IDEzN1pNMTYwLTI1MnEtMTktMTEtMjkuNS0yOVQxMjAtMzIxdi0zMThxMC0yMiAxMC41LTQwdDI5LjUtMjlsMjgwLTE2MXExOS0xMSA0MC0xMXQ0MCAxMWwyODAgMTYxcTE5IDExIDI5LjUgMjl0MTAuNSA0MHYzMThxMCAyMi0xMC41IDQwVDgwMC0yNTJMNTIwLTkxcS0xOSAxMS00MCAxMXQtNDAtMTFMMTYwLTI1MlptMzIwLTIyOFoiLz48L3N2Zz4=;rounded=0;sketch=1;fontFamily=Comic Sans MS;fontSize=14;fontColor=#3333FF;" parent="6P8rG-wDQEcuRHrv9Uq5-16" vertex="1">
                    <mxGeometry x="25" y="2" width="24" height="24" as="geometry"/>
                </mxCell>
                <mxCell id="6P8rG-wDQEcuRHrv9Uq5-24" value="" style="endArrow=none;html=1;fontFamily=Comic Sans MS;fontSize=14;exitX=0.5;exitY=1;exitDx=0;exitDy=0;entryX=0.5;entryY=0;entryDx=0;entryDy=0;" parent="6P8rG-wDQEcuRHrv9Uq5-16" edge="1">
                    <mxGeometry width="50" height="50" relative="1" as="geometry">
                        <mxPoint x="36" y="-15" as="sourcePoint"/>
                        <mxPoint x="36" y="-1" as="targetPoint"/>
                    </mxGeometry>
                </mxCell>
                <mxCell id="VBaJoEsjswOdsUzEXXT9-1" value="" style="endArrow=none;html=1;fontFamily=Comic Sans MS;fontSize=14;exitX=0.5;exitY=1;exitDx=0;exitDy=0;entryX=0.5;entryY=0;entryDx=0;entryDy=0;" parent="1" edge="1">
                    <mxGeometry width="50" height="50" relative="1" as="geometry">
                        <mxPoint x="446" y="292" as="sourcePoint"/>
                        <mxPoint x="446" y="306" as="targetPoint"/>
                    </mxGeometry>
                </mxCell>
                <mxCell id="VBaJoEsjswOdsUzEXXT9-2" value="" style="endArrow=none;html=1;fontFamily=Comic Sans MS;fontSize=14;exitX=0.5;exitY=0;exitDx=0;exitDy=0;" parent="1" source="WK9f9N_LcFrwsQ1nEAdM-3" edge="1">
                    <mxGeometry width="50" height="50" relative="1" as="geometry">
                        <mxPoint x="397" y="119" as="sourcePoint"/>
                        <mxPoint x="383" y="160" as="targetPoint"/>
                        <Array as="points">
                            <mxPoint x="657" y="160"/>
                        </Array>
                    </mxGeometry>
                </mxCell>
                <mxCell id="VBaJoEsjswOdsUzEXXT9-3" value="" style="shape=image;verticalLabelPosition=bottom;verticalAlign=top;imageAspect=0;aspect=fixed;image=data:image/svg+xml,PHN2ZyB4bWxucz0iaHR0cDovL3d3dy53My5vcmcvMjAwMC9zdmciIHdpZHRoPSIyNCIgdmlld0JveD0iMCAtOTYwIDk2MCA5NjAiIGhlaWdodD0iMjQiPjxwYXRoIGQ9Ik0xMjAtODB2LTI4MGgxMjB2LTE2MGgyMDB2LTgwSDMyMHYtMjgwaDMyMHYyODBINTIwdjgwaDIwMHYxNjBoMTIwdjI4MEg1MjB2LTI4MGgxMjB2LTgwSDMyMHY4MGgxMjB2MjgwSDEyMFoiLz48L3N2Zz4=" parent="1" vertex="1">
                    <mxGeometry x="637" y="170" width="20" height="20" as="geometry"/>
                </mxCell>
                <mxCell id="VBaJoEsjswOdsUzEXXT9-4" value="" style="shape=image;verticalLabelPosition=bottom;verticalAlign=top;imageAspect=0;aspect=fixed;image=data:image/svg+xml,PHN2ZyB4bWxucz0iaHR0cDovL3d3dy53My5vcmcvMjAwMC9zdmciIHdpZHRoPSIyNCIgdmlld0JveD0iMCAtOTYwIDk2MCA5NjAiIGhlaWdodD0iMjQiPjxwYXRoIGQ9Ik0xMjAtODB2LTI4MGgxMjB2LTE2MGgyMDB2LTgwSDMyMHYtMjgwaDMyMHYyODBINTIwdjgwaDIwMHYxNjBoMTIwdjI4MEg1MjB2LTI4MGgxMjB2LTgwSDMyMHY4MGgxMjB2MjgwSDEyMFoiLz48L3N2Zz4=" parent="1" vertex="1">
                    <mxGeometry x="362" y="168" width="20" height="20" as="geometry"/>
                </mxCell>
                <mxCell id="mge3sgd14MNkz1HOkYxZ-2" value="" style="group" parent="1" vertex="1" connectable="0">
                    <mxGeometry x="710" y="190" width="60" height="36" as="geometry"/>
                </mxCell>
                <mxCell id="VQOo7DmZkrZ01KClmoA2-38" value="&lt;font color=&quot;#ff3399&quot; face=&quot;Comic Sans MS&quot;&gt;&lt;b&gt;Developer&lt;/b&gt;&lt;/font&gt;" style="text;html=1;strokeColor=none;fillColor=none;align=center;verticalAlign=middle;whiteSpace=wrap;rounded=0;" parent="mge3sgd14MNkz1HOkYxZ-2" vertex="1">
                    <mxGeometry y="20" width="60" height="16" as="geometry"/>
                </mxCell>
                <mxCell id="VQOo7DmZkrZ01KClmoA2-45" value="" style="shape=image;verticalLabelPosition=bottom;verticalAlign=top;imageAspect=0;aspect=fixed;image=data:image/svg+xml,PHN2ZyB4bWxucz0iaHR0cDovL3d3dy53My5vcmcvMjAwMC9zdmciIHdpZHRoPSIyNCIgdmlld0JveD0iMCAtOTYwIDk2MCA5NjAiIGhlaWdodD0iMjQiPjxwYXRoIGQ9Ik00ODAtNDgwcS02NiAwLTExMy00N3QtNDctMTEzcTAtNjYgNDctMTEzdDExMy00N3E2NiAwIDExMyA0N3Q0NyAxMTNxMCA2Ni00NyAxMTN0LTExMyA0N1pNMTYwLTI0MHYtMzJxMC0zNCAxNy41LTYyLjVUMjI0LTM3OHE2Mi0zMSAxMjYtNDYuNVQ0ODAtNDQwcTY2IDAgMTMwIDE1LjVUNzM2LTM3OHEyOSAxNSA0Ni41IDQzLjVUODAwLTI3MnYzMnEwIDMzLTIzLjUgNTYuNVQ3MjAtMTYwSDI0MHEtMzMgMC01Ni41LTIzLjVUMTYwLTI0MFoiIGZpbGw9IiNGRjMzOTkiLz48L3N2Zz4=" parent="mge3sgd14MNkz1HOkYxZ-2" vertex="1">
                    <mxGeometry x="18" width="24" height="24" as="geometry"/>
                </mxCell>
                <mxCell id="mge3sgd14MNkz1HOkYxZ-3" value="" style="group" parent="1" vertex="1" connectable="0">
                    <mxGeometry x="580" y="314" width="148" height="44" as="geometry"/>
                </mxCell>
                <mxCell id="VQOo7DmZkrZ01KClmoA2-19" value="&lt;font color=&quot;#000000&quot;&gt;&lt;span style=&quot;font-size: 14px;&quot;&gt;&lt;b&gt;src/, pkg/, bin/&lt;br&gt;mountpoint&lt;br&gt;&lt;/b&gt;&lt;/span&gt;&lt;/font&gt;" style="rounded=1;whiteSpace=wrap;html=1;sketch=1;fillStyle=auto;strokeColor=#000000;fontFamily=Comic Sans MS;fontColor=#006600;fillColor=default;arcSize=12;align=right;" parent="mge3sgd14MNkz1HOkYxZ-3" vertex="1">
                    <mxGeometry width="148" height="44" as="geometry"/>
                </mxCell>
                <mxCell id="VQOo7DmZkrZ01KClmoA2-20" value="" style="shape=image;verticalLabelPosition=bottom;verticalAlign=top;imageAspect=0;aspect=fixed;image=data:image/svg+xml,PHN2ZyB4bWxucz0iaHR0cDovL3d3dy53My5vcmcvMjAwMC9zdmciIHdpZHRoPSIyNCIgdmlld0JveD0iMCAtOTYwIDk2MCA5NjAiIGhlaWdodD0iMjQiPjxwYXRoIGQ9Ik0xNjAtMTYwcS0zMyAwLTU2LjUtMjMuNVQ4MC0yNDB2LTQ4MHEwLTMzIDIzLjUtNTYuNVQxNjAtODAwaDI0MGw4MCA4MGgzMjBxMzMgMCA1Ni41IDIzLjVUODgwLTY0MEg0NDdsLTgwLTgwSDE2MHY0ODBsOTYtMzIwaDY4NEw4MzctMjE3cS04IDI2LTI5LjUgNDEuNVQ3NjAtMTYwSDE2MFptODQtODBoNTE2bDcyLTI0MEgzMTZsLTcyIDI0MFptMCAwIDcyLTI0MC03MiAyNDBabS04NC00MDB2LTgwIDgwWiIvPjwvc3ZnPg==" parent="mge3sgd14MNkz1HOkYxZ-3" vertex="1">
                    <mxGeometry x="8.117538461538487" y="10" width="23.838926174496645" height="23.838926174496645" as="geometry"/>
                </mxCell>
                <mxCell id="mge3sgd14MNkz1HOkYxZ-7" value="" style="group" parent="1" vertex="1" connectable="0">
                    <mxGeometry x="580" y="239" width="148" height="25" as="geometry"/>
                </mxCell>
                <mxCell id="mge3sgd14MNkz1HOkYxZ-5" value="&lt;b style=&quot;border-color: var(--border-color); color: rgb(0, 0, 0); text-align: center; font-size: 14px;&quot;&gt;docker command&lt;/b&gt;&lt;font color=&quot;#000000&quot;&gt;&lt;span style=&quot;font-size: 14px;&quot;&gt;&lt;b&gt;&lt;br&gt;&lt;/b&gt;&lt;/span&gt;&lt;/font&gt;" style="rounded=1;whiteSpace=wrap;html=1;sketch=1;fillStyle=auto;strokeColor=#000000;fontFamily=Comic Sans MS;fontColor=#006600;fillColor=default;arcSize=12;align=right;" parent="mge3sgd14MNkz1HOkYxZ-7" vertex="1">
                    <mxGeometry width="148" height="24" as="geometry"/>
                </mxCell>
                <mxCell id="VQOo7DmZkrZ01KClmoA2-86" value="" style="shape=image;verticalLabelPosition=bottom;verticalAlign=top;imageAspect=0;aspect=fixed;image=data:image/svg+xml,PHN2ZyB4bWxucz0iaHR0cDovL3d3dy53My5vcmcvMjAwMC9zdmciIHdpZHRoPSIyNCIgdmlld0JveD0iMCAtOTYwIDk2MCA5NjAiIGhlaWdodD0iMjQiPjxwYXRoIGQ9Ik0xNjAtMTYwcS0zMyAwLTU2LjUtMjMuNVQ4MC0yNDB2LTQ4MHEwLTMzIDIzLjUtNTYuNVQxNjAtODAwaDY0MHEzMyAwIDU2LjUgMjMuNVQ4ODAtNzIwdjQ4MHEwIDMzLTIzLjUgNTYuNVQ4MDAtMTYwSDE2MFptMC04MGg2NDB2LTQwMEgxNjB2NDAwWm0xNDAtNDAtNTYtNTYgMTAzLTEwNC0xMDQtMTA0IDU3LTU2IDE2MCAxNjAtMTYwIDE2MFptMTgwIDB2LTgwaDI0MHY4MEg0ODBaIi8+PC9zdmc+" parent="mge3sgd14MNkz1HOkYxZ-7" vertex="1">
                    <mxGeometry x="7.114285714285714" y="1" width="24" height="24" as="geometry"/>
                </mxCell>
                <mxCell id="mge3sgd14MNkz1HOkYxZ-8" value="" style="shape=flexArrow;endArrow=classic;html=1;fontSize=12;fontColor=#000000;fillColor=default;sketch=1;curveFitting=1;jiggle=2;width=15;" parent="1" edge="1">
                    <mxGeometry width="50" height="50" relative="1" as="geometry">
                        <mxPoint x="578" y="335.5" as="sourcePoint"/>
                        <mxPoint x="483" y="336" as="targetPoint"/>
                    </mxGeometry>
                </mxCell>
                <mxCell id="mge3sgd14MNkz1HOkYxZ-9" value="&lt;font face=&quot;Comic Sans MS&quot; style=&quot;font-size: 12px;&quot;&gt;&lt;b style=&quot;&quot;&gt;mount&lt;br style=&quot;font-size: 14px;&quot;&gt;&lt;/b&gt;&lt;/font&gt;" style="text;html=1;strokeColor=none;fillColor=none;align=center;verticalAlign=middle;whiteSpace=wrap;rounded=0;fontSize=14;" parent="1" vertex="1">
                    <mxGeometry x="507" y="329" width="49" height="10" as="geometry"/>
                </mxCell>
                <mxCell id="mge3sgd14MNkz1HOkYxZ-12" value="" style="shape=flexArrow;endArrow=classic;html=1;fontSize=12;fontColor=#000000;fillColor=default;sketch=1;curveFitting=1;jiggle=2;width=15;" parent="1" edge="1">
                    <mxGeometry width="50" height="50" relative="1" as="geometry">
                        <mxPoint x="580" y="268" as="sourcePoint"/>
                        <mxPoint x="487" y="308" as="targetPoint"/>
                    </mxGeometry>
                </mxCell>
                <mxCell id="mge3sgd14MNkz1HOkYxZ-13" value="&lt;font face=&quot;Comic Sans MS&quot; style=&quot;font-size: 12px;&quot;&gt;&lt;b style=&quot;&quot;&gt;docker run&lt;br style=&quot;font-size: 14px;&quot;&gt;&lt;/b&gt;&lt;/font&gt;" style="text;html=1;strokeColor=none;fillColor=none;align=center;verticalAlign=middle;whiteSpace=wrap;rounded=0;fontSize=14;rotation=337;" parent="1" vertex="1">
                    <mxGeometry x="502" y="279" width="70" height="13" as="geometry"/>
                </mxCell>
                <mxCell id="mge3sgd14MNkz1HOkYxZ-14" value="" style="group" parent="1" vertex="1" connectable="0">
                    <mxGeometry x="682" y="-22" width="60" height="36" as="geometry"/>
                </mxCell>
                <mxCell id="mge3sgd14MNkz1HOkYxZ-15" value="&lt;font color=&quot;#ff3399&quot; face=&quot;Comic Sans MS&quot;&gt;&lt;b&gt;Developer&lt;/b&gt;&lt;/font&gt;" style="text;html=1;strokeColor=none;fillColor=none;align=center;verticalAlign=middle;whiteSpace=wrap;rounded=0;" parent="mge3sgd14MNkz1HOkYxZ-14" vertex="1">
                    <mxGeometry y="20" width="60" height="16" as="geometry"/>
                </mxCell>
                <mxCell id="mge3sgd14MNkz1HOkYxZ-16" value="" style="shape=image;verticalLabelPosition=bottom;verticalAlign=top;imageAspect=0;aspect=fixed;image=data:image/svg+xml,PHN2ZyB4bWxucz0iaHR0cDovL3d3dy53My5vcmcvMjAwMC9zdmciIHdpZHRoPSIyNCIgdmlld0JveD0iMCAtOTYwIDk2MCA5NjAiIGhlaWdodD0iMjQiPjxwYXRoIGQ9Ik00ODAtNDgwcS02NiAwLTExMy00N3QtNDctMTEzcTAtNjYgNDctMTEzdDExMy00N3E2NiAwIDExMyA0N3Q0NyAxMTNxMCA2Ni00NyAxMTN0LTExMyA0N1pNMTYwLTI0MHYtMzJxMC0zNCAxNy41LTYyLjVUMjI0LTM3OHE2Mi0zMSAxMjYtNDYuNVQ0ODAtNDQwcTY2IDAgMTMwIDE1LjVUNzM2LTM3OHEyOSAxNSA0Ni41IDQzLjVUODAwLTI3MnYzMnEwIDMzLTIzLjUgNTYuNVQ3MjAtMTYwSDI0MHEtMzMgMC01Ni41LTIzLjVUMTYwLTI0MFoiIGZpbGw9IiNGRjMzOTkiLz48L3N2Zz4=" parent="mge3sgd14MNkz1HOkYxZ-14" vertex="1">
                    <mxGeometry x="18" width="24" height="24" as="geometry"/>
                </mxCell>
            </root>
        </mxGraphModel>
    </diagram>
    <diagram id="x2-JRQ57r-jYaplObxBF" name="container-docs">
        <mxGraphModel dx="645" dy="510" grid="1" gridSize="10" guides="1" tooltips="1" connect="1" arrows="1" fold="1" page="1" pageScale="1" pageWidth="827" pageHeight="1169" math="0" shadow="0">
            <root>
                <mxCell id="0"/>
                <mxCell id="1" parent="0"/>
                <mxCell id="D_tfbVVpdDIHlsLiOS5P-2" value="" style="group" parent="1" vertex="1" connectable="0">
                    <mxGeometry x="182.25" y="330" width="381.75" height="200" as="geometry"/>
                </mxCell>
                <mxCell id="yPNGxMv-UUAhzA4Ign7H-1" value="" style="rounded=1;whiteSpace=wrap;html=1;sketch=1;fontFamily=Comic Sans MS;fontSize=14;fontColor=#3333FF;" parent="D_tfbVVpdDIHlsLiOS5P-2" vertex="1">
                    <mxGeometry x="146.75" y="20" width="100" height="80" as="geometry"/>
                </mxCell>
                <mxCell id="yPNGxMv-UUAhzA4Ign7H-2" value="" style="rounded=1;whiteSpace=wrap;html=1;sketch=1;fontFamily=Comic Sans MS;fontSize=14;fontColor=#3333FF;" parent="D_tfbVVpdDIHlsLiOS5P-2" vertex="1">
                    <mxGeometry x="272.75" y="20" width="100" height="80" as="geometry"/>
                </mxCell>
                <mxCell id="yPNGxMv-UUAhzA4Ign7H-3" value="" style="rounded=1;whiteSpace=wrap;html=1;sketch=1;fontFamily=Comic Sans MS;fontSize=14;fontColor=#3333FF;" parent="D_tfbVVpdDIHlsLiOS5P-2" vertex="1">
                    <mxGeometry x="17.75" y="20" width="100" height="80" as="geometry"/>
                </mxCell>
                <mxCell id="yPNGxMv-UUAhzA4Ign7H-4" value="" style="shape=image;verticalLabelPosition=bottom;verticalAlign=top;imageAspect=0;aspect=fixed;image=data:image/svg+xml,PHN2ZyB4bWxucz0iaHR0cDovL3d3dy53My5vcmcvMjAwMC9zdmciIHdpZHRoPSIyNCIgdmlld0JveD0iMCAtOTYwIDk2MCA5NjAiIGhlaWdodD0iMjQiPjxwYXRoIGQ9Ik00NDAtMTgzdi0yNzRMMjAwLTU5NnYyNzRsMjQwIDEzOVptODAgMCAyNDAtMTM5di0yNzRMNTIwLTQ1N3YyNzRabS00MC0zNDMgMjM3LTEzNy0yMzctMTM3LTIzNyAxMzcgMjM3IDEzN1pNMTYwLTI1MnEtMTktMTEtMjkuNS0yOVQxMjAtMzIxdi0zMThxMC0yMiAxMC41LTQwdDI5LjUtMjlsMjgwLTE2MXExOS0xMSA0MC0xMXQ0MCAxMWwyODAgMTYxcTE5IDExIDI5LjUgMjl0MTAuNSA0MHYzMThxMCAyMi0xMC41IDQwVDgwMC0yNTJMNTIwLTkxcS0xOSAxMS00MCAxMXQtNDAtMTFMMTYwLTI1MlptMzIwLTIyOFoiLz48L3N2Zz4=;rounded=0;sketch=1;fontFamily=Comic Sans MS;fontSize=14;fontColor=#3333FF;" parent="D_tfbVVpdDIHlsLiOS5P-2" vertex="1">
                    <mxGeometry x="174.25" y="40" width="32" height="32" as="geometry"/>
                </mxCell>
                <mxCell id="yPNGxMv-UUAhzA4Ign7H-5" value="" style="shape=image;verticalLabelPosition=bottom;verticalAlign=top;imageAspect=0;aspect=fixed;image=data:image/svg+xml,PHN2ZyB4bWxucz0iaHR0cDovL3d3dy53My5vcmcvMjAwMC9zdmciIHdpZHRoPSIyNCIgdmlld0JveD0iMCAtOTYwIDk2MCA5NjAiIGhlaWdodD0iMjQiPjxwYXRoIGQ9Ik00NDAtMTgzdi0yNzRMMjAwLTU5NnYyNzRsMjQwIDEzOVptODAgMCAyNDAtMTM5di0yNzRMNTIwLTQ1N3YyNzRabS00MC0zNDMgMjM3LTEzNy0yMzctMTM3LTIzNyAxMzcgMjM3IDEzN1pNMTYwLTI1MnEtMTktMTEtMjkuNS0yOVQxMjAtMzIxdi0zMThxMC0yMiAxMC41LTQwdDI5LjUtMjlsMjgwLTE2MXExOS0xMSA0MC0xMXQ0MCAxMWwyODAgMTYxcTE5IDExIDI5LjUgMjl0MTAuNSA0MHYzMThxMCAyMi0xMC41IDQwVDgwMC0yNTJMNTIwLTkxcS0xOSAxMS00MCAxMXQtNDAtMTFMMTYwLTI1MlptMzIwLTIyOFoiLz48L3N2Zz4=;rounded=0;sketch=1;fontFamily=Comic Sans MS;fontSize=14;fontColor=#3333FF;" parent="D_tfbVVpdDIHlsLiOS5P-2" vertex="1">
                    <mxGeometry x="299.75" y="36.5" width="32" height="32" as="geometry"/>
                </mxCell>
                <mxCell id="yPNGxMv-UUAhzA4Ign7H-6" value="" style="shape=image;verticalLabelPosition=bottom;verticalAlign=top;imageAspect=0;aspect=fixed;image=data:image/svg+xml,PHN2ZyB4bWxucz0iaHR0cDovL3d3dy53My5vcmcvMjAwMC9zdmciIHdpZHRoPSIyNCIgdmlld0JveD0iMCAtOTYwIDk2MCA5NjAiIGhlaWdodD0iMjQiPjxwYXRoIGQ9Ik00NDAtMTgzdi0yNzRMMjAwLTU5NnYyNzRsMjQwIDEzOVptODAgMCAyNDAtMTM5di0yNzRMNTIwLTQ1N3YyNzRabS00MC0zNDMgMjM3LTEzNy0yMzctMTM3LTIzNyAxMzcgMjM3IDEzN1pNMTYwLTI1MnEtMTktMTEtMjkuNS0yOVQxMjAtMzIxdi0zMThxMC0yMiAxMC41LTQwdDI5LjUtMjlsMjgwLTE2MXExOS0xMSA0MC0xMXQ0MCAxMWwyODAgMTYxcTE5IDExIDI5LjUgMjl0MTAuNSA0MHYzMThxMCAyMi0xMC41IDQwVDgwMC0yNTJMNTIwLTkxcS0xOSAxMS00MCAxMXQtNDAtMTFMMTYwLTI1MlptMzIwLTIyOFoiLz48L3N2Zz4=;rounded=0;sketch=1;fontFamily=Comic Sans MS;fontSize=14;fontColor=#3333FF;" parent="D_tfbVVpdDIHlsLiOS5P-2" vertex="1">
                    <mxGeometry x="45.25" y="40" width="32" height="32" as="geometry"/>
                </mxCell>
                <mxCell id="yPNGxMv-UUAhzA4Ign7H-7" value="" style="shape=image;verticalLabelPosition=bottom;verticalAlign=top;imageAspect=0;image=data:image/svg+xml,PHN2ZyB4bWxucz0iaHR0cDovL3d3dy53My5vcmcvMjAwMC9zdmciIHdpZHRoPSIyNCIgdmlld0JveD0iMCAtOTYwIDk2MCA5NjAiIGhlaWdodD0iMjQiPjxwYXRoIGQ9Ik00ODAtMTIwcS0xNTEgMC0yNTUuNS00Ni41VDEyMC0yODB2LTQwMHEwLTY2IDEwNS41LTExM1Q0ODAtODQwcTE0OSAwIDI1NC41IDQ3VDg0MC02ODB2NDAwcTAgNjctMTA0LjUgMTEzLjVUNDgwLTEyMFptMC00NzlxODkgMCAxNzktMjUuNVQ3NjAtNjc5cS0xMS0yOS0xMDAuNS01NVQ0ODAtNzYwcS05MSAwLTE3OC41IDI1LjVUMjAwLTY3OXExNCAzMCAxMDEuNSA1NVQ0ODAtNTk5Wm0wIDE5OXE0MiAwIDgxLTR0NzQuNS0xMS41cTM1LjUtNy41IDY3LTE4LjV0NTcuNS0yNXYtMTIwcS0yNiAxNC01Ny41IDI1dC02NyAxOC41UTYwMC01MjggNTYxLTUyNHQtODEgNHEtNDIgMC04Mi00dC03NS41LTExLjVRMjg3LTU0MyAyNTYtNTU0dC01Ni0yNXYxMjBxMjUgMTQgNTYgMjV0NjYuNSAxOC41UTM1OC00MDggMzk4LTQwNHQ4MiA0Wm0wIDIwMHE0NiAwIDkzLjUtN3Q4Ny41LTE4LjVxNDAtMTEuNSA2Ny0yNnQzMi0yOS41di05OHEtMjYgMTQtNTcuNSAyNXQtNjcgMTguNVE2MDAtMzI4IDU2MS0zMjR0LTgxIDRxLTQyIDAtODItNHQtNzUuNS0xMS41UTI4Ny0zNDMgMjU2LTM1NHQtNTYtMjV2OTlxNSAxNSAzMS41IDI5dDY2LjUgMjUuNXE0MCAxMS41IDg4IDE4LjV0OTQgN1oiLz48L3N2Zz4=" parent="D_tfbVVpdDIHlsLiOS5P-2" vertex="1">
                    <mxGeometry x="66.25" y="24" width="24" height="32" as="geometry"/>
                </mxCell>
                <mxCell id="yPNGxMv-UUAhzA4Ign7H-8" value="" style="shape=image;verticalLabelPosition=bottom;verticalAlign=top;imageAspect=0;aspect=fixed;image=data:image/svg+xml,PHN2ZyB4bWxucz0iaHR0cDovL3d3dy53My5vcmcvMjAwMC9zdmciIHdpZHRoPSIyNCIgdmlld0JveD0iMCAtOTYwIDk2MCA5NjAiIGhlaWdodD0iMjQiPjxwYXRoIGQ9Ik0xNjAtMTYwcS0zMyAwLTU2LjUtMjMuNVQ4MC0yNDB2LTQ4MHEwLTMzIDIzLjUtNTYuNVQxNjAtODAwaDY0MHEzMyAwIDU2LjUgMjMuNVQ4ODAtNzIwdjQ4MHEwIDMzLTIzLjUgNTYuNVQ4MDAtMTYwSDE2MFptMzIwLTI4MEwxNjAtNjQwdjQwMGg2NDB2LTQwMEw0ODAtNDQwWm0wLTgwIDMyMC0yMDBIMTYwbDMyMCAyMDBaTTE2MC02NDB2LTgwIDQ4MC00MDBaIi8+PC9zdmc+" parent="D_tfbVVpdDIHlsLiOS5P-2" vertex="1">
                    <mxGeometry x="321.75" y="27.5" width="24" height="24" as="geometry"/>
                </mxCell>
                <mxCell id="yPNGxMv-UUAhzA4Ign7H-9" value="" style="shape=image;verticalLabelPosition=bottom;verticalAlign=top;imageAspect=0;aspect=fixed;image=data:image/svg+xml,PHN2ZyB4bWxucz0iaHR0cDovL3d3dy53My5vcmcvMjAwMC9zdmciIHdpZHRoPSIyNCIgdmlld0JveD0iMCAtOTYwIDk2MCA5NjAiIGhlaWdodD0iMjQiPjxwYXRoIGQ9Ik0xNjAtMTYwcS0zMyAwLTU2LjUtMjMuNVQ4MC0yNDB2LTQ4MHEwLTMzIDIzLjUtNTYuNVQxNjAtODAwaDY0MHEzMyAwIDU2LjUgMjMuNVQ4ODAtNzIwdjQ4MHEwIDMzLTIzLjUgNTYuNVQ4MDAtMTYwSDE2MFptMC04MGg2NDB2LTQwMEgxNjB2NDAwWiIvPjwvc3ZnPg==;rounded=0;sketch=1;fontFamily=Comic Sans MS;fontSize=14;fontColor=#3333FF;" parent="D_tfbVVpdDIHlsLiOS5P-2" vertex="1">
                    <mxGeometry x="195.25" y="31" width="24" height="24" as="geometry"/>
                </mxCell>
                <mxCell id="yPNGxMv-UUAhzA4Ign7H-10" value="" style="shape=image;verticalLabelPosition=bottom;verticalAlign=top;imageAspect=0;aspect=fixed;image=data:image/svg+xml,PHN2ZyB4bWxucz0iaHR0cDovL3d3dy53My5vcmcvMjAwMC9zdmciIHdpZHRoPSIyNCIgdmlld0JveD0iMCAtOTYwIDk2MCA5NjAiIGhlaWdodD0iMjQiPjxwYXRoIGQ9Im0zNzAtODAtMTYtMTI4cS0xMy01LTI0LjUtMTJUMzA3LTIzNWwtMTE5IDUwTDc4LTM3NWwxMDMtNzhxLTEtNy0xLTEzLjV2LTI3cTAtNi41IDEtMTMuNUw3OC01ODVsMTEwLTE5MCAxMTkgNTBxMTEtOCAyMy0xNXQyNC0xMmwxNi0xMjhoMjIwbDE2IDEyOHExMyA1IDI0LjUgMTJ0MjIuNSAxNWwxMTktNTAgMTEwIDE5MC0xMDMgNzhxMSA3IDEgMTMuNXYyN3EwIDYuNS0yIDEzLjVsMTAzIDc4LTExMCAxOTAtMTE4LTUwcS0xMSA4LTIzIDE1dC0yNCAxMkw1OTAtODBIMzcwWm0xMTItMjYwcTU4IDAgOTktNDF0NDEtOTlxMC01OC00MS05OXQtOTktNDFxLTU5IDAtOTkuNSA0MVQzNDItNDgwcTAgNTggNDAuNSA5OXQ5OS41IDQxWiIvPjwvc3ZnPg==;rounded=0;sketch=1;fontFamily=Comic Sans MS;fontSize=14;fontColor=#3333FF;" parent="D_tfbVVpdDIHlsLiOS5P-2" vertex="1">
                    <mxGeometry x="201.25" y="38" width="12" height="12" as="geometry"/>
                </mxCell>
                <mxCell id="yPNGxMv-UUAhzA4Ign7H-11" value="&lt;font size=&quot;1&quot; face=&quot;Comic Sans MS&quot;&gt;&lt;b style=&quot;font-size: 14px;&quot;&gt;Database&lt;/b&gt;&lt;/font&gt;" style="text;html=1;strokeColor=none;fillColor=none;align=center;verticalAlign=middle;whiteSpace=wrap;rounded=0;" parent="D_tfbVVpdDIHlsLiOS5P-2" vertex="1">
                    <mxGeometry x="37.75" y="70" width="60" height="30" as="geometry"/>
                </mxCell>
                <mxCell id="yPNGxMv-UUAhzA4Ign7H-12" value="&lt;font size=&quot;1&quot; face=&quot;Comic Sans MS&quot;&gt;&lt;b style=&quot;font-size: 14px;&quot;&gt;Mail Server&lt;/b&gt;&lt;/font&gt;" style="text;html=1;strokeColor=none;fillColor=none;align=center;verticalAlign=middle;whiteSpace=wrap;rounded=0;" parent="D_tfbVVpdDIHlsLiOS5P-2" vertex="1">
                    <mxGeometry x="277.75" y="70" width="90" height="30" as="geometry"/>
                </mxCell>
                <mxCell id="yPNGxMv-UUAhzA4Ign7H-13" value="&lt;font size=&quot;1&quot; face=&quot;Comic Sans MS&quot;&gt;&lt;b style=&quot;font-size: 14px;&quot;&gt;app&lt;/b&gt;&lt;/font&gt;" style="text;html=1;strokeColor=none;fillColor=none;align=center;verticalAlign=middle;whiteSpace=wrap;rounded=0;" parent="D_tfbVVpdDIHlsLiOS5P-2" vertex="1">
                    <mxGeometry x="151.75" y="70" width="90" height="30" as="geometry"/>
                </mxCell>
                <mxCell id="yPNGxMv-UUAhzA4Ign7H-14" value="" style="endArrow=none;html=1;fontFamily=Comic Sans MS;fontSize=14;" parent="D_tfbVVpdDIHlsLiOS5P-2" edge="1">
                    <mxGeometry width="50" height="50" relative="1" as="geometry">
                        <mxPoint x="67.25" y="140" as="sourcePoint"/>
                        <mxPoint x="322.75" y="140" as="targetPoint"/>
                    </mxGeometry>
                </mxCell>
                <mxCell id="yPNGxMv-UUAhzA4Ign7H-15" value="" style="endArrow=none;html=1;fontFamily=Comic Sans MS;fontSize=14;exitX=0.5;exitY=1;exitDx=0;exitDy=0;" parent="D_tfbVVpdDIHlsLiOS5P-2" source="yPNGxMv-UUAhzA4Ign7H-11" edge="1">
                    <mxGeometry width="50" height="50" relative="1" as="geometry">
                        <mxPoint x="76.25" y="150" as="sourcePoint"/>
                        <mxPoint x="67.75" y="140" as="targetPoint"/>
                    </mxGeometry>
                </mxCell>
                <mxCell id="yPNGxMv-UUAhzA4Ign7H-16" value="" style="endArrow=none;html=1;fontFamily=Comic Sans MS;fontSize=14;exitX=0.5;exitY=1;exitDx=0;exitDy=0;" parent="D_tfbVVpdDIHlsLiOS5P-2" edge="1">
                    <mxGeometry width="50" height="50" relative="1" as="geometry">
                        <mxPoint x="322.75" y="100" as="sourcePoint"/>
                        <mxPoint x="322.75" y="140" as="targetPoint"/>
                    </mxGeometry>
                </mxCell>
                <mxCell id="yPNGxMv-UUAhzA4Ign7H-17" value="" style="endArrow=none;html=1;fontFamily=Comic Sans MS;fontSize=14;exitX=0.5;exitY=1;exitDx=0;exitDy=0;entryX=0.5;entryY=0;entryDx=0;entryDy=0;" parent="D_tfbVVpdDIHlsLiOS5P-2" edge="1">
                    <mxGeometry width="50" height="50" relative="1" as="geometry">
                        <mxPoint x="196.75" y="100" as="sourcePoint"/>
                        <mxPoint x="196.75" y="170" as="targetPoint"/>
                    </mxGeometry>
                </mxCell>
                <mxCell id="yPNGxMv-UUAhzA4Ign7H-18" value="&lt;b&gt;Docker Compose&lt;/b&gt;" style="rounded=1;whiteSpace=wrap;html=1;fontFamily=Comic Sans MS;fontSize=14;arcSize=50;sketch=1;curveFitting=1;jiggle=2;" parent="D_tfbVVpdDIHlsLiOS5P-2" vertex="1">
                    <mxGeometry x="11.75" y="170" width="370" height="30" as="geometry"/>
                </mxCell>
                <mxCell id="yPNGxMv-UUAhzA4Ign7H-19" value="&lt;span style=&quot;font-size: 12px;&quot;&gt;&lt;b&gt;5432:5432&lt;/b&gt;&lt;/span&gt;" style="rounded=0;whiteSpace=wrap;html=1;sketch=1;fontFamily=Comic Sans MS;fontSize=14;" parent="D_tfbVVpdDIHlsLiOS5P-2" vertex="1">
                    <mxGeometry x="32.5" y="110" width="70.5" height="20" as="geometry"/>
                </mxCell>
                <mxCell id="yPNGxMv-UUAhzA4Ign7H-20" value="&lt;span style=&quot;font-size: 12px;&quot;&gt;&lt;b&gt;3000:3000&lt;/b&gt;&lt;/span&gt;" style="rounded=0;whiteSpace=wrap;html=1;sketch=1;fontFamily=Comic Sans MS;fontSize=14;" parent="D_tfbVVpdDIHlsLiOS5P-2" vertex="1">
                    <mxGeometry x="161.5" y="110" width="70.5" height="20" as="geometry"/>
                </mxCell>
                <mxCell id="yPNGxMv-UUAhzA4Ign7H-21" value="&lt;span style=&quot;font-size: 12px;&quot;&gt;&lt;b&gt;1025:1025&lt;/b&gt;&lt;/span&gt;" style="rounded=0;whiteSpace=wrap;html=1;sketch=1;fontFamily=Comic Sans MS;fontSize=14;" parent="D_tfbVVpdDIHlsLiOS5P-2" vertex="1">
                    <mxGeometry x="287.5" y="110" width="70.5" height="20" as="geometry"/>
                </mxCell>
                <mxCell id="yPNGxMv-UUAhzA4Ign7H-22" value="&lt;font size=&quot;1&quot; face=&quot;Comic Sans MS&quot;&gt;&lt;b style=&quot;font-size: 14px;&quot;&gt;Port&lt;/b&gt;&lt;/font&gt;" style="text;html=1;strokeColor=none;fillColor=none;align=center;verticalAlign=middle;whiteSpace=wrap;rounded=0;" parent="D_tfbVVpdDIHlsLiOS5P-2" vertex="1">
                    <mxGeometry y="100" width="32.5" height="20" as="geometry"/>
                </mxCell>
                <mxCell id="yPNGxMv-UUAhzA4Ign7H-23" value="&lt;font size=&quot;1&quot; face=&quot;Comic Sans MS&quot;&gt;&lt;b style=&quot;font-size: 14px;&quot;&gt;Port&lt;/b&gt;&lt;/font&gt;" style="text;html=1;strokeColor=none;fillColor=none;align=center;verticalAlign=middle;whiteSpace=wrap;rounded=0;" parent="D_tfbVVpdDIHlsLiOS5P-2" vertex="1">
                    <mxGeometry x="129" y="100" width="32.5" height="20" as="geometry"/>
                </mxCell>
                <mxCell id="yPNGxMv-UUAhzA4Ign7H-24" value="&lt;font size=&quot;1&quot; face=&quot;Comic Sans MS&quot;&gt;&lt;b style=&quot;font-size: 14px;&quot;&gt;Port&lt;/b&gt;&lt;/font&gt;" style="text;html=1;strokeColor=none;fillColor=none;align=center;verticalAlign=middle;whiteSpace=wrap;rounded=0;" parent="D_tfbVVpdDIHlsLiOS5P-2" vertex="1">
                    <mxGeometry x="255" y="100" width="32.5" height="20" as="geometry"/>
                </mxCell>
                <mxCell id="yPNGxMv-UUAhzA4Ign7H-25" value="&lt;font face=&quot;Comic Sans MS&quot;&gt;&lt;span style=&quot;font-size: 14px;&quot;&gt;&lt;b&gt;Container&lt;/b&gt;&lt;/span&gt;&lt;/font&gt;" style="text;html=1;strokeColor=none;fillColor=none;align=center;verticalAlign=middle;whiteSpace=wrap;rounded=0;" parent="D_tfbVVpdDIHlsLiOS5P-2" vertex="1">
                    <mxGeometry x="166.75" width="60" height="20" as="geometry"/>
                </mxCell>
                <mxCell id="yPNGxMv-UUAhzA4Ign7H-26" value="&lt;font face=&quot;Comic Sans MS&quot;&gt;&lt;span style=&quot;font-size: 14px;&quot;&gt;&lt;b&gt;Container&lt;/b&gt;&lt;/span&gt;&lt;/font&gt;" style="text;html=1;strokeColor=none;fillColor=none;align=center;verticalAlign=middle;whiteSpace=wrap;rounded=0;" parent="D_tfbVVpdDIHlsLiOS5P-2" vertex="1">
                    <mxGeometry x="37.75" width="60" height="20" as="geometry"/>
                </mxCell>
                <mxCell id="yPNGxMv-UUAhzA4Ign7H-27" value="&lt;font face=&quot;Comic Sans MS&quot;&gt;&lt;span style=&quot;font-size: 14px;&quot;&gt;&lt;b&gt;Container&lt;/b&gt;&lt;/span&gt;&lt;/font&gt;" style="text;html=1;strokeColor=none;fillColor=none;align=center;verticalAlign=middle;whiteSpace=wrap;rounded=0;" parent="D_tfbVVpdDIHlsLiOS5P-2" vertex="1">
                    <mxGeometry x="292.75" width="60" height="20" as="geometry"/>
                </mxCell>
                <mxCell id="yPNGxMv-UUAhzA4Ign7H-28" value="&lt;font size=&quot;1&quot; face=&quot;Comic Sans MS&quot;&gt;&lt;b style=&quot;font-size: 14px;&quot;&gt;1&lt;/b&gt;&lt;/font&gt;" style="text;html=1;strokeColor=none;fillColor=none;align=center;verticalAlign=middle;whiteSpace=wrap;rounded=0;" parent="D_tfbVVpdDIHlsLiOS5P-2" vertex="1">
                    <mxGeometry x="17.75" y="20" width="30" height="20" as="geometry"/>
                </mxCell>
                <mxCell id="yPNGxMv-UUAhzA4Ign7H-29" value="&lt;font size=&quot;1&quot; face=&quot;Comic Sans MS&quot;&gt;&lt;b style=&quot;font-size: 14px;&quot;&gt;2&lt;/b&gt;&lt;/font&gt;" style="text;html=1;strokeColor=none;fillColor=none;align=center;verticalAlign=middle;whiteSpace=wrap;rounded=0;" parent="D_tfbVVpdDIHlsLiOS5P-2" vertex="1">
                    <mxGeometry x="146.75" y="20" width="30" height="20" as="geometry"/>
                </mxCell>
                <mxCell id="yPNGxMv-UUAhzA4Ign7H-30" value="&lt;font size=&quot;1&quot; face=&quot;Comic Sans MS&quot;&gt;&lt;b style=&quot;font-size: 14px;&quot;&gt;3&lt;/b&gt;&lt;/font&gt;" style="text;html=1;strokeColor=none;fillColor=none;align=center;verticalAlign=middle;whiteSpace=wrap;rounded=0;" parent="D_tfbVVpdDIHlsLiOS5P-2" vertex="1">
                    <mxGeometry x="272.75" y="20" width="30" height="20" as="geometry"/>
                </mxCell>
                <mxCell id="D_tfbVVpdDIHlsLiOS5P-1" value="" style="shape=image;verticalLabelPosition=bottom;verticalAlign=top;imageAspect=0;aspect=fixed;image=data:image/svg+xml,PHN2ZyB4bWxucz0iaHR0cDovL3d3dy53My5vcmcvMjAwMC9zdmciIHdpZHRoPSIyNCIgdmlld0JveD0iMCAtOTYwIDk2MCA5NjAiIGhlaWdodD0iMjQiPjxwYXRoIGQ9Ik0yNDAtODBxLTMzIDAtNTYuNS0yMy41VDE2MC0xNjB2LTY0MHEwLTMzIDIzLjUtNTYuNVQyNDAtODgwaDMyMGwyNDAgMjQwdjQ4MHEwIDMzLTIzLjUgNTYuNVQ3MjAtODBIMjQwWm0yODAtNTIwdi0yMDBIMjQwdjY0MGg0ODB2LTQ0MEg1MjBaTTI0MC04MDB2MjAwLTIwMCA2NDAtNjQwWiIvPjwvc3ZnPg==;fillStyle=solid;strokeColor=#7F00FF;fontFamily=Comic Sans MS;fontColor=#006600;fillColor=#006600;" parent="D_tfbVVpdDIHlsLiOS5P-2" vertex="1">
                    <mxGeometry x="117.75" y="173" width="24" height="24" as="geometry"/>
                </mxCell>
            </root>
        </mxGraphModel>
    </diagram>
    <diagram id="ANAPxXUoX37xPO6NWk6_" name="ページ5">
        <mxGraphModel dx="1556" dy="1025" grid="1" gridSize="10" guides="1" tooltips="1" connect="1" arrows="1" fold="1" page="1" pageScale="1" pageWidth="827" pageHeight="1169" math="0" shadow="0">
            <root>
                <mxCell id="0"/>
                <mxCell id="1" parent="0"/>
                <mxCell id="MRk_ZylTCQgsaTDmGBeU-1" value="" style="shape=image;verticalLabelPosition=bottom;verticalAlign=top;imageAspect=0;aspect=fixed;image=data:image/svg+xml,PHN2ZyB4bWxucz0iaHR0cDovL3d3dy53My5vcmcvMjAwMC9zdmciIHdpZHRoPSI2NCIgdmlld0JveD0iMCAwIDI1LjYgMjUuNiIgaGVpZ2h0PSI2NCI+PHN0eWxlPi5Ce3N0cm9rZS1saW5lY2FwOnJvdW5kfS5De3N0cm9rZS1saW5lam9pbjpyb3VuZH0uRHtzdHJva2UtbGluZWpvaW46bWl0ZXJ9LkV7c3Ryb2tlLXdpZHRoOi43MTZ9PC9zdHlsZT48ZyBzdHJva2U9IiNmZmYiIGZpbGw9Im5vbmUiPjxwYXRoIGNsYXNzPSJEIiBzdHJva2Utd2lkdGg9IjIuMTQ5IiBzdHJva2UtbGluZWNhcD0iYnV0dCIgc3Ryb2tlPSIjMDAwIiBmaWxsPSIjMDAwIiBkPSJNMTguOTgzIDE4LjYzNmMuMTYzLTEuMzU3LjExNC0xLjU1NSAxLjEyNC0xLjMzNmwuMjU3LjAyM2MuNzc3LjAzNSAxLjc5My0uMTI1IDIuNC0uNDAyIDEuMjg1LS41OTYgMi4wNDctMS41OTIuNzgtMS4zMy0yLjg5LjU5Ni0zLjEtLjM4My0zLjEtLjM4MyAzLjA1My00LjUzIDQuMzMtMTAuMjggMy4yMjctMTEuNjg3LTMuMDA0LTMuODQtOC4yMDUtMi4wMjQtOC4yOTItMS45NzZsLS4wMjguMDA1Yy0uNTctLjEyLTEuMi0uMTktMS45My0uMi0xLjMwOC0uMDItMi4zLjM0My0zLjA1NC45MTQgMCAwLTkuMjc3LTMuODIyLTguODQ2IDQuODA3LjA5MiAxLjgzNiAyLjYzIDEzLjkgNS42NiAxMC4yNUM4LjI5IDE1Ljk4NyA5LjM2IDE0Ljg2IDkuMzYgMTQuODZjLjUzLjM1MyAxLjE2Ny41MzMgMS44MzQuNDY4bC4wNTItLjA0NGEyLjAxIDIuMDEgMCAwIDAgLjAyMS41MThjLS43OC44NzItLjU1IDEuMDI1LTIuMTEgMS4zNDYtMS41NzguMzI1LS42NS45MDQtLjA0NiAxLjA1Ni43MzQuMTg0IDIuNDMyLjQ0NCAzLjU4LTEuMTYybC0uMDQ2LjE4M2MuMzA2LjI0NS4yODUgMS43Ni4zMyAyLjg0MnMuMTE2IDIuMDkzLjMzNyAyLjY4OC40OCAyLjEzIDIuNTMgMS43YzEuNzEzLS4zNjcgMy4wMjMtLjg5NiAzLjE0My01LjgxIi8+PHBhdGggc3Ryb2tlPSJub25lIiBmaWxsPSIjMzM2NzkxIiBkPSJNMjMuNTM1IDE1LjZjLTIuODkuNTk2LTMuMS0uMzgzLTMuMS0uMzgzIDMuMDUzLTQuNTMgNC4zMy0xMC4yOCAzLjIyOC0xMS42ODctMy4wMDQtMy44NC04LjIwNS0yLjAyMy04LjI5Mi0xLjk3NmwtLjAyOC4wMDVhMTAuMzEgMTAuMzEgMCAwIDAtMS45MjktLjIwMWMtMS4zMDgtLjAyLTIuMy4zNDMtMy4wNTQuOTE0IDAgMC05LjI3OC0zLjgyMi04Ljg0NiA0LjgwNy4wOTIgMS44MzYgMi42MyAxMy45IDUuNjYgMTAuMjVDOC4yOSAxNS45ODcgOS4zNiAxNC44NiA5LjM2IDE0Ljg2Yy41My4zNTMgMS4xNjcuNTMzIDEuODM0LjQ2OGwuMDUyLS4wNDRhMi4wMiAyLjAyIDAgMCAwIC4wMjEuNTE4Yy0uNzguODcyLS41NSAxLjAyNS0yLjExIDEuMzQ2LTEuNTc4LjMyNS0uNjUuOTA0LS4wNDYgMS4wNTYuNzM0LjE4NCAyLjQzMi40NDQgMy41OC0xLjE2MmwtLjA0Ni4xODNjLjMwNi4yNDUuNTIgMS41OTMuNDg0IDIuODE1cy0uMDYgMi4wNi4xOCAyLjcxNi40OCAyLjEzIDIuNTMgMS43YzEuNzEzLS4zNjcgMi42LTEuMzIgMi43MjUtMi45MDYuMDg4LTEuMTI4LjI4Ni0uOTYyLjMtMS45N2wuMTYtLjQ3OGMuMTgzLTEuNTMuMDMtMi4wMjMgMS4wODUtMS43OTNsLjI1Ny4wMjNjLjc3Ny4wMzUgMS43OTQtLjEyNSAyLjM5LS40MDIgMS4yODUtLjU5NiAyLjA0Ny0xLjU5Mi43OC0xLjMzeiIvPjxnIGNsYXNzPSJFIj48ZyBjbGFzcz0iQiI+PHBhdGggY2xhc3M9IkMiIGQ9Ik0xMi44MTQgMTYuNDY3Yy0uMDggMi44NDYuMDIgNS43MTIuMjk4IDYuNHMuODc1IDIuMDUgMi45MjYgMS42MTJjMS43MTMtLjM2NyAyLjMzNy0xLjA3OCAyLjYwNy0yLjY0N2wuNjMzLTUuMDE3TTEwLjM1NiAyLjJTMS4wNzItMS41OTYgMS41MDQgNy4wMzNjLjA5MiAxLjgzNiAyLjYzIDEzLjkgNS42NiAxMC4yNUM4LjI3IDE1Ljk1IDkuMjcgMTQuOTA3IDkuMjcgMTQuOTA3bTYuMS0xMy40Yy0uMzIuMSA1LjE2NC0yLjAwNSA4LjI4MiAxLjk3OCAxLjEgMS40MDctLjE3NSA3LjE1Ny0zLjIyOCAxMS42ODciLz48cGF0aCBzdHJva2UtbGluZWpvaW49ImJldmVsIiBkPSJNMjAuNDI1IDE1LjE3cy4yLjk4IDMuMS4zODJjMS4yNjctLjI2Mi41MDQuNzM0LS43OCAxLjMzLTEuMDU0LjQ5LTMuNDE4LjYxNS0zLjQ1Ny0uMDYtLjEtMS43NDUgMS4yNDQtMS4yMTUgMS4xNDctMS42NTItLjA4OC0uMzk0LS42OS0uNzgtMS4wODYtMS43NDQtLjM0Ny0uODQtNC43Ni03LjI5IDEuMjI0LTYuMzMzLjIyLS4wNDUtMS41Ni01LjctNy4xNi01Ljc4MlM3Ljk5IDguMTk2IDcuOTkgOC4xOTYiLz48L2c+PGcgY2xhc3M9IkMiPjxwYXRoIGQ9Ik0xMS4yNDcgMTUuNzY4Yy0uNzguODcyLS41NSAxLjAyNS0yLjExIDEuMzQ2LTEuNTc4LjMyNS0uNjUuOTA0LS4wNDYgMS4wNTYuNzM0LjE4NCAyLjQzMi40NDQgMy41OC0xLjE2My4zNS0uNDktLjAwMi0xLjI3LS40ODItMS40NjgtLjIzMi0uMDk2LS41NDItLjIxNi0uOTQuMjN6Ii8+PHBhdGggY2xhc3M9IkIiIGQ9Ik0xMS4xOTYgMTUuNzUzYy0uMDgtLjUxMy4xNjgtMS4xMjIuNDMzLTEuODM2LjM5OC0xLjA3IDEuMzE2LTIuMTQuNTgyLTUuNTM3LS41NDctMi41My00LjIyLS41MjctNC4yMi0uMTg0cy4xNjYgMS43NC0uMDYgMy4zNjVjLS4yOTcgMi4xMjIgMS4zNSAzLjkxNiAzLjI0NiAzLjczMyIvPjwvZz48L2c+PGcgY2xhc3M9IkQiIGZpbGw9IiNmZmYiPjxwYXRoIHN0cm9rZS13aWR0aD0iLjIzOSIgZD0iTTEwLjMyMiA4LjE0NWMtLjAxNy4xMTcuMjE1LjQzLjUxNi40NzJzLjU1OC0uMjAyLjU3NS0uMzItLjIxNS0uMjQ2LS41MTYtLjI4OC0uNTYuMDItLjU3NS4xMzZ6Ii8+PHBhdGggc3Ryb2tlLXdpZHRoPSIuMTE5IiBkPSJNMTkuNDg2IDcuOTA2Yy4wMTYuMTE3LS4yMTUuNDMtLjUxNi40NzJzLS41Ni0uMjAyLS41NzUtLjMyLjIxNS0uMjQ2LjUxNi0uMjg4LjU2LjAyLjU3NS4xMzZ6Ii8+PC9nPjxwYXRoIGNsYXNzPSJCIEMgRSIgZD0iTTIwLjU2MiA3LjA5NWMuMDUuOTItLjE5OCAxLjU0NS0uMjMgMi41MjQtLjA0NiAxLjQyMi42NzggMy4wNS0uNDEzIDQuNjgiLz48L2c+PC9zdmc+" vertex="1" parent="1">
                    <mxGeometry x="180" y="290" width="64" height="64" as="geometry"/>
                </mxCell>
                <mxCell id="MRk_ZylTCQgsaTDmGBeU-2" value="" style="shape=image;verticalLabelPosition=bottom;verticalAlign=top;imageAspect=0;aspect=fixed;image=data:image/svg+xml,PHN2ZyB4bWxuczp4bGluaz0iaHR0cDovL3d3dy53My5vcmcvMTk5OS94bGluayIgeG1sbnM9Imh0dHA6Ly93d3cudzMub3JnLzIwMDAvc3ZnIiB2aWV3Qm94PSIwIDAgMzIgMzIiIGhlaWdodD0iNjQiIHdpZHRoPSI2NCI+PGRlZnM+PGNsaXBQYXRoIGlkPSJBIj48cGF0aCBkPSJNNzYgMnY0Nkg1NHYyM0gzNS41OGwtLjIwNiAyYy0xLjE1IDEyLjUzIDEuMDM2IDI0LjA4OCA2LjA2MyAzMy45N2wxLjY4OCAzLjAzYzEgMS44MTcgMi4yIDMuNTIzIDMuNDM4IDUuMTg4czEuNjg2IDIuNTgzIDIuNDcgMy42ODhDNjIuMzIgMTMzLjggODIuMTMgMTQxIDEwNSAxNDFjNTAuNjQ4IDAgOTMuNjMzLTIyLjQzOCAxMTIuNjU2LTcyLjg0NEMyMzEuMTUzIDY5LjU0IDI0NC4xIDY2LjA4IDI1MCA1NC41NjNjLTkuNC01LjQyNC0yMS40NzgtMy42ODUtMjguNDM3LS4xODdMMjQwIDJsLTcyIDQ2aC0yM1YyeiIvPjwvY2xpcFBhdGg+PC9kZWZzPjxnIHRyYW5zZm9ybT0ibWF0cml4KC42Nzk0MjMgMCAwIC42Nzk0MjMgLTIuMDg2MTQ5IDEzLjc4MTgxNykiPjxwYXRoIGZpbGw9IiMzOTRkNTQiIGQ9Ik0zMC4zMDUtMy41NTNoNC4yMjJWLjc2M2gyLjEzNWE5LjI2IDkuMjYgMCAwIDAgMi45MzQtLjQ5MmMuNDYtLjE1Ni45NzQtLjM3MiAxLjQyNi0uNjQ0LS41OTYtLjc3OC0uOS0xLjc2LTEtMi43My0uMTIyLTEuMzE3LjE0NC0zLjAzMiAxLjAzNi00LjA2M2wuNDQ0LS41MTMuNTMuNDI1YzEuMzMyIDEuMDcgMi40NTIgMi41NjUgMi42NSA0LjI3IDEuNjAzLS40NzIgMy40ODYtLjM2IDQuOS40NTZsLjU4LjMzNS0uMzA1LjU5NmMtMS4xODcgMi4zMy0zLjY4NyAzLjA1My02LjEzIDIuOTI1LTMuNjU2IDkuMTA1LTExLjYxNSAxMy40MTYtMjEuMjY1IDEzLjQxNi00Ljk4NiAwLTkuNTYtMS44NjQtMTIuMTY0LTYuMjg3LS4xNTMtLjI3NS0uMjgzLS41NjItLjQyMi0uODQ0LS44OC0xLjk0Ny0xLjE3My00LjA4LS45NzUtNi4ybC4wNi0uNjM4aDMuNlYtMy41NWg0LjIyMnYtNC4yMjJoOC40NDV2LTQuMjIyaDUuMDY3djguNDQ1Ii8+PGcgY2xpcC1wYXRoPSJ1cmwoI0EpIiB0cmFuc2Zvcm09Im1hdHJpeCguMTg0NjU5IDAgMCAuMTg0NjU5IDMuMDcwNDcyIC0xMS45OTc4NjQpIj48ZyBpZD0iQiI+PGcgdHJhbnNmb3JtPSJ0cmFuc2xhdGUoMCAtMjIuODY2KSIgaWQ9IkMiPjxwYXRoIGZpbGw9IiMwMGFjZDMiIGQ9Ik0xMjMuODYgMy44aDE5LjgxOHYxOS44MTdIMTIzLjg2eiIvPjxwYXRoIGZpbGw9IiMyMGMyZWYiIGQ9Ik0xMjMuODYgMjYuNjc2aDE5LjgxOHYxOS44MThIMTIzLjg2eiIvPjxwYXRoIHN0cm9rZS13aWR0aD0iMS41NiIgc3Ryb2tlPSIjMzk0ZDU0IiBkPSJNMTI2LjI5MiAyMS45NzdWNS40Nm0yLjk3MiAxNi41MTZWNS40Nm0zLjAwMiAxNi41MTZWNS40Nm0zLjAwMyAxNi41MTZWNS40Nm0zLjAwMyAxNi41MTZWNS40Nm0yLjk3IDE2LjUxNlY1LjQ2IiBpZD0iRCIvPjx1c2UgeT0iMjIuODY2IiB4bGluazpocmVmPSIjRCIvPjwvZz48dXNlIHRyYW5zZm9ybT0ibWF0cml4KDEgMCAwIC0xIDIyLjg2NiA0LjU3MjY1MSkiIHhsaW5rOmhyZWY9IiNDIi8+PC9nPjx1c2UgeT0iNDUuNzMyIiB4PSItOTEuNDY0IiB4bGluazpocmVmPSIjQiIvPjx1c2UgeT0iNDUuNzMyIiB4PSItNDUuNzMyIiB4bGluazpocmVmPSIjQiIvPjx1c2UgeT0iNDUuNzMyIiB4bGluazpocmVmPSIjQiIvPjxwYXRoIGZpbGw9IiMxN2I1ZWIiIGQ9Ik0yMjEuNTcgNTQuMzhjMS41MzMtMTEuOTE1LTcuMzg0LTIxLjI3NS0xMi45MTQtMjUuNzE4LTYuMzczIDcuMzY4LTcuMzYzIDI2LjY3OCAyLjYzNSAzNC44MDctNS41OCA0Ljk1Ni0xNy4zMzcgOS40NDgtMjkuMzc2IDkuNDQ4SDM0QzMyLjgzIDg1LjQ4NCAzNCAxNDYgMzQgMTQ2aDIxN2wtLjk4Ny05MS40MjRjLTkuNC01LjQyNC0yMS40ODQtMy42OTQtMjguNDQzLS4xOTciLz48cGF0aCBmaWxsLW9wYWNpdHk9Ii4xNyIgZD0iTTM0IDg5djU3aDIxN1Y4OSIvPjxwYXRoIGZpbGw9IiNkNGVkZjEiIGQ9Ik0xMTEuMjM3IDE0MC45Yy0xMy41NC02LjQyNS0yMC45NzItMTUuMTYtMjUuMTA3LTI0LjY5NEw0NSAxMThsMjEgMjggNDUuMjM3LTUuMSIvPjxwYXRoIGZpbGwtb3BhY2l0eT0iLjA4NSIgZD0iTTIyMi41IDUzLjkzOHYuMDNjLTIwLjg2IDI2LjktNTAuNzgzIDUwLjM4LTgyLjkwNiA2Mi43Mi0yOC42NTUgMTEuMDA4LTUzLjYzOCAxMS4wNi03MC44NzUgMi4yMi0xLjg1Ni0xLjA0OC0zLjY3Ni0yLjIxMi01LjUtMy4zMTItMTIuNjM3LTguODMyLTE5Ljc1NC0yMy40NC0xOS4xNTYtNDIuNjg3SDM0VjE0NmgyMTdWNTBoLTI1eiIvPjwvZz48cGF0aCBzdHJva2UtbGluZWNhcD0icm91bmQiIHN0cm9rZS13aWR0aD0iLjYyOCIgc3Ryb2tlPSIjMzk0ZDU0IiBmaWxsPSJub25lIiBkPSJNMTEuNDk2IDkuNjEzYzIuNjE2LjE0MyA1LjQwNy4xNyA3Ljg0Mi0uNTk0Ii8+PHBhdGggZmlsbD0iI2Q0ZWRmMSIgZD0iTTIxLjkzNyA3Ljc1M2ExLjAxIDEuMDEgMCAwIDEtMS4wMDkgMS4wMDkgMS4wMSAxLjAxIDAgMCAxLTEuMDEtMS4wMDkgMS4wMSAxLjAxIDAgMCAxIDEuMDEtMS4wMSAxLjAxIDEuMDEgMCAwIDEgMS4wMDkgMS4wMXoiLz48cGF0aCBmaWxsPSIjMzk0ZDU0IiBkPSJNMjEuMiA3LjA4Yy0uMDg4LjA1LS4xNDguMTQ2LS4xNDguMjU2IDAgLjE2My4xMzIuMjk1LjI5NS4yOTUuMTEyIDAgLjItLjA2Mi4yNi0uMTU0YS43My43MyAwIDAgMSAuMDU1LjI3N2MwIC40LS4zMjQuNzIzLS43MjMuNzIzcy0uNzIzLS4zMjQtLjcyMy0uNzIzLjMyNC0uNzIzLjcyMy0uNzIzYS43Mi43MiAwIDAgMSAuMjYyLjA0OXpNMy4wNyA0LjY1aDQ2Ljk2NGMtMS4wMjMtLjI2LTMuMjM1LS42LTIuODctMS45NS0xLjg2IDIuMTUyLTYuMzQ0IDEuNS03LjQ3NS40NDgtMS4yNiAxLjgyOC04LjU5NyAxLjEzMy05LjEwOC0uMy0xLjU4IDEuODU0LTYuNDc1IDEuODU0LTguMDU1IDAtLjUxMiAxLjQyNC03Ljg0OCAyLjEyLTkuMS4zQzEyLjI4NCA0LjIgNy44IDQuODUzIDUuOTQgMi43Yy4zNjUgMS4zNC0xLjg0OCAxLjctMi44NyAxLjk1Ii8+PC9nPjwvc3ZnPg==" vertex="1" parent="1">
                    <mxGeometry x="380" y="490" width="64" height="64" as="geometry"/>
                </mxCell>
                <mxCell id="MRk_ZylTCQgsaTDmGBeU-3" value="" style="shape=image;verticalLabelPosition=bottom;verticalAlign=top;imageAspect=0;aspect=fixed;image=data:image/svg+xml,PHN2ZyB4bWxucz0iaHR0cDovL3d3dy53My5vcmcvMjAwMC9zdmciIHZpZXdCb3g9IjAgMCAxMTIgMTA5IiBkYXRhLW5hbWU9IkxheWVyIDEiIGlkPSJMYXllcl8xIj48ZGVmcz48c3R5bGU+LmNscy0xe2ZpbGw6IzQ0OWZkODt9LmNscy0ye2ZpbGw6I2YwNGQ1Yzt9PC9zdHlsZT48L2RlZnM+PHBhdGggZD0iTTg4LjM0NSw1MS41NzRhMjUuMTk2MjQsMjUuMTk2MjQsMCwwLDAsMTQuMTc1LTE4LjUzQTUwLjk1MTE0LDUwLjk1MTE0LDAsMCwwLDcwLjA5NCw0Ljg1MWEzOC40NTM3LDM4LjQ1MzcsMCwwLDEsNi43NzEsMjQuMTdBMzIuNjI3MjUsMzIuNjI3MjUsMCwwLDEsODguMzQ1LDUxLjU3NFpNMjcuMjcsMzguNTQyQTI1LjE4NDMsMjUuMTg0MywwLDAsMCw1LjQxMiw0Ni41OTYsNTAuOTU3NjIsNTAuOTU3NjIsMCwwLDAsMTguMDk5LDg4LjE1OCwzOC44OTc3MiwzOC44OTc3MiwwLDAsMSwyNC45Myw2My42NzUsMzIuNjEsMzIuNjEsMCwwLDEsMjcuMjcsMzguNTQyWm01Ljc0LDM4LjM4NmEyNS4yMTcxOCwyNS4yMTcxOCwwLDAsMCwzLjY0MiwyNC4yMTUsNTEuMDYzMTMsNTEuMDYzMTMsMCwwLDAsMzguNjQzLS4wMzVBMzguNDY3LDM4LjQ2NywwLDAsMSw1NS40MDgsODYuMzc3LDMyLjQ5MzIzLDMyLjQ5MzIzLDAsMCwxLDMzLjAxLDc2LjkyOFpNNjMuMTIyLDIyLjIwMkEyNS4yMDEyNiwyNS4yMDEyNiwwLDAsMCw0Ny44OTIsMy40Nyw1MS4xMzM1MSw1MS4xMzM1MSwwLDAsMCwxMi43NiwyNi42MzFhMzguNzg1LDM4Ljc4NSwwLDAsMSwyNC41MjkuNjM5QTMyLjI3ODUyLDMyLjI3ODUyLDAsMCwxLDYzLjEyMiwyMi4yMDJaTTg1Ljg5MSw2Ni40NTdhMzIuNDAzNTQsMzIuNDAzNTQsMCwwLDEtMTUuNjc4LDE2LjYxLDI1LjM3MDcsMjUuMzcwNywwLDAsMCwyMi44NTIsNS44MzQsNTEuMTEzNDksNTEuMTEzNDksMCwwLDAsMTMuOS0zNS4wMDlBMzguNjYzMTUsMzguNjYzMTUsMCwwLDEsODUuODkxLDY2LjQ1N1oiIGNsYXNzPSJjbHMtMSIvPjxjaXJjbGUgcj0iMTUuOTcyIiBjeT0iNTMuODkyIiBjeD0iNTYuMDM1IiBjbGFzcz0iY2xzLTIiLz48L3N2Zz4=" vertex="1" parent="1">
                    <mxGeometry x="132" y="445" width="112" height="109" as="geometry"/>
                </mxCell>
                <mxCell id="MRk_ZylTCQgsaTDmGBeU-4" value="" style="shape=image;verticalLabelPosition=bottom;verticalAlign=top;imageAspect=0;aspect=fixed;image=data:image/svg+xml,PHN2ZyB4bWxuczp4bGluaz0iaHR0cDovL3d3dy53My5vcmcvMTk5OS94bGluayIgeG1sbnM9Imh0dHA6Ly93d3cudzMub3JnLzIwMDAvc3ZnIiB3aWR0aD0iNjQiIHZpZXdCb3g9IjAgMCAzMiAzMiIgaGVpZ2h0PSI2NCI+PGcgdHJhbnNmb3JtPSJtYXRyaXgoLjg0ODMyNyAwIDAgLjg0ODMyNyAtNy44ODM1NzMgLTkuNDQ5NjkxKSI+PHVzZSBmaWxsPSIjYTQxZTExIiB4bGluazpocmVmPSIjQiIvPjxwYXRoIGZpbGw9IiNkODJjMjAiIGQ9Ik00NS41MzYgMzQuOTVjLTIuMDEzIDEuMDUtMTIuNDQgNS4zMzctMTQuNjYgNi40OTRzLTMuNDUzIDEuMTQ2LTUuMjA3LjMwOC0xMi44NS01LjMyLTE0Ljg1LTYuMjc2LTIuMDQtMS42MTMtLjA3Ny0yLjM4MmwxNS4zMzItNS45MzZjMi4zMzItLjgzNiAzLjE0LS44NjcgNS4xMjYtLjE0UzQzLjU1IDMxLjg3IDQ1LjUxIDMyLjZzMi4wMzcgMS4zMS4wMjQgMi4zNnoiLz48dXNlIGZpbGw9IiNhNDFlMTEiIHk9Ii02LjIxOCIgeGxpbms6aHJlZj0iI0IiLz48dXNlIGZpbGw9IiNkODJjMjAiIHhsaW5rOmhyZWY9IiNDIi8+PHBhdGggZmlsbD0iI2E0MWUxMSIgZD0iTTQ1LjUzNiAyNi4wOThjLTIuMDEzIDEuMDUtMTIuNDQgNS4zMzctMTQuNjYgNi40OTVzLTMuNDUzIDEuMTQ2LTUuMjA3LjMwOC0xMi44NS01LjMyLTE0Ljg1LTYuMjc2Yy0xLS40NzgtMS41MjQtLjg4LTEuNTI0LTEuMjZWMjEuNTVzMTQuNDQ3LTMuMTQ1IDE2Ljc4LTMuOTgyIDMuMTQtLjg2NyA1LjEyNi0uMTQgMTMuODUzIDIuODY4IDE1LjgxNCAzLjU4N3YzLjc2YzAgLjM3Ny0uNDUyLjgtMS40NzcgMS4zMjR6Ii8+PHVzZSBmaWxsPSIjZDgyYzIwIiB5PSItNi40NDkiIHhsaW5rOmhyZWY9IiNDIi8+PGcgZmlsbD0iI2ZmZiI+PHBhdGggZD0iTTI5LjA5NiAyMC43MTJsLTEuMTgyLTEuOTY1LTMuNzc0LS4zNCAyLjgxNi0xLjAxNi0uODQ1LTEuNTYgMi42MzYgMS4wMyAyLjQ4Ni0uODE0LS42NzIgMS42MTIgMi41MzQuOTUtMy4yNjguMzR6TTIyLjggMjQuNjI0bDguNzQtMS4zNDItMi42NCAzLjg3MnoiLz48ZWxsaXBzZSBjeT0iMjEuNDAyIiByeT0iMS44MTEiIHJ4PSI0LjY3MiIgY3g9IjIwLjQ0NCIvPjwvZz48cGF0aCBmaWxsPSIjN2EwYzAwIiBkPSJNNDIuMTMyIDIxLjEzOGwtNS4xNyAyLjA0Mi0uMDA0LTQuMDg3eiIvPjxwYXRoIGZpbGw9IiNhZDIxMTUiIGQ9Ik0zNi45NjMgMjMuMThsLS41Ni4yMi01LjE2Ni0yLjA0MiA1LjcyMy0yLjI2NHoiLz48L2c+PGRlZnM+PHBhdGggZD0iTTQ1LjUzNiAzOC43NjRjLTIuMDEzIDEuMDUtMTIuNDQgNS4zMzctMTQuNjYgNi40OTRzLTMuNDUzIDEuMTQ2LTUuMjA3LjMwOC0xMi44NS01LjMyLTE0Ljg1LTYuMjc2Yy0xLS40NzgtMS41MjQtLjg4LTEuNTI0LTEuMjZ2LTMuODEzczE0LjQ0Ny0zLjE0NSAxNi43OC0zLjk4MiAzLjE0LS44NjcgNS4xMjYtLjE0IDEzLjg1MyAyLjg2OCAxNS44MTQgMy41ODd2My43NmMwIC4zNzctLjQ1Mi44LTEuNDc3IDEuMzI0eiIgaWQ9IkIiLz48cGF0aCBkPSJNNDUuNTM2IDI4LjczM2MtMi4wMTMgMS4wNS0xMi40NCA1LjMzNy0xNC42NiA2LjQ5NHMtMy40NTMgMS4xNDYtNS4yMDcuMzA4LTEyLjg1LTUuMzItMTQuODUtNi4yNzYtMi4wNC0xLjYxMy0uMDc3LTIuMzgybDE1LjMzMi01LjkzNWMyLjMzMi0uODM3IDMuMTQtLjg2NyA1LjEyNi0uMTRzMTIuMzUgNC44NTMgMTQuMzEyIDUuNTcgMi4wMzcgMS4zMS4wMjQgMi4zNnoiIGlkPSJDIi8+PC9kZWZzPjwvc3ZnPg==" vertex="1" parent="1">
                    <mxGeometry x="380" y="490" width="64" height="64" as="geometry"/>
                </mxCell>
                <mxCell id="MRk_ZylTCQgsaTDmGBeU-5" value="" style="shape=image;verticalLabelPosition=bottom;verticalAlign=top;imageAspect=0;aspect=fixed;image=data:image/svg+xml,PHN2ZyB4bWxucz0iaHR0cDovL3d3dy53My5vcmcvMjAwMC9zdmciIGlkPSJzdmc2IiB2ZXJzaW9uPSIxLjEiIHZpZXdCb3g9IjAgMCAxMzIuMjkyIDEyMS43MDgiIGhlaWdodD0iNDYwIiB3aWR0aD0iNTAwIj4KICA8ZGVmcyBpZD0iZGVmczEwIi8+CiAgPHBhdGggc3R5bGU9ImZpbGw6I2ZmZmZmZjtmaWxsLW9wYWNpdHk6MSIgaWQ9InBhdGgyIiBmaWxsPSIjMmQ0YTVmIiBmaWxsLW9wYWNpdHk9Ii45NDEiIGQ9Ik0xMi4zMjEgMGw1My44NjEgNTMuOTE4TDEyMC4zNjUgMHpNNS4xNTUgOS4wMjVsNjAuODQyIDU5LjY3MyA2MS4yMTEtNTkuNDg5LS4xODUgMzYuODM1TDY2LjkyMSA3MC41NGwxNS4xNjQgMTIuNjE2LTguMTM3IDUuOTg2LTQxLjYwOS4xODRjLTQuODM4LS4wMjItMjUuODc3LTE4LjM0LTI3LjE4NS00MS4yNTV6Ii8+CiAgPHBhdGggaWQ9InBhdGg0IiBmaWxsPSIjMDBiNzg2IiBkPSJNNzguMzg1IDcyLjA0OWw1My45MDctMjEuNjc5LTguMDMxIDU3LjMxOC0xMS44NDUtOS4xMzJjLTIxLjcyNyAyMy4xNzEtNDUuMjU1IDI2LjI4OS02Ny45OTcgMjAuODM3UzEyLjI4MSA5OC4zOSA1LjE1NSA4My44LS42NyA1My4xMTYgMi44NDMgMzguNzY5YzEuMTMgMTAuNTExLTEuMzEzIDE2LjMxNiA2LjM4IDMzLjYxMiA2LjMxIDExLjM5OSAxNC40MTMgMjAuNDE3IDI1Ljg5IDI0Ljk1NiAxMy45IDYuMTk1IDMyLjI0NyAzLjM1NyA0MS43MDEtMy4wMzlsMTQuMjQtMTIuMTU2eiIvPgo8L3N2Zz4=" vertex="1" parent="1">
                    <mxGeometry x="337" y="290" width="76.09" height="70" as="geometry"/>
                </mxCell>
                <mxCell id="MRk_ZylTCQgsaTDmGBeU-6" value="" style="shape=image;verticalLabelPosition=bottom;verticalAlign=top;imageAspect=0;aspect=fixed;image=data:image/svg+xml,PHN2ZyB4bWxucz0iaHR0cDovL3d3dy53My5vcmcvMjAwMC9zdmciIHZlcnNpb249IjEuMSIgdmlld0JveD0iMCAwIDEwMjQgMTAyNCIgc3R5bGU9IndpZHRoOiAxZW07IGhlaWdodDogMWVtO3ZlcnRpY2FsLWFsaWduOiBtaWRkbGU7ZmlsbDogY3VycmVudENvbG9yO292ZXJmbG93OiBoaWRkZW47IiBjbGFzcz0ic3ZnLWljb24iPjxwYXRoIGQ9Ik0yMDIuOCA5MTQuOWgtMTI5di0yMzJjMC0xNi4yLTEzLjEtMjkuNC0yOS40LTI5LjRoLTEuOGMtMTYuMiAwLTI5LjQgMTMuMi0yOS40IDI5LjR2MjYxLjRjMCAxNi4yIDEzLjIgMjkuNCAyOS40IDI5LjRoMTYwLjJjMTYuMiAwIDI5LjQtMTMuMiAyOS40LTI5LjRzLTEzLjItMjkuNC0yOS40LTI5LjR6TTQ2OC4yIDY5Ni42Yy0yNi4yLTI4LjctNjQuMS00My4xLTExNC43LTQzLjFoLTg0LjRjLTE2LjIgMC0yOS40IDEzLjItMjkuNCAyOS40djI2MS40YzAgMTYuMiAxMy4yIDI5LjQgMjkuNCAyOS40aDg0LjRjNTAuNiAwIDg4LjYtMTQuNCAxMTQuNy00My4xIDI0LjktMjcuMyAzNy41LTY2LjMgMzcuNS0xMTcgMC01MS4xLTEyLjctOTAuMS0zNy41LTExN3ogbS00My42IDE5NGMtMTcuNCAxNy4xLTQ5LjYgMjQuNy03Ni43IDI0LjdoLTQ3LjN2LTIwNWg0Ny4zYzM0LjUgMCA2MC44IDggNzYuNyAyNC4zIDE1LjUgMTUuOSAyMy4zIDM1LjUgMjMuMyA3MS40IDAgNDQuNC05LjQgNzEtMjMuMyA4NC42ek02NjEuMiA2NzIuN2MtNC4zLTExLjUtMTUuMy0xOS4yLTI3LjYtMTkuMmgtMTcuMWMtMTIuMiAwLTIzLjIgNy42LTI3LjUgMTkuMmwtOTcuMiAyNjEuNGMtNy4yIDE5LjIgNy4xIDM5LjcgMjcuNiAzOS43aDIuNGMxMi41IDAgMjMuNi03LjkgMjcuNy0xOS42bDIxLjQtNjAuN2gxMDkuNGwyMS40IDYwLjdjNC4yIDExLjggMTUuMyAxOS42IDI3LjcgMTkuNmgxLjRjMjAuNSAwIDM0LjctMjAuNSAyNy42LTM5LjdsLTk3LjItMjYxLjR6IG0tNzIuMSAxNjkuNWwzNS4zLTEwMC42aDEuM2wzNSAxMDAuNmgtNzEuNnpNODk5LjggNjUzLjVoLTk5LjdjLTE2LjIgMC0yOS40IDEzLjItMjkuNCAyOS40djI2MS40YzAgMTYuMiAxMy4yIDI5LjQgMjkuNCAyOS40aDIuMmMxNi4yIDAgMjkuNC0xMy4yIDI5LjQtMjkuNHYtOTMuNWg2Ny4yYzc1LjkgMCAxMTMuOS0zMy4yIDExMy45LTk5LjEgMC02NS41LTM4LTk4LjItMTEzLTk4LjJ6IG00NS44IDEzMS45Yy0xMC41IDguMS0yNyAxMi42LTQ5LjcgMTIuNmgtNjQuMnYtOTAuNmg2NC4yYzIyLjIgMCAzOC44IDQgNDkuMyAxMi42IDEwLjUgOC4xIDE2LjEgMTcuOSAxNi4xIDMxLjggMCAxNi43LTUuMiAyNS4xLTE1LjcgMzMuNnpNODE1LjYgNTc3LjVjMC01Ni00NS41LTEwMS41LTEwMS41LTEwMS41SDMxMS45Yy01NiAwLTEwMS41IDQ1LjUtMTAxLjUgMTAxLjUgMCAxNy43IDE0LjMgMzIgMzIgMzJzMzItMTQuMyAzMi0zMmMwLTIwLjcgMTYuOC0zNy41IDM3LjUtMzcuNWg0MDIuMmMyMC43IDAgMzcuNSAxNi44IDM3LjUgMzcuNSAwIDE3LjcgMTQuMyAzMiAzMiAzMnMzMi0xNC40IDMyLTMyek01MTMgNDMxYzEwMS4yIDAgMTgzLjUtODIuMyAxODMuNS0xODMuNVM2MTQuMiA2NCA1MTMgNjRzLTE4My41IDgyLjMtMTgzLjUgMTgzLjVTNDExLjggNDMxIDUxMyA0MzF6IG0wLTMwM2M2NS45IDAgMTE5LjUgNTMuNiAxMTkuNSAxMTkuNVM1NzguOSAzNjcgNTEzIDM2N3MtMTE5LjUtNTMuNi0xMTkuNS0xMTkuNVM0NDcuMSAxMjggNTEzIDEyOHoiLz48L3N2Zz4=" vertex="1" parent="1">
                    <mxGeometry x="510" y="200" width="50" height="50" as="geometry"/>
                </mxCell>
                <mxCell id="MRk_ZylTCQgsaTDmGBeU-7" value="" style="shape=image;verticalLabelPosition=bottom;verticalAlign=top;imageAspect=0;aspect=fixed;image=data:image/svg+xml,PHN2ZyB4bWxucz0iaHR0cDovL3d3dy53My5vcmcvMjAwMC9zdmciIGhlaWdodD0iNjQiIHdpZHRoPSI2NCIgdmlld0JveD0iLTM1LjUgMjYgMzIgMzIiPjxwYXRoIGZpbGw9IiMwMDk0MzgiIGQ9Ik0tMzMuNDQyIDQyLjAyM3YtNy42MzdhLjY4LjY4IDAgMCAxIC4zODUtLjY1MWwxMy4xNzMtNy42MDhjLjIzNy0uMTQ4LjUwMy0uMTc4Ljc0LS4wM2wxMy4yMzIgNy42MzdhLjcxLjcxIDAgMCAxIC4zNTUuNjUxVjQ5LjYzYS43MS43MSAwIDAgMS0uMzU1LjY1MWwtMTEuMzY3IDYuNTdhNTYuMjcgNTYuMjcgMCAwIDEtMS44MDYgMS4wMzZjLS4yNjYuMTQ4LS41MzMuMTQ4LS44IDBsLTEzLjIwMi03LjYwOGMtLjIzNy0uMTQ4LS4zNTUtLjMyNi0uMzU1LS42MjJ2LTcuNjM3eiIvPjxwYXRoIGZpbGw9IiNmZWZlZmUiIGQ9Ik0tMjQuMTE4IDM5LjE4djguOWMwIDEuMDA2LS44IDEuODk0LTEuODY1IDEuODY1LS42NS0uMDMtMS4xNTQtLjI5Ni0xLjUtLjg1OC0uMTc4LS4yNjYtLjIzNy0uNTYyLS4yMzctLjg4OFYzNS44MzZjMC0uODMuNTAzLTEuNDIgMS4xNTQtMS42ODdzMS4zMDItLjIwNyAxLjk1NCAwYy42MjIuMTc4IDEuMDk1LjU2MiAxLjUgMS4wMzZsNy44NzQgOS40NDNjLjAzLjAzLjA2LjA5LjExOC4xNDh2LTljMC0uOTQ3LjY1LTEuNjg3IDEuNTctMS43NzYgMS4xNTQtLjE0OCAxLjkyNC42OCAyLjA0MiAxLjU0djEyLjZjMCAuNy0uMzI2IDEuMjE0LS45MTggMS41NC0uNDQ0LjIzNy0uOTE4LjI5Ni0xLjQyLjI2NmEzLjIzIDMuMjMgMCAwIDEtMS45NTQtLjgyOWMtLjI5Ni0uMjY2LS41MDMtLjU5Mi0uNzctLjg4OGwtNy40OS04Ljk3YzAtLjAzLS4wMy0uMDYtLjA2LS4wOXoiLz48L3N2Zz4=" vertex="1" parent="1">
                    <mxGeometry x="530" y="354" width="64" height="64" as="geometry"/>
                </mxCell>
                <mxCell id="MRk_ZylTCQgsaTDmGBeU-8" value="" style="shape=image;verticalLabelPosition=bottom;labelBackgroundColor=default;verticalAlign=top;aspect=fixed;imageAspect=0;image=data:image/svg+xml,PHN2ZyB4bWxucz0iaHR0cDovL3d3dy53My5vcmcvMjAwMC9zdmciIHhtbDpzcGFjZT0icHJlc2VydmUiIGhlaWdodD0iNjQiIHdpZHRoPSI2NCIgeT0iMCIgeD0iMCIgaWQ9IkxheWVyXzEiIHZlcnNpb249IjEuMSIgdmlld0JveD0iMCAwIDY0IDY0Ij48c3R5bGU+LnN0MHtmaWxsOiMwMGFjZDd9PC9zdHlsZT48c3dpdGNoPjxnPjxwYXRoIGQ9Ik00LjggMjcuM2MtLjEgMC0uMi0uMS0uMS0uMmwuNy0uOGMuMS0uMS4yLS4yLjMtLjJoMTEuMWMuMSAwIC4yLjEuMS4ybC0uNS44Yy0uMS4xLS4yLjItLjMuMkg0Ljh6TS4xIDMwLjJjLS4xIDAtLjEtLjEtLjEtLjJsLjctLjhjMC0uMS4yLS4yLjMtLjJoMTQuMmMuMSAwIC4yLjEuMi4ybC0uMi43YzAgLjEtLjIuMi0uMy4ybC0xNC44LjF6TTcuNyAzM2MtLjEgMC0uMi0uMS0uMS0uMmwuNC0uN2MuMS0uMS4yLS4yLjMtLjJoNi4yYy4xIDAgLjIuMS4yLjJsLS4xLjdjMCAuMS0uMS4yLS4yLjJINy43ek00MCAyNi43bC01LjIgMS40Yy0uNS4xLS41LjItLjktLjMtLjUtLjUtLjgtLjktMS41LTEuMi0yLTEtMy45LS43LTUuNi41LTIuMSAxLjQtMy4yIDMuNC0zLjIgNS45IDAgMi41IDEuNyA0LjUgNC4yIDQuOSAyLjEuMyAzLjktLjUgNS4zLTIuMS4zLS4zLjUtLjcuOC0xLjJoLTZjLS43IDAtLjgtLjQtLjYtLjkuNC0xIDEuMi0yLjYgMS42LTMuNC4xLS4yLjMtLjUuOC0uNUg0MWMtLjEuOC0uMSAxLjctLjIgMi41LS4zIDIuMi0xLjIgNC4zLTIuNiA2LjEtMi4yIDMtNS4yIDQuOC04LjkgNS4zLTMuMS40LTUuOS0uMi04LjQtMi4xLTIuMy0xLjctMy42LTQuMS00LTYuOS0uNC0zLjQuNi02LjQgMi42LTkuMSAyLjItMi45IDUuMS00LjcgOC43LTUuNCAyLjktLjUgNS43LS4yIDguMyAxLjUgMS43IDEuMSAyLjggMi42IDMuNiA0LjQuNC40LjMuNS0uMS42eiIgY2xhc3M9InN0MCIvPjxwYXRoIGQ9Ik01MC4zIDQ0Yy0yLjgtLjEtNS40LS45LTcuNi0yLjctMS44LTEuNi0zLTMuNi0zLjQtNi0uNi0zLjUuNC02LjYgMi41LTkuNCAyLjMtMyA1LTQuNSA4LjctNS4yIDMuMi0uNiA2LjItLjIgOC45IDEuNiAyLjUgMS43IDQgNCA0LjQgNi45LjUgNC4yLS43IDcuNi0zLjYgMTAuNi0yLjEgMi4xLTQuNiAzLjQtNy41IDQtLjcgMC0xLjYuMS0yLjQuMnptNy40LTEyLjZjMC0uNCAwLS43LS4xLTEtLjYtMy4xLTMuNC00LjgtNi40LTQuMS0yLjkuNy00LjggMi41LTUuNSA1LjQtLjYgMi40LjYgNC45IDIuOSA1LjkgMS43LjcgMy40LjcgNS4xLS4yIDIuNS0xLjQgMy45LTMuNCA0LTZ6IiBjbGFzcz0ic3QwIi8+PC9nPjwvc3dpdGNoPjwvc3ZnPg==;" vertex="1" parent="1">
                    <mxGeometry x="280" y="210" width="64" height="64" as="geometry"/>
                </mxCell>
                <mxCell id="MRk_ZylTCQgsaTDmGBeU-9" value="" style="shape=image;verticalLabelPosition=bottom;verticalAlign=top;imageAspect=0;aspect=fixed;image=data:image/svg+xml,PHN2ZyB4bWxucz0iaHR0cDovL3d3dy53My5vcmcvMjAwMC9zdmciIHByZXNlcnZlQXNwZWN0UmF0aW89InhNaWRZTWlkIiB2aWV3Qm94PSIwIDAgMzIgMzIiIGhlaWdodD0iNjQiIHdpZHRoPSI2NCI+PHBhdGggZmlsbD0iI2RkNDgxNCIgZD0iTTMyIDE2YzAgOC44MzYtNy4xNjQgMTYtMTYgMTZTMCAyNC44MzYgMCAxNiA3LjE2NCAwIDE2IDBzMTYgNy4xNjQgMTYgMTZ6Ii8+PHBhdGggZmlsbD0iI2ZmZiIgZD0iTTUuMTIgMTMuODY0Yy0xLjE4IDAtMi4xMzcuOTU2LTIuMTM3IDIuMTM3cy45NTYgMi4xMzYgMi4xMzcgMi4xMzZTNy4yNTcgMTcuMTggNy4yNTcgMTYgNi4zIDEzLjg2NCA1LjEyIDEzLjg2NHptMTUuMjUyIDkuNzFjLTEuMDIyLjYtMS4zNzIgMS44OTYtLjc4MiAyLjkxN3MxLjg5NSAxLjM3MiAyLjkxNy43ODIgMS4zNzItMS44OTUuNzgyLTIuOTE3LTEuODk2LTEuMzctMi45MTctLjc4MnpNOS43NiAxNmE2LjIzIDYuMjMgMCAwIDEgMi42NTMtNS4xMDVMMTAuODUyIDguMjhhOS4zIDkuMyAwIDAgMC0zLjgzOCA1LjM5NEM3LjY5IDE0LjIyNCA4LjEyIDE1LjA2IDguMTIgMTZzLS40MzIgMS43NzYtMS4xMDYgMi4zMjZjLjU3NyAyLjIzNyAxLjk2OCA0LjE0NiAzLjgzOCA1LjM5NWwxLjU2Mi0yLjYxNkE2LjIzIDYuMjMgMCAwIDEgOS43NjEgMTZ6TTE2IDkuNzZhNi4yNCA2LjI0IDAgMCAxIDYuMjE1IDUuNjg3bDMuMDQ0LS4wNDVhOS4yNSA5LjI1IDAgMCAwLTIuNzU3LTYuMDE5Yy0uODEyLjMwNy0xLjc1LjI2LTIuNTYtLjIwOGEyLjk5IDIuOTkgMCAwIDEtMS40NjEtMi4xMThDMTcuNyA2Ljg0IDE2Ljg2IDYuNzIgMTYgNi43MmMtMS40NzcgMC0yLjg3My4zNDctNC4xMTMuOTZsMS40ODQgMi42NmMuOC0uMzcyIDEuNjktLjU4IDIuNjI4LS41OHptMCAxMi40OGMtLjk0IDAtMS44My0uMjEtMi42MjgtLjU4bC0xLjQ4NCAyLjY2YzEuMjQuNjE0IDIuNjM2Ljk2IDQuMTEzLjk2YTkuMjggOS4yOCAwIDAgMCAyLjQ3OS0uMzM4Yy4xNC0uODU4LjY1LTEuNjQ4IDEuNDYtMi4xMThzMS43NS0uNTE0IDIuNTYtLjIwN2E5LjI1IDkuMjUgMCAwIDAgMi43NTctNi4wMTlsLTMuMDQ1LS4wNDVBNi4yNCA2LjI0IDAgMCAxIDE2IDIyLjI0em00LjM3Mi0xMy44MTNjMS4wMjIuNiAyLjMyOC4yNCAyLjkxNy0uNzhzLjI0LTIuMzI4LS43OC0yLjkxOC0yLjMyOC0uMjQtMi45MTguNzgzLS4yNCAyLjMyNy43ODIgMi45MTd6Ii8+PC9zdmc+" vertex="1" parent="1">
                    <mxGeometry x="520" y="550" width="64" height="64" as="geometry"/>
                </mxCell>
                <mxCell id="MRk_ZylTCQgsaTDmGBeU-10" value="" style="shape=image;verticalLabelPosition=bottom;verticalAlign=top;imageAspect=0;aspect=fixed;image=data:image/svg+xml,PHN2ZyB4bWxucz0iaHR0cDovL3d3dy53My5vcmcvMjAwMC9zdmciIGZpbGw9IiMwZDU5N2YiIGhlaWdodD0iNjQiIHdpZHRoPSI2NCIgdmlld0JveD0iMCAwIDY0IDY0Ij48cGF0aCBkPSJNMjMuMjUgMzguODF2LTYuNzQ1bC00Ljg1NSA0Ljg2NGMuNDc0LjMzMy45NjguNjM1IDEuNDguOTA2LjQ2My4yNDMuODcuNDM0IDEuMzAzLjU4cy43ODIuMjQgMS4xMy4zMDQuNjYuMDkzLjk1LjA5Nm0yNC44MjItLjU2MmMuMDQ1LjAzNy4wOTIuMDcuMTQyLjFhMi43NyAyLjc3IDAgMCAwIC4zODUuMjAzIDIuOTMgMi45MyAwIDAgMCAuNjM3LjE5NGMuMjk2LjA2LjU5OC4wODguOS4wODcuMyAwIC42MDgtLjAzLjk1NS0uMDg3YTcuMjQgNy4yNCAwIDAgMCAxLjEzOC0uMzAxIDkuOTYgOS45NiAwIDAgMCAxLjMyLS41NzljLjUyLS4yNzQgMS4wMi0uNTggMS41MDMtLjkxOGwtMy42ODUtMy42LTEyLjIxLTEyLjI1OC01LjM1NiA1LjM1Ni03LjIzLTcuNDU1LTE4LjE0IDE3LjkzNWExMy44MiAxMy44MiAwIDAgMCAxLjUuOTE4Yy40Ny4yNDYuOTEuNDM0IDEuMzE3LjU4YTcuMTggNy4xOCAwIDAgMCAxLjEzNS4zMDEgNS41MyA1LjUzIDAgMCAwIC45NTUuMDg3Yy4zMDIuMDAxLjYwNC0uMDI4LjktLjA4N2EzLjI5IDMuMjkgMCAwIDAgLjYzNy0uMTk0IDIuNDkgMi40OSAwIDAgMCAuMzg1LS4xOTdsLjE0NS0uMTA0IDguMTkzLTguMTkzIDIuOTI0LTIuODA4IDguMTA2IDguMTA2IDIuODM3IDIuOTEyYTEuMjkgMS4yOSAwIDAgMCAuMTQ1LjEwMSAyLjUyIDIuNTIgMCAwIDAgLjM4NS4yYy4yMDYuMDg1LjQyLjE1LjYzNy4xOTQuMjU1LjA1Mi41NTYuMDg3LjkwMy4wODcuMyAwIC42MDgtLjAzLjk1NS0uMDg3YTYuODkgNi44OSAwIDAgMCAxLjEzOC0uMzAxIDkuOTUgOS45NSAwIDAgMCAxLjMyLS41NzljLjUyLS4yNzQgMS4wMi0uNTggMS41MDMtLjkxOGwtNi41MDgtNi4zNyAxLjItMS4yIDUuNjMgNS42MyAzLjI4MyAzLjI1NG0tLjA3LTMzLjk2bDE1Ljk5OCAyNy43MTRMNDguMDAzIDU5LjcxSDE1Ljk5NkwtLjAwMiAzMS45OTcgMTUuOTk2IDQuMjgzeiIvPjxwYXRoIGQ9Ik0zOC4wMiAzMC42NWwtNC4yNjItNC4yNTYuMzA0LS4zMDQgNC4zIDQuMjQ0eiIvPjwvc3ZnPg==" vertex="1" parent="1">
                    <mxGeometry x="270" y="600" width="64" height="64" as="geometry"/>
                </mxCell>
            </root>
        </mxGraphModel>
    </diagram>
</mxfile>
